<svg width="18" height="19" viewBox="0 0 18 19" fill="none" xmlns="http://www.w3.org/2000/svg">
<g clip-path="url(#clip0_40_102)">
<path d="M8.82402 1.45395L8.82405 1.45404C8.78685 1.46999 7.56185 2.02144 5.94556 2.74904C5.63699 2.88795 5.31415 3.03328 4.9826 3.18253L5.00312 3.22812L4.98259 3.18253C3.70913 3.75599 2.76128 4.18654 2.12432 4.48118C1.80588 4.62849 1.5649 4.74193 1.3997 4.82233C1.31716 4.8625 1.25316 4.8946 1.20775 4.91864C1.18508 4.93064 1.16659 4.94087 1.15255 4.94925C1.1407 4.95632 1.12744 4.96467 1.11863 4.97317M8.82402 1.45395L1.28125 7.58437M8.82402 1.45395L8.82693 1.45291M8.82402 1.45395L8.82693 1.45291M1.11863 4.97317C1.08894 5.00109 1.06047 5.04055 1.0374 5.07969C1.01414 5.11915 0.994211 5.16196 0.983359 5.19813L0.982996 5.19934L0.983012 5.19934C0.976708 5.22246 0.972268 5.26868 0.968557 5.32716C0.964697 5.38798 0.961357 5.46801 0.958615 5.56301C0.953128 5.75309 0.95 6.00438 0.95 6.28438V6.28891C0.95 6.75203 0.95 6.99301 0.959087 7.13446C0.963674 7.20585 0.97071 7.25476 0.982199 7.2955C0.993819 7.33671 1.00942 7.36737 1.02762 7.40139C1.0822 7.507 1.1522 7.57731 1.25874 7.62903M1.11863 4.97317C1.11873 4.97308 1.11883 4.97299 1.11893 4.9729L1.15312 5.00937L1.11777 4.97402C1.11805 4.97374 1.11834 4.97346 1.11863 4.97317ZM1.25874 7.62903C1.25898 7.62915 1.25923 7.62926 1.25947 7.62938L1.28125 7.58437M1.25874 7.62903C1.25851 7.62891 1.25828 7.62879 1.25805 7.62867L1.28125 7.58437M1.25874 7.62903C1.29206 7.64647 1.3224 7.66109 1.35838 7.67233C1.39465 7.68366 1.43477 7.69099 1.488 7.69588C1.59283 7.70552 1.75589 7.70625 2.05312 7.70625H2.63738M1.28125 7.58437C1.4125 7.65312 1.45625 7.65625 2.05312 7.65625H2.6375L2.63738 7.70625M2.63738 7.70625H2.68738L2.6875 7.65625L2.63125 10.3029M2.63738 7.70625L2.63125 10.3029M2.63125 10.3029L2.68125 10.3031L2.63125 10.303L2.63125 10.3029ZM15.3937 7.70625H15.9625C16.2504 7.70625 16.4103 7.70552 16.514 7.69588C16.6217 7.68586 16.6727 7.66576 16.7415 7.62891C16.7962 7.60232 16.8407 7.57297 16.8789 7.53517C16.9173 7.49722 16.9475 7.45261 16.9757 7.3979L16.9762 7.39695L16.9762 7.39694C16.9928 7.36283 17.0072 7.33214 17.0181 7.29048C17.0288 7.24941 17.0356 7.19959 17.0401 7.12616C17.0492 6.98004 17.05 6.73033 17.05 6.25C17.05 5.80056 17.0485 5.54975 17.0402 5.39652C17.0318 5.24166 17.0163 5.18103 16.9863 5.11396L16.9857 5.1128C16.9669 5.07346 16.9416 5.03311 16.9157 4.99875C16.8903 4.96526 16.8615 4.93371 16.8347 4.91514L16.8338 4.91453L16.8338 4.91454C16.8187 4.90453 16.7746 4.88253 16.7116 4.85225C16.6465 4.82096 16.5566 4.77874 16.4456 4.72723C16.2235 4.6242 15.9162 4.48372 15.5526 4.31858C14.8251 3.98831 13.8714 3.55926 12.92 3.13366C11.9686 2.70805 11.0194 2.28584 10.301 1.96924C9.94178 1.81094 9.64018 1.679 9.4248 1.58623C9.31715 1.53985 9.23086 1.50318 9.16963 1.47788C9.13905 1.46524 9.11444 1.45532 9.09642 1.44841C9.08745 1.44497 9.07972 1.44212 9.07353 1.44002C9.06948 1.43865 9.06098 1.43574 9.05301 1.43475M15.3937 7.70625L9.0524 1.43468C9.0526 1.4347 9.05281 1.43473 9.05301 1.43475M15.3937 7.70625V10.3125V12.9188H15.9969C16.3065 12.9188 16.4728 12.9195 16.5737 12.9287C16.6249 12.9334 16.6622 12.9405 16.6944 12.952C16.7269 12.9636 16.7516 12.9788 16.7774 12.9957L16.7775 12.9957L16.7793 12.997C16.838 13.0394 16.9206 13.1148 16.9591 13.1673L16.9594 13.1678C16.9772 13.1927 16.9928 13.2172 17.004 13.2625C17.0145 13.3047 17.0212 13.3643 17.0261 13.4599C17.0359 13.652 17.0391 14.0035 17.0437 14.684L17.0531 16.0809L17.0532 16.0938L17.047 16.1052L16.9722 16.2423C16.9722 16.2423 16.9722 16.2424 16.9721 16.2425C16.9175 16.3449 16.8447 16.4176 16.7423 16.4722L15.3937 7.70625ZM9.05301 1.43475C9.01422 1.42953 8.97081 1.42966 8.9317 1.43299M9.05301 1.43475L8.9317 1.43299M8.82693 1.45291C8.85453 1.44306 8.89291 1.43629 8.9317 1.43299M8.82693 1.45291L8.9317 1.43299M12.4888 4.18933L12.4889 4.18935L15.9187 5.73233V6.1625V6.575H9H2.08125V6.1625V5.73542L5.5299 4.17997L12.4888 4.18933ZM12.4888 4.18933C11.5389 3.76122 10.6709 3.37139 10.0381 3.08781C9.72175 2.94602 9.46416 2.8308 9.28451 2.75064L9.07593 2.65778L9.02009 2.63312C9.01869 2.63251 9.01739 2.63194 9.01618 2.63141M12.4888 4.18933L9.01618 2.63141M9.01618 2.63141C9.01584 2.63154 9.01549 2.63168 9.01513 2.63181C9.00273 2.63657 8.98437 2.644 8.96011 2.65411C8.9117 2.67427 8.84122 2.70446 8.75092 2.74367C8.57039 2.82205 8.31146 2.93615 7.99333 3.07734C7.35712 3.35971 6.48456 3.75029 5.52993 4.17995L9.01618 2.63141ZM2.62205 12.9043L2.67072 12.9031L2.67187 12.9531L2.62188 12.9529L2.62205 12.9043ZM16.7423 16.4722L16.608 16.5441L16.5969 16.55H16.5844H9.00937C5.82817 16.55 3.93036 16.5484 2.8173 16.5422C2.26084 16.5391 1.90014 16.5348 1.67317 16.5289C1.55977 16.526 1.47915 16.5226 1.42396 16.5188C1.39641 16.5169 1.37451 16.5148 1.3577 16.5124C1.34263 16.5104 1.32649 16.5075 1.31407 16.5019L1.33437 16.4563L1.3154 16.5025C1.24622 16.4741 1.17661 16.4216 1.1191 16.3621L16.7423 16.4722ZM1.02737 13.2272C1.0274 13.2271 1.02743 13.2271 1.02747 13.227C1.0275 13.227 1.02753 13.2269 1.02756 13.2268L1.07187 13.25L1.02737 13.2272ZM4.64062 12.9188H5.5125V10.3125V7.70625H4.64062H3.76875V10.3125V12.9188H4.64062ZM7.54687 12.9031H8.43437V10.3125V7.72138L7.53717 7.7125L7.537 7.7125L6.64387 7.70658L6.65 10.3029V10.303L6.6592 12.9031H7.54687ZM10.4687 12.9188H11.3562V10.3125V7.70625H10.4687H9.58125V10.3125V12.9188H10.4687ZM13.375 12.9031H14.2469V10.3125V7.72137L13.3653 7.7125L13.3651 7.7125L12.4876 7.70659L12.4937 10.3029L12.4937 10.303L12.5029 12.9031H13.375ZM2.08125 15.4188H9H15.9187V14.7344V14.05H9H2.08125V14.7344V15.4188Z" fill="#BE2618" stroke="#BE2618" stroke-width="0.1"/>
</g>
<defs>
<clipPath id="clip0_40_102">
<rect width="16" height="16" fill="white" transform="translate(1 1)"/>
</clipPath>
</defs>
</svg>
