<svg width="22" height="22" viewBox="0 0 22 22" fill="none" xmlns="http://www.w3.org/2000/svg">
<path d="M1.83398 20.167H20.1673" stroke="#CBCBCB" stroke-width="1.5" stroke-miterlimit="10" stroke-linecap="round" stroke-linejoin="round"/>
<path d="M2.7041 20.1668L2.74993 9.1393C2.74993 8.58013 3.01577 8.04851 3.45577 7.70018L9.87244 2.70434C10.5324 2.191 11.4583 2.191 12.1274 2.70434L18.5441 7.69101C18.9933 8.03934 19.2499 8.57097 19.2499 9.1393V20.1668" stroke="#CBCBCB" stroke-width="1.5" stroke-miterlimit="10" stroke-linejoin="round"/>
<path d="M11.9173 15.583H10.084C9.32315 15.583 8.70898 16.1972 8.70898 16.958V20.1663H13.2923V16.958C13.2923 16.1972 12.6782 15.583 11.9173 15.583Z" stroke="#CBCBCB" stroke-width="1.5" stroke-miterlimit="10" stroke-linejoin="round"/>
<path d="M8.70898 12.6038H6.87565C6.37148 12.6038 5.95898 12.1913 5.95898 11.6872V10.3122C5.95898 9.80801 6.37148 9.39551 6.87565 9.39551H8.70898C9.21315 9.39551 9.62565 9.80801 9.62565 10.3122V11.6872C9.62565 12.1913 9.21315 12.6038 8.70898 12.6038Z" stroke="#CBCBCB" stroke-width="1.5" stroke-miterlimit="10" stroke-linejoin="round"/>
<path d="M15.125 12.6038H13.2917C12.7875 12.6038 12.375 12.1913 12.375 11.6872V10.3122C12.375 9.80801 12.7875 9.39551 13.2917 9.39551H15.125C15.6292 9.39551 16.0417 9.80801 16.0417 10.3122V11.6872C16.0417 12.1913 15.6292 12.6038 15.125 12.6038Z" stroke="#CBCBCB" stroke-width="1.5" stroke-miterlimit="10" stroke-linejoin="round"/>
<path d="M17.4163 6.41699L17.3888 3.66699H13.3555" stroke="#CBCBCB" stroke-width="1.5" stroke-miterlimit="10" stroke-linecap="round" stroke-linejoin="round"/>
</svg>
