<svg width="18" height="19" viewBox="0 0 18 19" fill="none" xmlns="http://www.w3.org/2000/svg">
<g clip-path="url(#clip0_40_103)">
<path d="M8.28229 2.84629L8.1888 2.88179C8.14905 2.7771 8.1337 2.64671 8.13733 2.52521C8.14094 2.40477 8.16362 2.2791 8.2113 2.18643C8.33437 1.94542 8.57692 1.7535 8.83174 1.70202L8.8318 1.70201C9.20293 1.62727 9.6077 1.83459 9.78858 2.1838L9.78859 2.18379L9.78896 2.18454C9.83638 2.27797 9.85913 2.40336 9.86275 2.52408C9.86638 2.64566 9.85101 2.77576 9.81148 2.88126M8.28229 2.84629L8.18855 2.88111C8.2236 2.97549 8.28891 3.07137 8.36309 3.15138C8.43696 3.23105 8.52684 3.30275 8.61729 3.34261L8.65254 3.35856V3.77779C8.65254 3.99773 8.65359 4.12571 8.66018 4.20666C8.66354 4.2479 8.66865 4.28166 8.67751 4.31169C8.68687 4.34346 8.69926 4.36708 8.71258 4.38853L8.79754 4.33579M8.28229 2.84629C8.34079 3.00379 8.50954 3.18604 8.65804 3.25129L8.75254 3.29404M8.28229 2.84629L8.75254 3.29404M8.79754 4.33579L8.71231 4.38809C8.80138 4.53325 8.99077 4.58409 9.14681 4.50919L9.14706 4.50908C9.18213 4.49212 9.22287 4.47066 9.25636 4.4345C9.2918 4.39624 9.3117 4.35011 9.32377 4.29596C9.34591 4.19664 9.34754 4.03755 9.34754 3.77329V3.35856L9.38279 3.34261C9.47324 3.30275 9.56313 3.23104 9.63699 3.15138C9.71113 3.07141 9.77641 2.97559 9.81148 2.88126M8.79754 4.33579C8.75704 4.27054 8.75254 4.22104 8.75254 3.77779V3.29404M8.79754 4.33579L8.75254 3.29404M9.81148 2.88126C9.8115 2.88121 9.81151 2.88116 9.81153 2.88111L9.71779 2.84629M9.81148 2.88126C9.81146 2.8813 9.81144 2.88135 9.81142 2.8814L9.71779 2.84629M9.71779 2.84629C9.78529 2.66629 9.77629 2.38054 9.69979 2.22979M9.71779 2.84629C9.65929 3.00379 9.49054 3.18604 9.34204 3.25129L9.69979 2.22979M9.69979 2.22979C9.53779 1.91704 9.17554 1.73479 8.85154 1.80004C8.62879 1.84504 8.41054 2.01604 8.30029 2.23204L9.69979 2.22979ZM9.18229 2.74954L9.11554 2.67508C9.19681 2.60221 9.1765 2.4626 9.08928 2.4177L9.08916 2.41764C8.99866 2.37091 8.91282 2.40129 8.86412 2.46111C8.81637 2.51977 8.80976 2.59784 8.875 2.66308C8.92773 2.71581 8.96776 2.73087 8.99648 2.73203C9.02458 2.73316 9.06328 2.72184 9.11561 2.67502L9.18229 2.74954ZM9.18229 2.74954C9.31279 2.63254 9.28804 2.40754 9.13504 2.32879L9.18229 2.74954Z" fill="#BE2618" stroke="#BE2618" stroke-width="0.2"/>
<path d="M4.02161 3.14057L4.02122 3.14099C3.9423 3.22709 3.88533 3.30724 3.84988 3.40268C3.81469 3.49743 3.80369 3.59928 3.80369 3.72381V3.7251L3.80369 3.7251C3.80481 3.8119 3.80695 3.87488 3.81752 3.93082C3.82872 3.99007 3.84848 4.03725 3.87724 4.09478L3.87754 4.09537L3.87754 4.09537C4.03335 4.40196 4.31358 4.58091 4.6522 4.59102L4.65245 4.59103L4.76113 4.594L4.96693 4.94623C5.03159 5.05852 5.09587 5.16492 5.1477 5.24625C5.17357 5.28684 5.19683 5.32195 5.21576 5.3487C5.22517 5.362 5.23415 5.37414 5.24227 5.38421C5.2479 5.39119 5.25852 5.40416 5.27163 5.41469C5.32668 5.4603 5.40982 5.47756 5.48094 5.47756C5.66185 5.47756 5.8052 5.35676 5.82761 5.17662C5.82764 5.17641 5.82767 5.17621 5.82769 5.176L5.72844 5.16381C5.73969 5.08056 5.71944 5.03781 5.50119 4.65981L4.02161 3.14057ZM4.02161 3.14057C4.14609 3.00632 4.26722 2.92463 4.42829 2.88043M4.02161 3.14057L4.42829 2.88043M5.45923 3.36241C5.48735 3.42333 5.50742 3.47371 5.51928 3.53162C5.53095 3.58861 5.53369 3.6481 5.53369 3.72606C5.53369 3.8093 5.53173 3.86971 5.51674 3.93076C5.50194 3.99099 5.47558 4.04703 5.43789 4.12351L5.43791 4.12352L5.43691 4.12545L5.37462 4.24523L5.45923 3.36241ZM5.45923 3.36241C5.37318 3.17523 5.19841 2.99909 5.01906 2.92111L5.01895 2.92106C4.93685 2.88548 4.82747 2.86561 4.72456 2.85875C4.62176 2.8519 4.51201 2.85714 4.42829 2.88043M5.45923 3.36241L4.42829 2.88043M4.73239 3.57125L4.73207 3.57112C4.71067 3.56236 4.689 3.55497 4.67201 3.54988C4.66867 3.54887 4.66561 3.54799 4.66288 3.54723C4.64921 3.55023 4.63199 3.55376 4.61511 3.55662C4.61508 3.55663 4.61504 3.55664 4.615 3.55666C4.61383 3.55705 4.60676 3.55946 4.59412 3.56805C4.58065 3.57721 4.56534 3.59036 4.55037 3.60632C4.51789 3.64095 4.49997 3.67458 4.49643 3.69095L4.49636 3.69125C4.49231 3.70969 4.4954 3.74333 4.51284 3.78183C4.53013 3.81999 4.55435 3.84695 4.57354 3.85836L4.57389 3.85856C4.57839 3.86127 4.59381 3.86792 4.61824 3.87391C4.64146 3.8796 4.66416 3.88256 4.67994 3.88256C4.71303 3.88256 4.72352 3.87939 4.72989 3.87656C4.73779 3.87305 4.75078 3.8648 4.78023 3.83535C4.87085 3.74472 4.84148 3.61544 4.73239 3.57125Z" fill="#BE2618" stroke="#BE2618" stroke-width="0.2"/>
<path d="M13.0971 2.88194L13.0966 2.88212C12.8283 2.97319 12.6525 3.12106 12.5385 3.36673L12.5384 3.36702C12.5108 3.42699 12.4921 3.47672 12.481 3.53406C12.4702 3.58978 12.4674 3.64856 12.4662 3.72457L12.4662 3.72606C12.4662 3.80839 12.4675 3.86866 12.4823 3.92936C12.4969 3.98973 12.5236 4.04558 12.5625 4.1223L12.5627 4.12272L12.5627 4.12272L12.6255 4.24493L12.4124 4.60934L12.4121 4.60981L12.4121 4.60981C12.3042 4.79678 12.2414 4.90715 12.2079 4.98111C12.1907 5.01913 12.1787 5.05276 12.173 5.08611C12.167 5.1209 12.1687 5.14995 12.1723 5.17662M13.0971 2.88194L12.2715 5.16381M13.0971 2.88194C13.1764 2.85552 13.2881 2.85088 13.3896 2.85763C13.4923 2.86445 13.6035 2.88422 13.6836 2.91873L13.6836 2.91872L13.6852 2.91948C13.7711 2.95836 13.8599 3.02495 13.9357 3.0996C14.0117 3.17431 14.081 3.26339 14.1234 3.3521C14.1509 3.40946 14.1702 3.45714 14.1815 3.51628C14.1923 3.57284 14.1951 3.63593 14.1962 3.72251L14.1962 3.72251V3.72381C14.1962 3.8116 14.1948 3.8748 14.184 3.93105C14.1726 3.99062 14.1518 4.03776 14.1223 4.09551L14.1223 4.09551L14.1221 4.09595C13.9644 4.40119 13.6848 4.58334 13.3472 4.59103C13.3471 4.59103 13.347 4.59104 13.347 4.59104L13.2368 4.59402M13.0971 2.88194L13.2368 4.59402M12.1723 5.17662C12.1723 5.17681 12.1723 5.17701 12.1724 5.17721L12.2715 5.16381M12.1723 5.17662C12.1723 5.17641 12.1722 5.17621 12.1722 5.176L12.2715 5.16381M12.1723 5.17662C12.1947 5.35676 12.338 5.47756 12.519 5.47756C12.5901 5.47756 12.6732 5.4603 12.7283 5.41469M12.2715 5.16381C12.2872 5.29206 12.3862 5.37756 12.519 5.37756C12.5797 5.37756 12.636 5.36181 12.6652 5.33706M12.7283 5.41469C12.7273 5.41549 12.7263 5.41629 12.7252 5.41706L12.6652 5.33706M12.7283 5.41469C12.7414 5.40416 12.752 5.39119 12.7576 5.38421C12.7658 5.37414 12.7747 5.362 12.7841 5.3487C12.8031 5.32195 12.8263 5.28684 12.8522 5.24625C12.9041 5.16488 12.9684 5.05842 13.0331 4.94607M12.7283 5.41469C12.7288 5.41426 12.7293 5.41383 12.7298 5.4134L12.6652 5.33706M12.6652 5.33706C12.6922 5.31681 12.8182 5.11881 12.9465 4.89606L13.0331 4.94607M13.0331 4.94607C13.0331 4.94603 13.0331 4.946 13.0331 4.94596L13.2368 4.59402M13.0331 4.94607L13.2368 4.59402M13.5787 3.61356L13.4883 3.65637C13.4826 3.64416 13.4717 3.6273 13.4583 3.61073C13.4448 3.5941 13.4341 3.58436 13.4301 3.5814C13.4129 3.57019 13.3857 3.55937 13.3568 3.55353C13.3425 3.55067 13.33 3.54945 13.3204 3.54945C13.312 3.54945 13.3084 3.55035 13.3084 3.55031L13.3083 3.55034C13.2449 3.57277 13.2156 3.59562 13.1999 3.61732C13.1845 3.63861 13.1725 3.6723 13.1725 3.73731C13.1725 3.76893 13.1756 3.77882 13.1783 3.78491C13.1818 3.79277 13.1902 3.80589 13.2197 3.83535C13.2512 3.8669 13.2627 3.87382 13.2696 3.87671C13.2758 3.87935 13.2872 3.88256 13.329 3.88256C13.4625 3.88256 13.5354 3.75709 13.4881 3.65592L13.5787 3.61356ZM13.5787 3.61356C13.5585 3.57081 13.5157 3.51906 13.4865 3.49881M13.5787 3.61356L13.4865 3.49881M13.4865 3.49881C13.4257 3.45831 13.3245 3.43806 13.275 3.45606M13.4865 3.49881L13.275 3.45606M13.275 3.45606L13.275 3.45607L13.275 3.45606ZM12.6292 3.40881C12.5775 3.52131 12.5685 3.57531 12.5662 3.72606C12.5662 3.89256 12.573 3.92181 12.6517 4.07706L12.7395 4.24806L12.6292 3.40881Z" fill="#BE2618" stroke="#BE2618" stroke-width="0.2"/>
<mask id="path-4-outside-1_40_103" maskUnits="userSpaceOnUse" x="3.73621" y="5.00403" width="10" height="14" fill="black">
<rect fill="white" x="3.73621" y="5.00403" width="10" height="14"/>
<path d="M8.97971 5.84102C8.69396 5.91752 8.41271 6.14927 8.27996 6.42152C8.23946 6.50477 8.19896 6.56777 8.19221 6.56327C8.18546 6.56102 8.11346 6.52502 8.03246 6.48452C7.46996 6.21002 6.77696 6.43502 6.51821 6.97952C6.47546 7.06952 6.43271 7.16177 6.42596 7.18427C6.41471 7.22027 6.40571 7.22027 6.29996 7.16627C5.72621 6.87602 5.04671 7.13027 4.79246 7.72877L4.73621 7.86377V9.74252C4.73846 12.1973 4.76546 12.6383 4.94996 13.1423C5.08271 13.509 5.24696 13.7633 5.63846 14.22C5.93546 14.5665 6.01646 14.688 6.08621 14.886C6.16271 15.0998 6.16046 15.111 6.05021 15.1268C6.00071 15.1335 5.93771 15.1583 5.91296 15.1808C5.80721 15.2753 5.80496 15.291 5.80496 16.5758C5.80496 17.9303 5.80271 17.9055 5.96246 17.982C6.03671 18.018 6.07946 18.0158 6.95246 17.9303C9.07196 17.7255 9.76496 17.658 10.7887 17.5613C12.1432 17.433 12.0487 17.4465 12.1342 17.37L12.2062 17.307L12.213 16.3238C12.2175 15.462 12.2152 15.3338 12.1837 15.2663C12.1387 15.174 12.033 15.12 11.8935 15.12C11.772 15.12 11.7765 15.1538 11.8237 14.724C11.907 13.9365 12.0307 13.6238 12.6045 12.7418C12.7282 12.5528 12.8632 12.321 12.906 12.2288C13.1422 11.7158 13.2637 11.0903 13.2885 10.2263C13.3065 9.69302 13.266 8.80202 13.2165 8.60627C13.113 8.20127 12.789 7.86152 12.3862 7.73777L12.2175 7.68377V7.54877C12.2175 7.20002 12.1117 6.93227 11.8822 6.70277C11.52 6.34052 11.0002 6.26402 10.5277 6.50477C10.4512 6.54077 10.3882 6.57002 10.386 6.56552C10.1925 6.15152 9.97421 5.94902 9.60971 5.84102C9.45671 5.79602 9.14396 5.79602 8.97971 5.84102ZM9.58046 6.36527C9.72221 6.43727 9.80321 6.51827 9.87071 6.65552C9.93146 6.78152 9.93371 6.79502 9.94271 7.22702L9.94946 7.66802L9.42521 7.67702C8.93471 7.68377 8.89196 7.68827 8.78846 7.73552C8.72771 7.76252 8.67596 7.78502 8.67146 7.78502C8.66696 7.78502 8.66246 7.57352 8.66246 7.31702C8.66246 6.73877 8.68046 6.66227 8.84921 6.49352C8.99771 6.34502 9.13046 6.29552 9.34196 6.30902C9.42971 6.31577 9.52646 6.33827 9.58046 6.36527ZM7.82321 6.94352C7.94921 7.00427 8.02796 7.08527 8.10671 7.23152C8.15621 7.32152 8.15621 7.34177 8.15621 8.14502C8.15621 8.94827 8.15621 8.96852 8.10671 9.05852C7.97846 9.29927 7.79621 9.41177 7.52846 9.41402C7.26296 9.41627 7.07621 9.30152 6.94571 9.05852C6.89846 8.96852 6.89621 8.93927 6.88946 8.19677C6.88496 7.71527 6.89171 7.39577 6.90521 7.34177C7.01096 6.95027 7.44746 6.76127 7.82321 6.94352ZM11.3535 6.93227C11.4772 6.99077 11.6055 7.11902 11.6572 7.23152C11.6797 7.28327 11.7045 7.40252 11.7135 7.49702L11.7292 7.67252H11.0812H10.4332L10.4445 7.48577C10.4557 7.28777 10.485 7.20677 10.602 7.07627C10.7752 6.87827 11.106 6.81527 11.3535 6.93227ZM6.08171 7.62302C6.21446 7.69502 6.31571 7.81877 6.35846 7.95827C6.40571 8.11577 6.40346 9.24077 6.35396 9.40277C6.28871 9.62552 6.03896 9.81002 5.80496 9.81002C5.60696 9.81002 5.37746 9.66827 5.28071 9.48602C5.23346 9.39827 5.23121 9.36452 5.22446 8.73452C5.21771 8.19452 5.22446 8.05277 5.25146 7.95827C5.35496 7.60727 5.75546 7.44527 6.08171 7.62302ZM12.3345 8.25302C12.5257 8.34752 12.6765 8.53202 12.7305 8.74127C12.744 8.79077 12.7665 9.09002 12.78 9.40727C12.8385 10.755 12.69 11.664 12.3142 12.2558C11.9092 12.8925 11.8215 13.0388 11.7 13.284C11.475 13.743 11.3895 14.049 11.3287 14.6273C11.3107 14.805 11.2882 14.9895 11.2815 15.0368L11.268 15.12H10.4152H9.56246V14.877C9.56246 13.9883 9.94046 13.158 10.5952 12.6113C10.692 12.5303 10.782 12.438 10.7977 12.4065C10.845 12.303 10.8292 12.2198 10.746 12.1365C10.683 12.0735 10.6515 12.06 10.575 12.06C10.4692 12.06 10.4175 12.0915 10.206 12.2805C9.47471 12.9285 9.04496 13.9275 9.04496 14.976V15.12H7.85246C6.68696 15.12 6.65996 15.12 6.65996 15.0773C6.65996 14.985 6.49796 14.5395 6.41021 14.3955C6.36071 14.3123 6.21446 14.1188 6.08396 13.968C5.95571 13.815 5.80721 13.6395 5.75771 13.5765C5.53721 13.2908 5.36846 12.8993 5.31221 12.5438C5.28071 12.33 5.24696 11.646 5.22896 10.827L5.21321 10.1453L5.33471 10.2038C5.59121 10.3208 5.93996 10.3365 6.19421 10.2375C6.38096 10.1678 6.58571 10.0013 6.70271 9.82802L6.80171 9.68177L6.90521 9.74477C7.14146 9.89552 7.43621 9.95177 7.73546 9.90002C8.08196 9.84152 8.38796 9.61427 8.54321 9.29702C8.58821 9.20927 8.63096 9.13502 8.63771 9.13502C8.64671 9.13502 8.69396 9.18677 8.74121 9.25202C8.92571 9.49277 9.30371 9.73802 9.68846 9.86852C9.96296 9.96077 10.1542 9.99002 10.5592 10.0058C10.8945 10.017 10.935 10.0238 10.9237 10.0553C10.9147 10.0755 10.8967 10.188 10.8855 10.305C10.8517 10.5885 10.8877 10.818 10.98 10.9215C11.0362 10.9823 11.0587 10.9913 11.16 10.9913C11.2635 10.9913 11.2837 10.9823 11.3445 10.9148C11.412 10.8405 11.412 10.8338 11.3962 10.6898C11.3625 10.3815 11.3827 10.2218 11.493 9.90227C11.5672 9.68852 11.5627 9.61652 11.4637 9.51977C11.3985 9.45227 11.3512 9.45002 10.9237 9.49277C9.83921 9.59852 9.00896 9.14627 8.90096 8.38802C8.88746 8.29802 8.89196 8.27552 8.93246 8.23502C8.97746 8.19002 8.98646 8.19002 10.6042 8.19452L12.2287 8.20127L12.3345 8.25302ZM11.7225 16.299V16.9605L11.6167 16.974C11.5312 16.9853 9.85496 17.1473 8.43746 17.2823C8.30696 17.2935 7.78721 17.3453 7.27871 17.3925C6.77246 17.442 6.34946 17.4825 6.34046 17.4825C6.32921 17.4825 6.32246 17.0685 6.32246 16.56V15.6375H9.02246H11.7225V16.299Z"/>
</mask>
<path d="M8.97971 5.84102C8.69396 5.91752 8.41271 6.14927 8.27996 6.42152C8.23946 6.50477 8.19896 6.56777 8.19221 6.56327C8.18546 6.56102 8.11346 6.52502 8.03246 6.48452C7.46996 6.21002 6.77696 6.43502 6.51821 6.97952C6.47546 7.06952 6.43271 7.16177 6.42596 7.18427C6.41471 7.22027 6.40571 7.22027 6.29996 7.16627C5.72621 6.87602 5.04671 7.13027 4.79246 7.72877L4.73621 7.86377V9.74252C4.73846 12.1973 4.76546 12.6383 4.94996 13.1423C5.08271 13.509 5.24696 13.7633 5.63846 14.22C5.93546 14.5665 6.01646 14.688 6.08621 14.886C6.16271 15.0998 6.16046 15.111 6.05021 15.1268C6.00071 15.1335 5.93771 15.1583 5.91296 15.1808C5.80721 15.2753 5.80496 15.291 5.80496 16.5758C5.80496 17.9303 5.80271 17.9055 5.96246 17.982C6.03671 18.018 6.07946 18.0158 6.95246 17.9303C9.07196 17.7255 9.76496 17.658 10.7887 17.5613C12.1432 17.433 12.0487 17.4465 12.1342 17.37L12.2062 17.307L12.213 16.3238C12.2175 15.462 12.2152 15.3338 12.1837 15.2663C12.1387 15.174 12.033 15.12 11.8935 15.12C11.772 15.12 11.7765 15.1538 11.8237 14.724C11.907 13.9365 12.0307 13.6238 12.6045 12.7418C12.7282 12.5528 12.8632 12.321 12.906 12.2288C13.1422 11.7158 13.2637 11.0903 13.2885 10.2263C13.3065 9.69302 13.266 8.80202 13.2165 8.60627C13.113 8.20127 12.789 7.86152 12.3862 7.73777L12.2175 7.68377V7.54877C12.2175 7.20002 12.1117 6.93227 11.8822 6.70277C11.52 6.34052 11.0002 6.26402 10.5277 6.50477C10.4512 6.54077 10.3882 6.57002 10.386 6.56552C10.1925 6.15152 9.97421 5.94902 9.60971 5.84102C9.45671 5.79602 9.14396 5.79602 8.97971 5.84102ZM9.58046 6.36527C9.72221 6.43727 9.80321 6.51827 9.87071 6.65552C9.93146 6.78152 9.93371 6.79502 9.94271 7.22702L9.94946 7.66802L9.42521 7.67702C8.93471 7.68377 8.89196 7.68827 8.78846 7.73552C8.72771 7.76252 8.67596 7.78502 8.67146 7.78502C8.66696 7.78502 8.66246 7.57352 8.66246 7.31702C8.66246 6.73877 8.68046 6.66227 8.84921 6.49352C8.99771 6.34502 9.13046 6.29552 9.34196 6.30902C9.42971 6.31577 9.52646 6.33827 9.58046 6.36527ZM7.82321 6.94352C7.94921 7.00427 8.02796 7.08527 8.10671 7.23152C8.15621 7.32152 8.15621 7.34177 8.15621 8.14502C8.15621 8.94827 8.15621 8.96852 8.10671 9.05852C7.97846 9.29927 7.79621 9.41177 7.52846 9.41402C7.26296 9.41627 7.07621 9.30152 6.94571 9.05852C6.89846 8.96852 6.89621 8.93927 6.88946 8.19677C6.88496 7.71527 6.89171 7.39577 6.90521 7.34177C7.01096 6.95027 7.44746 6.76127 7.82321 6.94352ZM11.3535 6.93227C11.4772 6.99077 11.6055 7.11902 11.6572 7.23152C11.6797 7.28327 11.7045 7.40252 11.7135 7.49702L11.7292 7.67252H11.0812H10.4332L10.4445 7.48577C10.4557 7.28777 10.485 7.20677 10.602 7.07627C10.7752 6.87827 11.106 6.81527 11.3535 6.93227ZM6.08171 7.62302C6.21446 7.69502 6.31571 7.81877 6.35846 7.95827C6.40571 8.11577 6.40346 9.24077 6.35396 9.40277C6.28871 9.62552 6.03896 9.81002 5.80496 9.81002C5.60696 9.81002 5.37746 9.66827 5.28071 9.48602C5.23346 9.39827 5.23121 9.36452 5.22446 8.73452C5.21771 8.19452 5.22446 8.05277 5.25146 7.95827C5.35496 7.60727 5.75546 7.44527 6.08171 7.62302ZM12.3345 8.25302C12.5257 8.34752 12.6765 8.53202 12.7305 8.74127C12.744 8.79077 12.7665 9.09002 12.78 9.40727C12.8385 10.755 12.69 11.664 12.3142 12.2558C11.9092 12.8925 11.8215 13.0388 11.7 13.284C11.475 13.743 11.3895 14.049 11.3287 14.6273C11.3107 14.805 11.2882 14.9895 11.2815 15.0368L11.268 15.12H10.4152H9.56246V14.877C9.56246 13.9883 9.94046 13.158 10.5952 12.6113C10.692 12.5303 10.782 12.438 10.7977 12.4065C10.845 12.303 10.8292 12.2198 10.746 12.1365C10.683 12.0735 10.6515 12.06 10.575 12.06C10.4692 12.06 10.4175 12.0915 10.206 12.2805C9.47471 12.9285 9.04496 13.9275 9.04496 14.976V15.12H7.85246C6.68696 15.12 6.65996 15.12 6.65996 15.0773C6.65996 14.985 6.49796 14.5395 6.41021 14.3955C6.36071 14.3123 6.21446 14.1188 6.08396 13.968C5.95571 13.815 5.80721 13.6395 5.75771 13.5765C5.53721 13.2908 5.36846 12.8993 5.31221 12.5438C5.28071 12.33 5.24696 11.646 5.22896 10.827L5.21321 10.1453L5.33471 10.2038C5.59121 10.3208 5.93996 10.3365 6.19421 10.2375C6.38096 10.1678 6.58571 10.0013 6.70271 9.82802L6.80171 9.68177L6.90521 9.74477C7.14146 9.89552 7.43621 9.95177 7.73546 9.90002C8.08196 9.84152 8.38796 9.61427 8.54321 9.29702C8.58821 9.20927 8.63096 9.13502 8.63771 9.13502C8.64671 9.13502 8.69396 9.18677 8.74121 9.25202C8.92571 9.49277 9.30371 9.73802 9.68846 9.86852C9.96296 9.96077 10.1542 9.99002 10.5592 10.0058C10.8945 10.017 10.935 10.0238 10.9237 10.0553C10.9147 10.0755 10.8967 10.188 10.8855 10.305C10.8517 10.5885 10.8877 10.818 10.98 10.9215C11.0362 10.9823 11.0587 10.9913 11.16 10.9913C11.2635 10.9913 11.2837 10.9823 11.3445 10.9148C11.412 10.8405 11.412 10.8338 11.3962 10.6898C11.3625 10.3815 11.3827 10.2218 11.493 9.90227C11.5672 9.68852 11.5627 9.61652 11.4637 9.51977C11.3985 9.45227 11.3512 9.45002 10.9237 9.49277C9.83921 9.59852 9.00896 9.14627 8.90096 8.38802C8.88746 8.29802 8.89196 8.27552 8.93246 8.23502C8.97746 8.19002 8.98646 8.19002 10.6042 8.19452L12.2287 8.20127L12.3345 8.25302ZM11.7225 16.299V16.9605L11.6167 16.974C11.5312 16.9853 9.85496 17.1473 8.43746 17.2823C8.30696 17.2935 7.78721 17.3453 7.27871 17.3925C6.77246 17.442 6.34946 17.4825 6.34046 17.4825C6.32921 17.4825 6.32246 17.0685 6.32246 16.56V15.6375H9.02246H11.7225V16.299Z" fill="#BE2618"/>
<path d="M8.97971 5.84102C8.69396 5.91752 8.41271 6.14927 8.27996 6.42152C8.23946 6.50477 8.19896 6.56777 8.19221 6.56327C8.18546 6.56102 8.11346 6.52502 8.03246 6.48452C7.46996 6.21002 6.77696 6.43502 6.51821 6.97952C6.47546 7.06952 6.43271 7.16177 6.42596 7.18427C6.41471 7.22027 6.40571 7.22027 6.29996 7.16627C5.72621 6.87602 5.04671 7.13027 4.79246 7.72877L4.73621 7.86377V9.74252C4.73846 12.1973 4.76546 12.6383 4.94996 13.1423C5.08271 13.509 5.24696 13.7633 5.63846 14.22C5.93546 14.5665 6.01646 14.688 6.08621 14.886C6.16271 15.0998 6.16046 15.111 6.05021 15.1268C6.00071 15.1335 5.93771 15.1583 5.91296 15.1808C5.80721 15.2753 5.80496 15.291 5.80496 16.5758C5.80496 17.9303 5.80271 17.9055 5.96246 17.982C6.03671 18.018 6.07946 18.0158 6.95246 17.9303C9.07196 17.7255 9.76496 17.658 10.7887 17.5613C12.1432 17.433 12.0487 17.4465 12.1342 17.37L12.2062 17.307L12.213 16.3238C12.2175 15.462 12.2152 15.3338 12.1837 15.2663C12.1387 15.174 12.033 15.12 11.8935 15.12C11.772 15.12 11.7765 15.1538 11.8237 14.724C11.907 13.9365 12.0307 13.6238 12.6045 12.7418C12.7282 12.5528 12.8632 12.321 12.906 12.2288C13.1422 11.7158 13.2637 11.0903 13.2885 10.2263C13.3065 9.69302 13.266 8.80202 13.2165 8.60627C13.113 8.20127 12.789 7.86152 12.3862 7.73777L12.2175 7.68377V7.54877C12.2175 7.20002 12.1117 6.93227 11.8822 6.70277C11.52 6.34052 11.0002 6.26402 10.5277 6.50477C10.4512 6.54077 10.3882 6.57002 10.386 6.56552C10.1925 6.15152 9.97421 5.94902 9.60971 5.84102C9.45671 5.79602 9.14396 5.79602 8.97971 5.84102ZM9.58046 6.36527C9.72221 6.43727 9.80321 6.51827 9.87071 6.65552C9.93146 6.78152 9.93371 6.79502 9.94271 7.22702L9.94946 7.66802L9.42521 7.67702C8.93471 7.68377 8.89196 7.68827 8.78846 7.73552C8.72771 7.76252 8.67596 7.78502 8.67146 7.78502C8.66696 7.78502 8.66246 7.57352 8.66246 7.31702C8.66246 6.73877 8.68046 6.66227 8.84921 6.49352C8.99771 6.34502 9.13046 6.29552 9.34196 6.30902C9.42971 6.31577 9.52646 6.33827 9.58046 6.36527ZM7.82321 6.94352C7.94921 7.00427 8.02796 7.08527 8.10671 7.23152C8.15621 7.32152 8.15621 7.34177 8.15621 8.14502C8.15621 8.94827 8.15621 8.96852 8.10671 9.05852C7.97846 9.29927 7.79621 9.41177 7.52846 9.41402C7.26296 9.41627 7.07621 9.30152 6.94571 9.05852C6.89846 8.96852 6.89621 8.93927 6.88946 8.19677C6.88496 7.71527 6.89171 7.39577 6.90521 7.34177C7.01096 6.95027 7.44746 6.76127 7.82321 6.94352ZM11.3535 6.93227C11.4772 6.99077 11.6055 7.11902 11.6572 7.23152C11.6797 7.28327 11.7045 7.40252 11.7135 7.49702L11.7292 7.67252H11.0812H10.4332L10.4445 7.48577C10.4557 7.28777 10.485 7.20677 10.602 7.07627C10.7752 6.87827 11.106 6.81527 11.3535 6.93227ZM6.08171 7.62302C6.21446 7.69502 6.31571 7.81877 6.35846 7.95827C6.40571 8.11577 6.40346 9.24077 6.35396 9.40277C6.28871 9.62552 6.03896 9.81002 5.80496 9.81002C5.60696 9.81002 5.37746 9.66827 5.28071 9.48602C5.23346 9.39827 5.23121 9.36452 5.22446 8.73452C5.21771 8.19452 5.22446 8.05277 5.25146 7.95827C5.35496 7.60727 5.75546 7.44527 6.08171 7.62302ZM12.3345 8.25302C12.5257 8.34752 12.6765 8.53202 12.7305 8.74127C12.744 8.79077 12.7665 9.09002 12.78 9.40727C12.8385 10.755 12.69 11.664 12.3142 12.2558C11.9092 12.8925 11.8215 13.0388 11.7 13.284C11.475 13.743 11.3895 14.049 11.3287 14.6273C11.3107 14.805 11.2882 14.9895 11.2815 15.0368L11.268 15.12H10.4152H9.56246V14.877C9.56246 13.9883 9.94046 13.158 10.5952 12.6113C10.692 12.5303 10.782 12.438 10.7977 12.4065C10.845 12.303 10.8292 12.2198 10.746 12.1365C10.683 12.0735 10.6515 12.06 10.575 12.06C10.4692 12.06 10.4175 12.0915 10.206 12.2805C9.47471 12.9285 9.04496 13.9275 9.04496 14.976V15.12H7.85246C6.68696 15.12 6.65996 15.12 6.65996 15.0773C6.65996 14.985 6.49796 14.5395 6.41021 14.3955C6.36071 14.3123 6.21446 14.1188 6.08396 13.968C5.95571 13.815 5.80721 13.6395 5.75771 13.5765C5.53721 13.2908 5.36846 12.8993 5.31221 12.5438C5.28071 12.33 5.24696 11.646 5.22896 10.827L5.21321 10.1453L5.33471 10.2038C5.59121 10.3208 5.93996 10.3365 6.19421 10.2375C6.38096 10.1678 6.58571 10.0013 6.70271 9.82802L6.80171 9.68177L6.90521 9.74477C7.14146 9.89552 7.43621 9.95177 7.73546 9.90002C8.08196 9.84152 8.38796 9.61427 8.54321 9.29702C8.58821 9.20927 8.63096 9.13502 8.63771 9.13502C8.64671 9.13502 8.69396 9.18677 8.74121 9.25202C8.92571 9.49277 9.30371 9.73802 9.68846 9.86852C9.96296 9.96077 10.1542 9.99002 10.5592 10.0058C10.8945 10.017 10.935 10.0238 10.9237 10.0553C10.9147 10.0755 10.8967 10.188 10.8855 10.305C10.8517 10.5885 10.8877 10.818 10.98 10.9215C11.0362 10.9823 11.0587 10.9913 11.16 10.9913C11.2635 10.9913 11.2837 10.9823 11.3445 10.9148C11.412 10.8405 11.412 10.8338 11.3962 10.6898C11.3625 10.3815 11.3827 10.2218 11.493 9.90227C11.5672 9.68852 11.5627 9.61652 11.4637 9.51977C11.3985 9.45227 11.3512 9.45002 10.9237 9.49277C9.83921 9.59852 9.00896 9.14627 8.90096 8.38802C8.88746 8.29802 8.89196 8.27552 8.93246 8.23502C8.97746 8.19002 8.98646 8.19002 10.6042 8.19452L12.2287 8.20127L12.3345 8.25302ZM11.7225 16.299V16.9605L11.6167 16.974C11.5312 16.9853 9.85496 17.1473 8.43746 17.2823C8.30696 17.2935 7.78721 17.3453 7.27871 17.3925C6.77246 17.442 6.34946 17.4825 6.34046 17.4825C6.32921 17.4825 6.32246 17.0685 6.32246 16.56V15.6375H9.02246H11.7225V16.299Z" stroke="#BE2618" stroke-width="0.4" mask="url(#path-4-outside-1_40_103)"/>
<path d="M0.922484 7.40927L0.848769 7.47684C0.427442 7.01721 0.617078 6.28852 1.20475 6.06909L1.20475 6.06908L1.20567 6.06875C1.29906 6.03491 1.41515 6.0226 1.52595 6.02655C1.63697 6.0305 1.75287 6.05114 1.84613 6.0911L1.84613 6.09109L1.84742 6.09167C2.15194 6.2273 2.35337 6.53728 2.36344 6.87983L2.36345 6.88007L2.36644 6.9907L2.71838 7.19436C2.71841 7.19437 2.71844 7.19439 2.71847 7.19441C2.83084 7.25911 2.93726 7.3234 3.01881 7.3752C3.05951 7.40105 3.0947 7.42421 3.12159 7.443C3.13497 7.45235 3.14707 7.46116 3.1571 7.46902C3.16506 7.47527 3.17826 7.4859 3.18856 7.49825L3.18862 7.4982L3.191 7.5013C3.23214 7.55479 3.24998 7.63611 3.24998 7.70852C3.24998 7.88475 3.12998 8.02863 2.95688 8.05696L2.95689 8.05697L2.95528 8.0572C2.92919 8.06104 2.90064 8.06282 2.866 8.05665C2.83347 8.05085 2.80024 8.03888 2.76253 8.02181C2.68875 7.98841 2.57753 7.92584 2.3892 7.81775L2.3892 7.81775L2.38877 7.8175L2.01752 7.60193L1.89514 7.66474L1.89514 7.66474L1.89472 7.66495C1.81801 7.70386 1.76215 7.73058 1.70178 7.74523C1.64108 7.75996 1.58081 7.76127 1.49848 7.76127L1.49756 7.76126C1.22803 7.75877 1.0256 7.67136 0.84849 7.47654L0.922484 7.40927ZM0.922484 7.40927C1.07998 7.58252 1.25548 7.65902 1.49848 7.66127L2.26348 6.88277C2.25448 6.57677 2.07448 6.30227 1.80673 6.18302C1.64923 6.11552 1.39498 6.10652 1.23973 6.16277C0.715484 6.35852 0.551234 7.00427 0.922484 7.40927ZM1.5684 6.7415L1.56818 6.74139C1.55142 6.73345 1.53243 6.72622 1.51564 6.72114C1.50731 6.71862 1.5004 6.71689 1.49526 6.71587C1.49289 6.7154 1.49136 6.71517 1.49058 6.71506C1.48108 6.71569 1.45345 6.72365 1.41707 6.74904C1.38114 6.77413 1.35392 6.80436 1.34219 6.8272L1.3422 6.8272L1.34155 6.82843C1.32309 6.86317 1.32134 6.87263 1.32093 6.87663C1.32054 6.8805 1.3203 6.88956 1.3311 6.92632C1.35429 7.00364 1.4054 7.04477 1.45604 7.05694C1.50636 7.06904 1.56796 7.0555 1.6201 6.9979L1.62024 6.99775C1.68748 6.92379 1.66058 6.78487 1.5684 6.7415Z" fill="#BE2618" stroke="#BE2618" stroke-width="0.2"/>
<path d="M16.2944 6.04341L16.2946 6.04335C16.3775 6.02226 16.4889 6.02172 16.5917 6.03268C16.6948 6.04367 16.8048 6.06791 16.8847 6.10646L16.8847 6.10644L16.8865 6.10736C16.9702 6.14986 17.0571 6.21966 17.1306 6.29585C17.2037 6.37169 17.2704 6.46103 17.3083 6.5473C17.4979 6.9726 17.2932 7.49163 16.8671 7.68692L16.8671 7.68693L16.8659 7.68747C16.8045 7.71465 16.7536 7.73362 16.6959 7.74524C16.639 7.75667 16.5798 7.76011 16.503 7.76126L16.503 7.76127H16.5015C16.4191 7.76127 16.3589 7.75996 16.2982 7.74523C16.2378 7.73058 16.182 7.70386 16.1052 7.66495L16.1052 7.66495L16.1048 7.66474L15.9824 7.60193L15.6112 7.8175L15.6112 7.8175L15.6108 7.81775C15.4225 7.92582 15.3112 7.98844 15.237 8.02187C15.199 8.03898 15.1656 8.05093 15.1328 8.05669C15.098 8.0628 15.0692 8.06103 15.0428 8.05726L15.0428 8.05729L15.0405 8.05691C14.8689 8.0283 14.75 7.88143 14.75 7.70852C14.75 7.6374 14.7672 7.55426 14.8129 7.49921C14.8234 7.4861 14.8363 7.47548 14.8433 7.46985C14.8534 7.46173 14.8655 7.45275 14.8788 7.44334C14.9056 7.42441 14.9407 7.40115 14.9813 7.37528C15.0626 7.32345 15.169 7.25917 15.2813 7.19452L15.6335 6.98872L15.6365 6.88003L15.6365 6.87958C15.6491 6.48359 15.9167 6.14039 16.2944 6.04341ZM16.6019 6.75489L16.6019 6.75492L16.5998 6.75349C16.5954 6.75046 16.5827 6.74379 16.5627 6.73649C16.5453 6.73009 16.5281 6.72536 16.5161 6.723C16.4546 6.71683 16.3977 6.75199 16.3658 6.81349C16.3335 6.87589 16.3367 6.94717 16.3798 6.99817L16.3802 6.99861C16.4149 7.04017 16.4564 7.0583 16.496 7.05957C16.5359 7.06085 16.5831 7.04516 16.6278 7.00201L16.6279 7.00193C16.6974 6.93508 16.6868 6.81058 16.6019 6.75489Z" fill="#BE2618" stroke="#BE2618" stroke-width="0.2"/>
</g>
<defs>
<clipPath id="clip0_40_103">
<rect width="18" height="18" fill="white" transform="translate(0 0.900024)"/>
</clipPath>
</defs>
</svg>
