<svg width="18" height="19" viewBox="0 0 18 19" fill="none" xmlns="http://www.w3.org/2000/svg">
<path d="M1.50049 17.0002H16.5005" stroke="#BE2618" stroke-width="1.5" stroke-miterlimit="10" stroke-linecap="round" stroke-linejoin="round"/>
<path d="M2.21338 17.0001L2.25088 7.97755C2.25088 7.52005 2.46838 7.08509 2.82838 6.80009L8.07838 2.71258C8.61838 2.29258 9.37588 2.29258 9.92338 2.71258L15.1734 6.79259C15.5409 7.07759 15.7509 7.51255 15.7509 7.97755V17.0001" stroke="#BE2618" stroke-width="1.5" stroke-miterlimit="10" stroke-linejoin="round"/>
<path d="M9.75049 13.2498H8.25049C7.62799 13.2498 7.12549 13.7523 7.12549 14.3748V16.9998H10.8755V14.3748C10.8755 13.7523 10.373 13.2498 9.75049 13.2498Z" stroke="#BE2618" stroke-width="1.5" stroke-miterlimit="10" stroke-linejoin="round"/>
<path d="M7.12549 10.8123H5.62549C5.21299 10.8123 4.87549 10.4748 4.87549 10.0623V8.93726C4.87549 8.52476 5.21299 8.18726 5.62549 8.18726H7.12549C7.53799 8.18726 7.87549 8.52476 7.87549 8.93726V10.0623C7.87549 10.4748 7.53799 10.8123 7.12549 10.8123Z" stroke="#BE2618" stroke-width="1.5" stroke-miterlimit="10" stroke-linejoin="round"/>
<path d="M12.375 10.8124H10.875C10.4625 10.8124 10.125 10.4749 10.125 10.0624V8.93738C10.125 8.52488 10.4625 8.18738 10.875 8.18738H12.375C12.7875 8.18738 13.125 8.52488 13.125 8.93738V10.0624C13.125 10.4749 12.7875 10.8124 12.375 10.8124Z" stroke="#BE2618" stroke-width="1.5" stroke-miterlimit="10" stroke-linejoin="round"/>
<path d="M14.2497 5.75024L14.2272 3.50024H10.9272" stroke="#BE2618" stroke-width="1.5" stroke-miterlimit="10" stroke-linecap="round" stroke-linejoin="round"/>
</svg>
