<svg width="18" height="19" viewBox="0 0 18 19" fill="none" xmlns="http://www.w3.org/2000/svg">
<path d="M9 7.268C8.55855 7.268 8.12702 7.3989 7.75997 7.64416C7.39292 7.88941 7.10684 8.23801 6.9379 8.64585C6.76897 9.0537 6.72476 9.50248 6.81089 9.93544C6.89701 10.3684 7.10959 10.7661 7.42174 11.0783C7.73389 11.3904 8.13159 11.603 8.56456 11.6891C8.99752 11.7752 9.4463 11.731 9.85415 11.5621C10.262 11.3932 10.6106 11.1071 10.8558 10.74C11.1011 10.373 11.232 9.94145 11.232 9.5C11.232 9.20689 11.1743 8.91665 11.0621 8.64585C10.9499 8.37505 10.7855 8.129 10.5783 7.92174C10.371 7.71448 10.1249 7.55007 9.85415 7.4379C9.58335 7.32573 9.29311 7.268 9 7.268ZM17.937 5.063C17.9323 4.36798 17.8043 3.67931 17.559 3.029C17.3784 2.55313 17.0989 2.12098 16.7389 1.76107C16.379 1.40115 15.9469 1.12165 15.471 0.941C14.8207 0.695717 14.132 0.567735 13.437 0.563C12.276 0.5 11.934 0.5 9 0.5C6.066 0.5 5.724 0.5 4.563 0.563C3.86798 0.567735 3.17931 0.695717 2.529 0.941C2.05313 1.12165 1.62098 1.40115 1.26107 1.76107C0.901149 2.12098 0.621646 2.55313 0.441 3.029C0.195717 3.67931 0.0677348 4.36798 0.0629999 5.063C-6.03497e-08 6.224 0 6.566 0 9.5C0 12.434 -6.03497e-08 12.776 0.0629999 13.937C0.0726875 14.6345 0.200497 15.3252 0.441 15.98C0.620845 16.4537 0.900116 16.8833 1.26 17.24C1.61837 17.6021 2.05145 17.8816 2.529 18.059C3.17931 18.3043 3.86798 18.4323 4.563 18.437C5.724 18.5 6.066 18.5 9 18.5C11.934 18.5 12.276 18.5 13.437 18.437C14.132 18.4323 14.8207 18.3043 15.471 18.059C15.9485 17.8816 16.3816 17.6021 16.74 17.24C17.0999 16.8833 17.3792 16.4537 17.559 15.98C17.804 15.3265 17.932 14.6349 17.937 13.937C18 12.776 18 12.434 18 9.5C18 6.566 18 6.224 17.937 5.063ZM15.651 12.263C15.6221 12.8184 15.5036 13.3655 15.3 13.883C15.1253 14.3147 14.8655 14.7069 14.5362 15.0362C14.2069 15.3655 13.8147 15.6253 13.383 15.8C12.8606 15.9922 12.3104 16.0986 11.754 16.115C11.043 16.115 10.854 16.115 9 16.115C7.146 16.115 6.957 16.115 6.246 16.115C5.68956 16.0986 5.13944 15.9922 4.617 15.8C4.17069 15.6341 3.76765 15.3696 3.438 15.026C3.1119 14.7031 2.86006 14.3131 2.7 13.883C2.507 13.3611 2.40355 12.8104 2.394 12.254C2.394 11.543 2.394 11.354 2.394 9.5C2.394 7.646 2.394 7.457 2.394 6.746C2.40355 6.18964 2.507 5.6389 2.7 5.117C2.86585 4.67069 3.13045 4.26765 3.474 3.938C3.7983 3.61366 4.18794 3.36208 4.617 3.2C5.13944 3.00777 5.68956 2.90139 6.246 2.885C6.957 2.885 7.146 2.885 9 2.885C10.854 2.885 11.043 2.885 11.754 2.885C12.3104 2.90139 12.8606 3.00777 13.383 3.2C13.8293 3.36585 14.2324 3.63045 14.562 3.974C14.8881 4.29687 15.1399 4.68692 15.3 5.117C15.4922 5.63944 15.5986 6.18956 15.615 6.746C15.615 7.457 15.615 7.646 15.615 9.5C15.615 11.354 15.678 11.543 15.651 12.254V12.263ZM14.211 5.567C14.1038 5.27629 13.9349 5.01228 13.7158 4.79319C13.4967 4.57411 13.2327 4.40516 12.942 4.298C12.5428 4.15963 12.1224 4.09261 11.7 4.1C10.998 4.1 10.8 4.1 9 4.1C7.2 4.1 7.002 4.1 6.3 4.1C5.87544 4.10415 5.45496 4.18337 5.058 4.334C4.77174 4.43629 4.51052 4.59834 4.29173 4.80938C4.07293 5.02042 3.90155 5.27561 3.789 5.558C3.6583 5.95883 3.59445 6.37844 3.6 6.8C3.6 7.502 3.6 7.7 3.6 9.5C3.6 11.3 3.6 11.498 3.6 12.2C3.60892 12.6241 3.68799 13.0437 3.834 13.442C3.94116 13.7327 4.11011 13.9967 4.32919 14.2158C4.54828 14.4349 4.81229 14.6038 5.103 14.711C5.487 14.8522 5.89109 14.9312 6.3 14.945C7.002 14.945 7.2 14.945 9 14.945C10.8 14.945 10.998 14.945 11.7 14.945C12.1246 14.9408 12.545 14.8616 12.942 14.711C13.2327 14.6038 13.4967 14.4349 13.7158 14.2158C13.9349 13.9967 14.1038 13.7327 14.211 13.442C14.3616 13.045 14.4408 12.6246 14.445 12.2C14.445 11.498 14.445 11.3 14.445 9.5C14.445 7.7 14.445 7.502 14.445 6.8C14.4453 6.37502 14.3659 5.95375 14.211 5.558V5.567ZM9 12.938C8.54894 12.938 8.10231 12.849 7.6857 12.6761C7.26908 12.5032 6.89067 12.2499 6.57214 11.9305C6.25361 11.6111 6.00122 11.232 5.82943 10.815C5.65764 10.3979 5.56982 9.95106 5.571 9.5C5.571 8.81964 5.77287 8.15459 6.15104 7.58902C6.52921 7.02345 7.06668 6.5828 7.69542 6.32285C8.32416 6.0629 9.01589 5.99535 9.68304 6.12873C10.3502 6.26212 10.9628 6.59045 11.4432 7.07217C11.9237 7.55388 12.2504 8.16731 12.382 8.83481C12.5137 9.50231 12.4443 10.1939 12.1827 10.8219C11.9211 11.45 11.4791 11.9863 10.9125 12.363C10.3459 12.7397 9.68035 12.9398 9 12.938ZM12.6 6.737C12.401 6.71594 12.2169 6.622 12.0831 6.47327C11.9493 6.32455 11.8753 6.13156 11.8753 5.9315C11.8753 5.73144 11.9493 5.53845 12.0831 5.38973C12.2169 5.241 12.401 5.14706 12.6 5.126C12.799 5.14706 12.9831 5.241 13.1169 5.38973C13.2507 5.53845 13.3247 5.73144 13.3247 5.9315C13.3247 6.13156 13.2507 6.32455 13.1169 6.47327C12.9831 6.622 12.799 6.71594 12.6 6.737Z" fill="#C1291B"/>
</svg>
