<svg width="18" height="18" viewBox="0 0 18 18" fill="none" xmlns="http://www.w3.org/2000/svg">
<path d="M9 6.768C8.55855 6.768 8.12702 6.8989 7.75997 7.14416C7.39292 7.38941 7.10684 7.73801 6.9379 8.14585C6.76897 8.5537 6.72476 9.00248 6.81089 9.43544C6.89701 9.86841 7.10959 10.2661 7.42174 10.5783C7.73389 10.8904 8.13159 11.103 8.56456 11.1891C8.99752 11.2752 9.4463 11.231 9.85415 11.0621C10.262 10.8932 10.6106 10.6071 10.8558 10.24C11.1011 9.87298 11.232 9.44145 11.232 9C11.232 8.70689 11.1743 8.41665 11.0621 8.14585C10.9499 7.87505 10.7855 7.629 10.5783 7.42174C10.371 7.21448 10.1249 7.05007 9.85415 6.9379C9.58335 6.82573 9.29311 6.768 9 6.768ZM17.937 4.563C17.9323 3.86798 17.8043 3.17931 17.559 2.529C17.3784 2.05313 17.0989 1.62098 16.7389 1.26107C16.379 0.901149 15.9469 0.621646 15.471 0.441C14.8207 0.195717 14.132 0.0677348 13.437 0.0629999C12.276 -6.03497e-08 11.934 0 9 0C6.066 0 5.724 -6.03497e-08 4.563 0.0629999C3.86798 0.0677348 3.17931 0.195717 2.529 0.441C2.05313 0.621646 1.62098 0.901149 1.26107 1.26107C0.901149 1.62098 0.621646 2.05313 0.441 2.529C0.195717 3.17931 0.0677348 3.86798 0.0629999 4.563C-6.03497e-08 5.724 0 6.066 0 9C0 11.934 -6.03497e-08 12.276 0.0629999 13.437C0.0726875 14.1345 0.200497 14.8252 0.441 15.48C0.620845 15.9537 0.900116 16.3833 1.26 16.74C1.61837 17.1021 2.05145 17.3816 2.529 17.559C3.17931 17.8043 3.86798 17.9323 4.563 17.937C5.724 18 6.066 18 9 18C11.934 18 12.276 18 13.437 17.937C14.132 17.9323 14.8207 17.8043 15.471 17.559C15.9485 17.3816 16.3816 17.1021 16.74 16.74C17.0999 16.3833 17.3792 15.9537 17.559 15.48C17.804 14.8265 17.932 14.1349 17.937 13.437C18 12.276 18 11.934 18 9C18 6.066 18 5.724 17.937 4.563ZM15.651 11.763C15.6221 12.3184 15.5036 12.8655 15.3 13.383C15.1253 13.8147 14.8655 14.2069 14.5362 14.5362C14.2069 14.8655 13.8147 15.1253 13.383 15.3C12.8606 15.4922 12.3104 15.5986 11.754 15.615C11.043 15.615 10.854 15.615 9 15.615C7.146 15.615 6.957 15.615 6.246 15.615C5.68956 15.5986 5.13944 15.4922 4.617 15.3C4.17069 15.1341 3.76765 14.8696 3.438 14.526C3.1119 14.2031 2.86006 13.8131 2.7 13.383C2.507 12.8611 2.40355 12.3104 2.394 11.754C2.394 11.043 2.394 10.854 2.394 9C2.394 7.146 2.394 6.957 2.394 6.246C2.40355 5.68964 2.507 5.1389 2.7 4.617C2.86585 4.17069 3.13045 3.76765 3.474 3.438C3.7983 3.11366 4.18794 2.86208 4.617 2.7C5.13944 2.50777 5.68956 2.40139 6.246 2.385C6.957 2.385 7.146 2.385 9 2.385C10.854 2.385 11.043 2.385 11.754 2.385C12.3104 2.40139 12.8606 2.50777 13.383 2.7C13.8293 2.86585 14.2324 3.13045 14.562 3.474C14.8881 3.79687 15.1399 4.18692 15.3 4.617C15.4922 5.13944 15.5986 5.68956 15.615 6.246C15.615 6.957 15.615 7.146 15.615 9C15.615 10.854 15.678 11.043 15.651 11.754V11.763ZM14.211 5.067C14.1038 4.77629 13.9349 4.51228 13.7158 4.29319C13.4967 4.07411 13.2327 3.90516 12.942 3.798C12.5428 3.65963 12.1224 3.59261 11.7 3.6C10.998 3.6 10.8 3.6 9 3.6C7.2 3.6 7.002 3.6 6.3 3.6C5.87544 3.60415 5.45496 3.68337 5.058 3.834C4.77174 3.93629 4.51052 4.09834 4.29173 4.30938C4.07293 4.52042 3.90155 4.77561 3.789 5.058C3.6583 5.45883 3.59445 5.87844 3.6 6.3C3.6 7.002 3.6 7.2 3.6 9C3.6 10.8 3.6 10.998 3.6 11.7C3.60892 12.1241 3.68799 12.5437 3.834 12.942C3.94116 13.2327 4.11011 13.4967 4.32919 13.7158C4.54828 13.9349 4.81229 14.1038 5.103 14.211C5.487 14.3522 5.89109 14.4312 6.3 14.445C7.002 14.445 7.2 14.445 9 14.445C10.8 14.445 10.998 14.445 11.7 14.445C12.1246 14.4408 12.545 14.3616 12.942 14.211C13.2327 14.1038 13.4967 13.9349 13.7158 13.7158C13.9349 13.4967 14.1038 13.2327 14.211 12.942C14.3616 12.545 14.4408 12.1246 14.445 11.7C14.445 10.998 14.445 10.8 14.445 9C14.445 7.2 14.445 7.002 14.445 6.3C14.4453 5.87502 14.3659 5.45375 14.211 5.058V5.067ZM9 12.438C8.54894 12.438 8.10231 12.349 7.6857 12.1761C7.26908 12.0032 6.89067 11.7499 6.57214 11.4305C6.25361 11.1111 6.00122 10.732 5.82943 10.315C5.65764 9.89792 5.56982 9.45106 5.571 9C5.571 8.31964 5.77287 7.65459 6.15104 7.08902C6.52921 6.52345 7.06668 6.0828 7.69542 5.82285C8.32416 5.5629 9.01589 5.49535 9.68304 5.62873C10.3502 5.76212 10.9628 6.09045 11.4432 6.57217C11.9237 7.05388 12.2504 7.66731 12.382 8.33481C12.5137 9.00231 12.4443 9.69386 12.1827 10.3219C11.9211 10.95 11.4791 11.4863 10.9125 11.863C10.3459 12.2397 9.68035 12.4398 9 12.438ZM12.6 6.237C12.401 6.21594 12.2169 6.122 12.0831 5.97327C11.9493 5.82455 11.8753 5.63156 11.8753 5.4315C11.8753 5.23144 11.9493 5.03845 12.0831 4.88973C12.2169 4.741 12.401 4.64706 12.6 4.626C12.799 4.64706 12.9831 4.741 13.1169 4.88973C13.2507 5.03845 13.3247 5.23144 13.3247 5.4315C13.3247 5.63156 13.2507 5.82455 13.1169 5.97327C12.9831 6.122 12.799 6.21594 12.6 6.237Z" fill="white"/>
</svg>
