<svg width="85" height="117" viewBox="0 0 85 117" fill="none" xmlns="http://www.w3.org/2000/svg">
<g opacity="0.08">
<path d="M8.21449 5.29115C9.67591 5.29115 10.8606 4.10669 10.8606 2.64558C10.8606 1.18446 9.67591 0 8.21449 0C6.75307 0 5.56836 1.18446 5.56836 2.64558C5.56836 4.10669 6.75307 5.29115 8.21449 5.29115Z" fill="#C1291B"/>
<path d="M26.7379 5.29115C28.1993 5.29115 29.3841 4.10669 29.3841 2.64558C29.3841 1.18446 28.1993 0 26.7379 0C25.2765 0 24.0918 1.18446 24.0918 2.64558C24.0918 4.10669 25.2765 5.29115 26.7379 5.29115Z" fill="#C1291B"/>
<path d="M45.2614 5.29115C46.7228 5.29115 47.9075 4.10669 47.9075 2.64558C47.9075 1.18446 46.7228 0 45.2614 0C43.7999 0 42.6152 1.18446 42.6152 2.64558C42.6152 4.10669 43.7999 5.29115 45.2614 5.29115Z" fill="#C1291B"/>
<path d="M63.7848 5.29115C65.2462 5.29115 66.4309 4.10669 66.4309 2.64558C66.4309 1.18446 65.2462 0 63.7848 0C62.3234 0 61.1387 1.18446 61.1387 2.64558C61.1387 4.10669 62.3234 5.29115 63.7848 5.29115Z" fill="#C1291B"/>
<path d="M82.3063 5.29115C83.7677 5.29115 84.9524 4.10669 84.9524 2.64558C84.9524 1.18446 83.7677 0 82.3063 0C80.8449 0 79.6602 1.18446 79.6602 2.64558C79.6602 4.10669 80.8449 5.29115 82.3063 5.29115Z" fill="#C1291B"/>
<path d="M8.21449 23.8098C9.67591 23.8098 10.8606 22.6254 10.8606 21.1644C10.8606 19.7034 9.67591 18.519 8.21449 18.519C6.75307 18.519 5.56836 19.7034 5.56836 21.1644C5.56836 22.6254 6.75307 23.8098 8.21449 23.8098Z" fill="#C1291B"/>
<path d="M26.7379 23.8098C28.1993 23.8098 29.3841 22.6254 29.3841 21.1644C29.3841 19.7034 28.1993 18.519 26.7379 18.519C25.2765 18.519 24.0918 19.7034 24.0918 21.1644C24.0918 22.6254 25.2765 23.8098 26.7379 23.8098Z" fill="#C1291B"/>
<path d="M45.2614 23.8098C46.7228 23.8098 47.9075 22.6254 47.9075 21.1644C47.9075 19.7034 46.7228 18.519 45.2614 18.519C43.7999 18.519 42.6152 19.7034 42.6152 21.1644C42.6152 22.6254 43.7999 23.8098 45.2614 23.8098Z" fill="#C1291B"/>
<path d="M63.7848 23.8098C65.2462 23.8098 66.4309 22.6254 66.4309 21.1644C66.4309 19.7034 65.2462 18.519 63.7848 18.519C62.3234 18.519 61.1387 19.7034 61.1387 21.1644C61.1387 22.6254 62.3234 23.8098 63.7848 23.8098Z" fill="#C1291B"/>
<path d="M82.3063 23.8098C83.7677 23.8098 84.9524 22.6254 84.9524 21.1644C84.9524 19.7034 83.7677 18.519 82.3063 18.519C80.8449 18.519 79.6602 19.7034 79.6602 21.1644C79.6602 22.6254 80.8449 23.8098 82.3063 23.8098Z" fill="#C1291B"/>
<path d="M8.21449 42.3292C9.67591 42.3292 10.8606 41.1447 10.8606 39.6834C10.8606 38.2222 9.67591 37.0377 8.21449 37.0377C6.75307 37.0377 5.56836 38.2222 5.56836 39.6834C5.56836 41.1447 6.75307 42.3292 8.21449 42.3292Z" fill="#C1291B"/>
<path d="M26.7379 42.3292C28.1993 42.3292 29.3841 41.1447 29.3841 39.6834C29.3841 38.2222 28.1993 37.0377 26.7379 37.0377C25.2765 37.0377 24.0918 38.2222 24.0918 39.6834C24.0918 41.1447 25.2765 42.3292 26.7379 42.3292Z" fill="#C1291B"/>
<path d="M45.2614 42.3292C46.7228 42.3292 47.9075 41.1447 47.9075 39.6834C47.9075 38.2222 46.7228 37.0377 45.2614 37.0377C43.7999 37.0377 42.6152 38.2222 42.6152 39.6834C42.6152 41.1447 43.7999 42.3292 45.2614 42.3292Z" fill="#C1291B"/>
<path d="M63.7848 42.3292C65.2462 42.3292 66.4309 41.1447 66.4309 39.6834C66.4309 38.2222 65.2462 37.0377 63.7848 37.0377C62.3234 37.0377 61.1387 38.2222 61.1387 39.6834C61.1387 41.1447 62.3234 42.3292 63.7848 42.3292Z" fill="#C1291B"/>
<path d="M82.3063 42.3292C83.7677 42.3292 84.9524 41.1447 84.9524 39.6834C84.9524 38.2222 83.7677 37.0377 82.3063 37.0377C80.8449 37.0377 79.6602 38.2222 79.6602 39.6834C79.6602 41.1447 80.8449 42.3292 82.3063 42.3292Z" fill="#C1291B"/>
<path d="M8.21449 60.8478C9.67591 60.8478 10.8606 59.6634 10.8606 58.2022C10.8606 56.7411 9.67591 55.5567 8.21449 55.5567C6.75307 55.5567 5.56836 56.7411 5.56836 58.2022C5.56836 59.6634 6.75307 60.8478 8.21449 60.8478Z" fill="#C1291B"/>
<path d="M26.7379 60.8478C28.1993 60.8478 29.3841 59.6634 29.3841 58.2022C29.3841 56.7411 28.1993 55.5567 26.7379 55.5567C25.2765 55.5567 24.0918 56.7411 24.0918 58.2022C24.0918 59.6634 25.2765 60.8478 26.7379 60.8478Z" fill="#C1291B"/>
<path d="M45.2614 60.8478C46.7228 60.8478 47.9075 59.6634 47.9075 58.2022C47.9075 56.7411 46.7228 55.5567 45.2614 55.5567C43.7999 55.5567 42.6152 56.7411 42.6152 58.2022C42.6152 59.6634 43.7999 60.8478 45.2614 60.8478Z" fill="#C1291B"/>
<path d="M63.7848 60.8478C65.2462 60.8478 66.4309 59.6634 66.4309 58.2022C66.4309 56.7411 65.2462 55.5567 63.7848 55.5567C62.3234 55.5567 61.1387 56.7411 61.1387 58.2022C61.1387 59.6634 62.3234 60.8478 63.7848 60.8478Z" fill="#C1291B"/>
<path d="M82.3063 60.8478C83.7677 60.8478 84.9524 59.6634 84.9524 58.2022C84.9524 56.7411 83.7677 55.5567 82.3063 55.5567C80.8449 55.5567 79.6602 56.7411 79.6602 58.2022C79.6602 59.6634 80.8449 60.8478 82.3063 60.8478Z" fill="#C1291B"/>
<path d="M8.21449 79.3669C9.67591 79.3669 10.8606 78.1823 10.8606 76.7211C10.8606 75.2599 9.67591 74.0753 8.21449 74.0753C6.75307 74.0753 5.56836 75.2599 5.56836 76.7211C5.56836 78.1823 6.75307 79.3669 8.21449 79.3669Z" fill="#C1291B"/>
<path d="M26.7379 79.3669C28.1993 79.3669 29.3841 78.1823 29.3841 76.7211C29.3841 75.2599 28.1993 74.0753 26.7379 74.0753C25.2765 74.0753 24.0918 75.2599 24.0918 76.7211C24.0918 78.1823 25.2765 79.3669 26.7379 79.3669Z" fill="#C1291B"/>
<path d="M45.2614 79.3669C46.7228 79.3669 47.9075 78.1823 47.9075 76.7211C47.9075 75.2599 46.7228 74.0753 45.2614 74.0753C43.7999 74.0753 42.6152 75.2599 42.6152 76.7211C42.6152 78.1823 43.7999 79.3669 45.2614 79.3669Z" fill="#C1291B"/>
<path d="M63.7848 79.3669C65.2462 79.3669 66.4309 78.1823 66.4309 76.7211C66.4309 75.2599 65.2462 74.0753 63.7848 74.0753C62.3234 74.0753 61.1387 75.2599 61.1387 76.7211C61.1387 78.1823 62.3234 79.3669 63.7848 79.3669Z" fill="#C1291B"/>
<path d="M82.3063 79.3669C83.7677 79.3669 84.9524 78.1823 84.9524 76.7211C84.9524 75.2599 83.7677 74.0753 82.3063 74.0753C80.8449 74.0753 79.6602 75.2599 79.6602 76.7211C79.6602 78.1823 80.8449 79.3669 82.3063 79.3669Z" fill="#C1291B"/>
<path d="M8.21449 97.8855C9.67591 97.8855 10.8606 96.7011 10.8606 95.2401C10.8606 93.7791 9.67591 92.5947 8.21449 92.5947C6.75307 92.5947 5.56836 93.7791 5.56836 95.2401C5.56836 96.7011 6.75307 97.8855 8.21449 97.8855Z" fill="#C1291B"/>
<path d="M26.7379 97.8855C28.1993 97.8855 29.3841 96.7011 29.3841 95.2401C29.3841 93.7791 28.1993 92.5947 26.7379 92.5947C25.2765 92.5947 24.0918 93.7791 24.0918 95.2401C24.0918 96.7011 25.2765 97.8855 26.7379 97.8855Z" fill="#C1291B"/>
<path d="M45.2614 97.8855C46.7228 97.8855 47.9075 96.7011 47.9075 95.2401C47.9075 93.7791 46.7228 92.5947 45.2614 92.5947C43.7999 92.5947 42.6152 93.7791 42.6152 95.2401C42.6152 96.7011 43.7999 97.8855 45.2614 97.8855Z" fill="#C1291B"/>
<path d="M63.7848 97.8855C65.2462 97.8855 66.4309 96.7011 66.4309 95.2401C66.4309 93.7791 65.2462 92.5947 63.7848 92.5947C62.3234 92.5947 61.1387 93.7791 61.1387 95.2401C61.1387 96.7011 62.3234 97.8855 63.7848 97.8855Z" fill="#C1291B"/>
<path d="M82.3063 97.8855C83.7677 97.8855 84.9524 96.7011 84.9524 95.2401C84.9524 93.7791 83.7677 92.5947 82.3063 92.5947C80.8449 92.5947 79.6602 93.7791 79.6602 95.2401C79.6602 96.7011 80.8449 97.8855 82.3063 97.8855Z" fill="#C1291B"/>
<path d="M8.21449 116.405C9.67591 116.405 10.8606 115.22 10.8606 113.759C10.8606 112.298 9.67591 111.113 8.21449 111.113C6.75307 111.113 5.56836 112.298 5.56836 113.759C5.56836 115.22 6.75307 116.405 8.21449 116.405Z" fill="#C1291B"/>
<path d="M26.7379 116.405C28.1993 116.405 29.3841 115.22 29.3841 113.759C29.3841 112.298 28.1993 111.113 26.7379 111.113C25.2765 111.113 24.0918 112.298 24.0918 113.759C24.0918 115.22 25.2765 116.405 26.7379 116.405Z" fill="#C1291B"/>
<path d="M45.2614 116.405C46.7228 116.405 47.9075 115.22 47.9075 113.759C47.9075 112.298 46.7228 111.113 45.2614 111.113C43.7999 111.113 42.6152 112.298 42.6152 113.759C42.6152 115.22 43.7999 116.405 45.2614 116.405Z" fill="#C1291B"/>
<path d="M63.7848 116.405C65.2462 116.405 66.4309 115.22 66.4309 113.759C66.4309 112.298 65.2462 111.113 63.7848 111.113C62.3234 111.113 61.1387 112.298 61.1387 113.759C61.1387 115.22 62.3234 116.405 63.7848 116.405Z" fill="#C1291B"/>
<path d="M82.3063 116.405C83.7677 116.405 84.9524 115.22 84.9524 113.759C84.9524 112.298 83.7677 111.113 82.3063 111.113C80.8449 111.113 79.6602 112.298 79.6602 113.759C79.6602 115.22 80.8449 116.405 82.3063 116.405Z" fill="#C1291B"/>
</g>
</svg>
