<svg width="269" height="41" viewBox="0 0 269 41" fill="none" xmlns="http://www.w3.org/2000/svg">
<g clip-path="url(#clip0_9_3425)">
<path d="M53.5829 20.8314C52.8401 21.4298 52.0235 21.9279 51.1536 22.3133C50.3161 22.6444 49.4222 22.8053 48.5231 22.7867C47.7116 22.8038 46.9082 22.6201 46.1828 22.2517C45.5444 21.9354 45.0074 21.443 44.6335 20.8314C44.2727 20.2396 44.0829 19.5573 44.0859 18.8619C44.0651 17.9584 44.3866 17.081 44.9846 16.4095C45.6455 15.7018 46.5133 15.2272 47.4606 15.0554C47.6759 15.0033 48.2236 14.8897 49.0942 14.7098C49.9648 14.5299 50.709 14.3642 51.3315 14.2364C51.954 14.1085 52.6234 13.905 53.3535 13.6919C53.3708 12.9747 53.1787 12.2683 52.8012 11.6609C52.4736 11.2253 51.8043 11.0122 50.7792 11.0122C50.0974 10.9708 49.4159 11.0993 48.7946 11.3863C48.328 11.653 47.9364 12.036 47.6572 12.4988C47.4496 12.8372 47.2246 13.1643 46.9832 13.4789C46.8665 13.575 46.7314 13.6456 46.5864 13.6864C46.4414 13.7271 46.2897 13.7371 46.1407 13.7156C45.7697 13.7241 45.4096 13.5886 45.1344 13.3368C44.9988 13.2205 44.8904 13.0752 44.8168 12.9116C44.7431 12.7479 44.7061 12.5698 44.7084 12.39C44.7138 11.7231 44.9414 11.0776 45.3544 10.5577C45.887 9.90801 46.5844 9.41705 47.3717 9.13741C48.4607 8.72746 49.6178 8.53453 50.7792 8.56928C51.9979 8.52042 53.2148 8.7068 54.3646 9.11848C55.1769 9.42751 55.8373 10.0462 56.204 10.8418C56.6041 11.8337 56.7892 12.9008 56.747 13.9712C56.747 14.7903 56.747 15.4863 56.747 16.0591C56.747 16.632 56.747 17.2711 56.747 17.9529C56.755 18.652 56.8654 19.346 57.0746 20.0124C57.2317 20.458 57.3384 20.9202 57.3929 21.3901C57.3873 21.5804 57.3399 21.7671 57.2541 21.9367C57.1682 22.1062 57.0462 22.2542 56.8968 22.3701C56.5864 22.6541 56.1826 22.811 55.7641 22.8104C55.3608 22.7882 54.9824 22.6062 54.7109 22.3038C54.2837 21.8642 53.9141 21.3709 53.611 20.8361L53.5829 20.8314ZM53.3582 15.7751C52.634 16.023 51.8944 16.2223 51.1443 16.3716C50.1754 16.5799 49.5061 16.7361 49.1363 16.845C48.7416 16.9526 48.3766 17.1502 48.0691 17.4226C47.9001 17.569 47.7665 17.7527 47.6789 17.9596C47.5912 18.1664 47.5518 18.3909 47.5636 18.6157C47.561 18.8725 47.6131 19.1267 47.7165 19.3612C47.8199 19.5957 47.9721 19.8049 48.1627 19.9745C48.5907 20.3549 49.1475 20.5534 49.7167 20.5284C50.3772 20.5284 51.0278 20.3659 51.6123 20.055C52.1411 19.8005 52.5851 19.3958 52.8902 18.8903C53.2588 18.0721 53.4196 17.1739 53.3582 16.2769V15.7751ZM63.108 23.2507L63.4262 22.4695L59.1716 11.623C58.961 11.1976 58.8278 10.7373 58.7784 10.2642C58.7769 9.96882 58.8563 9.67878 59.0077 9.42621C59.1609 9.17343 59.3746 8.96374 59.629 8.81646C59.8834 8.66918 60.1703 8.58906 60.4634 8.58349C60.6742 8.56778 60.8858 8.60245 61.0809 8.68469C61.276 8.76693 61.4493 8.89444 61.5868 9.05693C61.8904 9.47427 62.1157 9.94446 62.2514 10.4441L65.1815 19.056L67.9524 11.0454C68.1214 10.5254 68.3215 10.0163 68.5515 9.5209C68.6693 9.22656 68.8633 8.96978 69.1132 8.7776C69.3705 8.63436 69.6624 8.5671 69.9557 8.58349C70.2237 8.58409 70.4867 8.65675 70.7179 8.79401C70.949 8.93128 71.1399 9.12822 71.271 9.36467C71.4002 9.59571 71.4679 9.85672 71.4675 10.1222L71.3037 10.8134C71.225 11.1214 71.1296 11.4249 71.0182 11.7224L66.5154 23.6721C66.2165 24.5312 65.8356 25.3589 65.3781 26.1434C65.0184 26.7305 64.507 27.2069 63.899 27.5211C63.1205 27.8744 62.2705 28.0366 61.4183 27.9946C60.6444 28.0335 59.8704 27.921 59.1388 27.6632C58.9005 27.5684 58.6982 27.3994 58.5611 27.1807C58.4239 26.962 58.3591 26.7049 58.3758 26.4464C58.3634 26.2711 58.3896 26.0951 58.4528 25.9313C58.5159 25.7675 58.6144 25.62 58.7409 25.4995C59.0461 25.2646 59.4255 25.1501 59.8081 25.1776C59.9929 25.1773 60.177 25.2012 60.3557 25.2486C60.5425 25.2969 60.7341 25.3239 60.9268 25.3291C61.2484 25.3436 61.569 25.282 61.8629 25.1492C62.1198 25.0035 62.332 24.7888 62.4761 24.529C62.7181 24.1121 62.9278 23.6768 63.1033 23.227L63.108 23.2507ZM82.9632 20.8314V20.3816C82.5822 20.8779 82.1438 21.3262 81.6573 21.7167C81.2111 22.072 80.7053 22.343 80.1641 22.5169C79.5577 22.7041 78.9259 22.7936 78.2919 22.782C77.5178 22.7898 76.7533 22.6079 76.0639 22.2517C75.4306 21.9314 74.8976 21.4398 74.524 20.8314C74.0407 19.8367 73.8183 18.7329 73.8781 17.6262V10.6761C73.8355 10.1115 74.0023 9.55113 74.3461 9.10427C74.5043 8.93191 74.6975 8.79615 74.9124 8.70627C75.1273 8.61638 75.3588 8.5745 75.5912 8.58349C75.8275 8.57417 76.063 8.61626 76.2818 8.70692C76.5006 8.79758 76.6977 8.9347 76.8596 9.10901C77.2052 9.55312 77.3723 10.1128 77.3277 10.6761V16.2769C77.314 16.9628 77.3815 17.6478 77.5289 18.3174C77.6339 18.8147 77.8871 19.2675 78.2544 19.6147C78.6568 19.9442 79.1649 20.1127 79.682 20.0881C80.2694 20.0884 80.8428 19.9067 81.3249 19.5673C81.8287 19.2313 82.2228 18.7519 82.4576 18.1896C82.6511 17.6972 82.7463 16.613 82.7432 14.9371V10.6761C82.6985 10.1128 82.8657 9.55312 83.2112 9.10901C83.3708 8.93555 83.5655 8.79885 83.7819 8.70818C83.9983 8.6175 84.2315 8.57498 84.4656 8.58349C84.6981 8.57387 84.9298 8.61546 85.1448 8.70538C85.3598 8.7953 85.5528 8.93141 85.7107 9.10427C86.0565 9.55006 86.2236 10.1113 86.1787 10.6761V20.8314C86.2131 21.3732 86.0462 21.9084 85.7107 22.3322C85.5593 22.493 85.3769 22.6206 85.1747 22.707C84.9725 22.7935 84.7549 22.8369 84.5354 22.8347C84.3159 22.8325 84.0993 22.7846 83.8988 22.6941C83.6984 22.6036 83.5185 22.4724 83.3704 22.3085C83.0383 21.9013 82.8711 21.382 82.9023 20.8551L82.9632 20.8314ZM92.7925 10.5104V10.9365C93.319 10.199 93.9998 9.58791 94.7864 9.14688C95.5604 8.75648 96.4164 8.56155 97.2812 8.57875C98.1338 8.56271 98.9759 8.77156 99.7245 9.18476C100.427 9.56622 100.992 10.1628 101.339 10.8891C101.574 11.3204 101.732 11.7899 101.807 12.2763C101.88 12.9048 101.913 13.5374 101.906 14.1701V20.6846C101.95 21.2538 101.783 21.8192 101.438 22.2707C101.28 22.4529 101.084 22.5963 100.863 22.6899C100.642 22.7834 100.403 22.8246 100.164 22.8104C99.9283 22.816 99.6939 22.7688 99.4779 22.6723C99.2619 22.5757 99.0696 22.4321 98.9147 22.2517C98.5738 21.8016 98.4073 21.2408 98.4467 20.6752V14.8518C98.4947 13.9434 98.3345 13.0361 97.9786 12.2006C97.6603 11.5946 97.0425 11.2868 96.1063 11.2868C95.5003 11.2827 94.9092 11.477 94.4213 11.8408C93.903 12.2261 93.5141 12.7633 93.3073 13.3794C93.0942 14.3373 93.0091 15.3198 93.0546 16.3006V20.6846C93.1034 21.2557 92.9361 21.8242 92.5865 22.2754C92.4209 22.4585 92.2167 22.6017 91.9891 22.6943C91.7614 22.7868 91.5161 22.8265 91.2713 22.8104C91.0372 22.8159 90.8049 22.7686 90.5912 22.6719C90.3774 22.5753 90.1876 22.4318 90.0356 22.2517C89.6947 21.8016 89.5282 21.2408 89.5675 20.6752V10.5719C89.5268 10.0362 89.6817 9.50392 90.0028 9.07587C90.1525 8.9148 90.3352 8.78893 90.5382 8.70712C90.7412 8.62532 90.9595 8.58958 91.1776 8.60243C91.4679 8.60037 91.7536 8.67547 92.0061 8.82021C92.2521 8.97884 92.4498 9.20337 92.5771 9.46882C92.7332 9.79945 92.8087 10.1631 92.7971 10.5293L92.7925 10.5104ZM105.514 8.89122H105.894V6.78915C105.894 6.22575 105.894 5.78545 105.94 5.46351C105.96 5.17408 106.043 4.89271 106.184 4.63972C106.325 4.39628 106.527 4.19404 106.769 4.05266C107.028 3.90197 107.322 3.82507 107.621 3.83014C108.066 3.83382 108.492 4.01204 108.81 4.32725C109.049 4.53975 109.214 4.82574 109.278 5.14157C109.353 5.59344 109.386 6.05161 109.376 6.50982V8.87702H110.644C111.047 8.84995 111.446 8.97476 111.763 9.22737C111.889 9.33997 111.99 9.47938 112.057 9.63567C112.124 9.79197 112.156 9.9613 112.152 10.1316C112.167 10.3333 112.122 10.535 112.024 10.7111C111.925 10.8872 111.778 11.0299 111.599 11.1211C111.099 11.332 110.558 11.4274 110.017 11.4005H109.376V17.8487C109.367 18.2709 109.386 18.6931 109.432 19.1128C109.456 19.3781 109.561 19.6294 109.732 19.8324C109.84 19.9324 109.969 20.0084 110.108 20.0557C110.247 20.1029 110.395 20.1204 110.541 20.107C110.819 20.0992 111.095 20.0627 111.365 19.9982C111.631 19.9343 111.902 19.8978 112.175 19.8893C112.317 19.891 112.457 19.9221 112.587 19.9808C112.716 20.0394 112.833 20.1243 112.928 20.2301C113.04 20.3383 113.127 20.4686 113.186 20.6128C113.245 20.7571 113.274 20.9121 113.27 21.0681C113.265 21.3549 113.172 21.6329 113.004 21.8643C112.837 22.0956 112.603 22.269 112.334 22.3606C111.504 22.712 110.607 22.8737 109.708 22.8341C108.853 22.8771 108.003 22.6753 107.256 22.2517C106.711 21.9017 106.32 21.3547 106.16 20.7225C105.964 19.8709 105.876 18.9975 105.898 18.1233V11.4194H105.43C105.018 11.4494 104.61 11.3208 104.288 11.0596C104.161 10.9461 104.06 10.8059 103.992 10.649C103.924 10.492 103.891 10.3219 103.895 10.1506C103.891 9.97811 103.926 9.80705 103.998 9.65038C104.069 9.4937 104.175 9.35552 104.307 9.2463C104.653 8.99121 105.077 8.86722 105.505 8.89596L105.514 8.89122ZM123.263 20.8314C122.52 21.4298 121.704 21.9279 120.834 22.3133C119.996 22.6444 119.103 22.8053 118.204 22.7867C117.392 22.8038 116.589 22.6201 115.863 22.2517C115.225 21.9354 114.688 21.443 114.314 20.8314C113.953 20.2396 113.763 19.5573 113.766 18.8619C113.748 17.9585 114.073 17.0823 114.674 16.4142C115.333 15.7066 116.2 15.232 117.146 15.0602C117.361 15.0081 117.909 14.8945 118.779 14.7146C119.65 14.5346 120.394 14.3689 121.017 14.2411C121.639 14.1133 122.308 13.9097 123.039 13.6967C123.056 12.9794 122.864 12.273 122.486 11.6656C122.159 11.23 121.489 11.017 120.464 11.017C119.784 10.975 119.104 11.1035 118.484 11.391C118.015 11.6561 117.622 12.0393 117.342 12.5036C117.135 12.8419 116.91 13.1691 116.668 13.4836C116.552 13.5797 116.417 13.6504 116.272 13.6911C116.127 13.7319 115.975 13.7418 115.826 13.7203C115.455 13.7289 115.095 13.5933 114.819 13.3416C114.684 13.2252 114.575 13.08 114.502 12.9163C114.428 12.7526 114.391 12.5745 114.394 12.3947C114.407 11.7409 114.634 11.11 115.039 10.6003C115.572 9.95062 116.269 9.45966 117.057 9.18002C118.146 8.77007 119.303 8.57714 120.464 8.61189C121.675 8.54659 122.887 8.71366 124.036 9.10427C124.859 9.40816 125.531 10.0271 125.908 10.8276C126.304 11.8205 126.487 12.8871 126.446 13.957C126.446 14.7761 126.446 15.4721 126.446 16.0449C126.446 16.6178 126.446 17.2569 126.446 17.9387C126.452 18.6376 126.561 19.3316 126.769 19.9982C126.926 20.4438 127.033 20.906 127.087 21.3759C127.082 21.5662 127.034 21.7529 126.949 21.9224C126.863 22.092 126.741 22.24 126.591 22.3559C126.281 22.6399 125.877 22.7968 125.459 22.7962C125.055 22.774 124.677 22.592 124.405 22.2896C123.978 21.85 123.609 21.3567 123.305 20.8219L123.263 20.8314ZM123.034 15.7703C122.31 16.0195 121.57 16.2188 120.82 16.3669C119.851 16.5752 119.182 16.7314 118.812 16.8403C118.417 16.9479 118.052 17.1455 117.745 17.4179C117.576 17.5642 117.442 17.748 117.355 17.9548C117.267 18.1617 117.228 18.3862 117.239 18.611C117.237 18.8677 117.289 19.122 117.392 19.3565C117.496 19.591 117.648 19.8002 117.838 19.9697C118.266 20.3502 118.823 20.5486 119.392 20.5237C120.045 20.521 120.688 20.3586 121.265 20.0502C121.795 19.7932 122.239 19.3851 122.542 18.8761C122.911 18.0579 123.072 17.1597 123.011 16.2627V15.7751L123.034 15.7703ZM141.448 15.9502V20.5994C141.495 21.1953 141.318 21.7873 140.951 22.2565C140.786 22.438 140.583 22.5811 140.358 22.6759C140.133 22.7707 139.889 22.815 139.645 22.8057C139.406 22.8134 139.168 22.7678 138.948 22.672C138.728 22.5763 138.531 22.4328 138.372 22.2517C138.011 21.7802 137.836 21.1896 137.881 20.5947V15.0318C137.891 14.3472 137.862 13.6627 137.792 12.9818C137.761 12.5435 137.597 12.1254 137.324 11.7839C137.165 11.616 136.972 11.4863 136.757 11.4043C136.542 11.3224 136.312 11.2903 136.084 11.3105C134.951 11.3105 134.205 11.7035 133.846 12.4894C133.436 13.566 133.253 14.7173 133.308 15.8697V20.6042C133.357 21.1943 133.191 21.7822 132.84 22.2565C132.676 22.4433 132.473 22.5902 132.245 22.6861C132.017 22.782 131.771 22.8245 131.525 22.8104C131.282 22.8184 131.041 22.7725 130.817 22.676C130.594 22.5794 130.395 22.4346 130.233 22.2517C129.868 21.7832 129.69 21.194 129.732 20.5994V10.5956C129.699 10.054 129.866 9.51944 130.2 9.0948C130.348 8.92666 130.531 8.79364 130.736 8.70526C130.94 8.61687 131.162 8.57529 131.384 8.58349C131.604 8.577 131.822 8.61562 132.027 8.69699C132.231 8.77837 132.417 8.90081 132.573 9.05693C132.736 9.23441 132.861 9.44339 132.941 9.67124C133.022 9.89909 133.056 10.1411 133.041 10.3826V10.714C133.564 10.0494 134.219 9.50412 134.965 9.11374C135.677 8.76649 136.459 8.59144 137.249 8.60243C138.03 8.57935 138.803 8.75863 139.496 9.12321C140.145 9.50052 140.679 10.0508 141.04 10.714C141.549 10.0574 142.186 9.51418 142.913 9.11848C143.591 8.77647 144.34 8.60282 145.098 8.61189C145.947 8.58744 146.788 8.78129 147.542 9.17529C148.21 9.53369 148.746 10.0996 149.072 10.7897C149.432 11.7416 149.592 12.7592 149.54 13.7771V20.6042C149.585 21.199 149.41 21.7896 149.049 22.2612C148.884 22.4432 148.681 22.5867 148.456 22.6815C148.23 22.7764 147.987 22.8204 147.743 22.8104C147.501 22.8183 147.26 22.7724 147.038 22.6759C146.816 22.5793 146.617 22.4345 146.456 22.2517C146.09 21.7839 145.909 21.1946 145.95 20.5994V14.7193C145.96 14.1166 145.929 13.5139 145.857 12.9155C145.804 12.4918 145.626 12.094 145.346 11.7745C145.181 11.6088 144.982 11.4809 144.763 11.3992C144.544 11.3176 144.311 11.2841 144.078 11.301C143.615 11.301 143.163 11.443 142.781 11.7082C142.378 11.9849 142.055 12.3657 141.845 12.8113C141.588 13.3984 141.466 14.4447 141.466 15.9408L141.448 15.9502ZM156.36 10.5672V20.6846C156.398 21.2519 156.221 21.8124 155.864 22.2517C155.706 22.428 155.512 22.5675 155.295 22.6607C155.079 22.7539 154.845 22.7985 154.609 22.7915C154.377 22.7999 154.145 22.7559 153.931 22.6625C153.718 22.5692 153.527 22.4288 153.374 22.2517C153.036 21.7998 152.87 21.2404 152.906 20.6752V10.6761C152.863 10.113 153.03 9.55399 153.374 9.10901C153.53 8.93602 153.721 8.79942 153.934 8.70868C154.148 8.61793 154.378 8.57521 154.609 8.58349C154.843 8.5759 155.076 8.61885 155.293 8.70947C155.509 8.80009 155.704 8.93629 155.864 9.10901C156.214 9.51112 156.392 10.0371 156.36 10.5719V10.5672ZM154.647 6.95012C154.195 6.96248 153.755 6.80184 153.416 6.50035C153.241 6.34227 153.104 6.14667 153.014 5.92792C152.924 5.70917 152.884 5.47283 152.896 5.23626C152.891 5.00519 152.935 4.77565 153.026 4.56379C153.118 4.35193 153.254 4.16291 153.425 4.01005C153.758 3.70098 154.195 3.53171 154.647 3.5366C155.084 3.53063 155.508 3.68542 155.84 3.97217C156.017 4.12921 156.156 4.32532 156.246 4.54533C156.337 4.76534 156.375 5.00336 156.36 5.24099C156.374 5.47488 156.336 5.70897 156.251 5.92662C156.165 6.14428 156.033 6.34016 155.864 6.50035C155.536 6.8081 155.104 6.97745 154.656 6.97379L154.647 6.95012ZM169.587 16.5704H162.819C162.81 17.2985 162.971 18.0186 163.287 18.6725C163.55 19.2286 163.964 19.6969 164.482 20.0216C165 20.3464 165.599 20.5141 166.208 20.5047C166.59 20.5095 166.972 20.4601 167.341 20.358C167.694 20.2529 168.028 20.0932 168.333 19.8845C168.646 19.6831 168.943 19.4584 169.222 19.2122C169.494 18.9708 169.845 18.6441 170.275 18.237C170.492 18.0687 170.761 17.9862 171.034 18.005C171.348 17.9911 171.657 18.0957 171.9 18.2985C172.011 18.4051 172.097 18.5349 172.154 18.6787C172.21 18.8226 172.236 18.9772 172.227 19.1318C172.2 19.5284 172.072 19.9114 171.858 20.2443C171.565 20.7159 171.189 21.1285 170.748 21.4611C170.181 21.8812 169.548 22.2013 168.876 22.408C168.043 22.6765 167.171 22.806 166.297 22.7915C164.075 22.7915 162.346 22.1507 161.111 20.8693C159.875 19.5878 159.259 17.8519 159.262 15.6614C159.257 14.6821 159.415 13.709 159.73 12.7829C160.012 11.9385 160.464 11.1629 161.059 10.5057C161.661 9.86376 162.399 9.3684 163.217 9.05693C164.124 8.70634 165.088 8.53284 166.058 8.54561C167.272 8.51274 168.472 8.81208 169.531 9.41201C170.45 9.9368 171.205 10.7129 171.708 11.6514C172.175 12.507 172.425 13.4671 172.433 14.4447C172.433 15.3253 172.18 15.8934 171.684 16.1538C171.022 16.4477 170.301 16.5822 169.578 16.5468L169.587 16.5704ZM162.819 14.582H169.091C169.096 13.6059 168.765 12.6585 168.155 11.9023C167.875 11.6049 167.536 11.3713 167.16 11.217C166.784 11.0627 166.38 10.9913 165.974 11.0075C165.573 10.9885 165.172 11.0583 164.8 11.2121C164.428 11.3658 164.094 11.5997 163.821 11.8976C163.204 12.6516 162.849 13.5897 162.81 14.5678L162.819 14.582ZM178.495 10.5293V10.9554C179.02 10.2172 179.701 9.60595 180.489 9.16582C181.263 8.77542 182.119 8.58049 182.983 8.59769C183.836 8.5823 184.678 8.79112 185.427 9.2037C186.124 9.57998 186.686 10.17 187.032 10.8891C187.269 11.3196 187.427 11.7894 187.5 12.2763C187.571 12.905 187.604 13.5374 187.598 14.1701V20.6846C187.643 21.2538 187.476 21.8192 187.13 22.2707C186.977 22.4478 186.786 22.5881 186.573 22.6815C186.359 22.7748 186.127 22.8189 185.895 22.8104C185.653 22.821 185.412 22.7762 185.19 22.6795C184.968 22.5827 184.771 22.4365 184.612 22.2517C184.271 21.8016 184.105 21.2408 184.144 20.6752V14.8518C184.192 13.9434 184.032 13.0361 183.676 12.2006C183.358 11.5946 182.74 11.2868 181.804 11.2868C181.184 11.272 180.577 11.4651 180.077 11.836C179.561 12.2232 179.174 12.7598 178.967 13.3747C178.752 14.3322 178.665 15.3148 178.71 16.2958V20.6799C178.761 21.2512 178.594 21.8206 178.242 22.2707C178.082 22.4462 177.887 22.5849 177.67 22.6772C177.453 22.7695 177.218 22.8133 176.983 22.8057C176.747 22.8138 176.512 22.7683 176.296 22.6724C176.079 22.5766 175.887 22.4328 175.733 22.2517C175.39 21.8026 175.223 21.2411 175.265 20.6752V10.5719C175.224 10.0362 175.379 9.50392 175.7 9.07587C175.85 8.9148 176.033 8.78893 176.236 8.70712C176.439 8.62532 176.657 8.58958 176.875 8.60243C177.165 8.60037 177.451 8.67547 177.704 8.82021C177.95 8.97884 178.147 9.20337 178.275 9.46882C178.428 9.80036 178.503 10.1634 178.495 10.5293ZM191.217 8.91016H191.596V6.78915C191.596 6.22575 191.596 5.78545 191.643 5.46351C191.668 5.17259 191.758 4.89114 191.905 4.63972C192.046 4.39628 192.248 4.19404 192.49 4.05266C192.739 3.90766 193.021 3.83096 193.309 3.83014C193.754 3.83382 194.18 4.01204 194.498 4.32725C194.737 4.53975 194.902 4.82574 194.966 5.14157C195.042 5.59344 195.074 6.05161 195.064 6.50982V8.87702H196.328C196.732 8.84921 197.132 8.97404 197.451 9.22737C197.578 9.33997 197.678 9.47938 197.745 9.63567C197.812 9.79197 197.845 9.9613 197.84 10.1316C197.855 10.3333 197.81 10.535 197.712 10.7111C197.614 10.8872 197.466 11.0299 197.287 11.1211C196.787 11.332 196.247 11.4274 195.705 11.4005H195.064V17.8487C195.055 18.2709 195.074 18.6931 195.12 19.1128C195.145 19.3781 195.249 19.6294 195.42 19.8324C195.528 19.9326 195.657 20.0088 195.796 20.0561C195.935 20.1034 196.083 20.1207 196.23 20.107C196.507 20.0989 196.783 20.0624 197.053 19.9982C197.317 19.9347 197.587 19.8982 197.858 19.8893C198.001 19.8903 198.142 19.9212 198.273 19.9798C198.403 20.0385 198.52 20.1237 198.617 20.2301C198.722 20.3411 198.804 20.4727 198.857 20.6168C198.91 20.7609 198.933 20.9145 198.926 21.0681C198.92 21.3549 198.827 21.6329 198.66 21.8643C198.492 22.0956 198.258 22.269 197.989 22.3606C197.161 22.7122 196.266 22.8739 195.368 22.8341C194.527 22.8706 193.692 22.6689 192.958 22.2517C192.411 21.9033 192.017 21.3559 191.858 20.7225C191.662 19.8709 191.574 18.9975 191.596 18.1233V11.4194H191.128C190.716 11.4494 190.308 11.3208 189.986 11.0596C189.859 10.9461 189.758 10.8059 189.69 10.649C189.622 10.492 189.589 10.3219 189.592 10.1506C189.589 9.97811 189.624 9.80705 189.695 9.65038C189.767 9.4937 189.872 9.35552 190.004 9.2463C190.351 8.99121 190.775 8.86722 191.203 8.89596L191.217 8.91016ZM213.164 15.7135C213.177 16.695 213.019 17.671 212.696 18.5968C212.39 19.4437 211.911 20.2163 211.292 20.8645C210.677 21.5002 209.935 21.9957 209.115 22.318C208.205 22.6668 207.238 22.8387 206.265 22.8246C205.305 22.8372 204.352 22.6636 203.456 22.3133C202.629 21.985 201.88 21.482 201.261 20.8379C200.641 20.1937 200.164 19.4232 199.862 18.5778C199.54 17.6535 199.382 16.6791 199.394 15.6993C199.379 14.7069 199.537 13.7196 199.862 12.7829C200.166 11.9378 200.645 11.1679 201.266 10.5246C201.881 9.89712 202.624 9.41248 203.442 9.10427C205.275 8.42582 207.287 8.42582 209.12 9.10427C209.947 9.42623 210.694 9.92563 211.312 10.5681C211.929 11.2105 212.401 11.9807 212.696 12.8255C213.018 13.7513 213.177 14.7273 213.164 15.7088V15.7135ZM209.691 15.7135C209.753 14.5341 209.424 13.3675 208.755 12.3994C208.461 12.0151 208.081 11.7069 207.647 11.5003C207.212 11.2937 206.735 11.1945 206.255 11.2111C205.619 11.1992 204.995 11.386 204.467 11.7461C203.935 12.1214 203.523 12.6465 203.283 13.2564C202.988 14.029 202.845 14.8523 202.862 15.6804C202.847 16.4982 202.987 17.3114 203.274 18.076C203.51 18.7032 203.92 19.2486 204.453 19.6478C204.985 20.0133 205.617 20.202 206.26 20.1875C206.739 20.206 207.215 20.1086 207.649 19.9036C208.082 19.6986 208.462 19.3918 208.755 19.0087C209.427 18.0423 209.757 16.8744 209.691 15.6946V15.7135Z" fill="#1F140F"/>
<path d="M237.18 16.5704H230.417C230.408 17.2985 230.568 18.0186 230.885 18.6725C231.147 19.2279 231.561 19.6956 232.078 20.0203C232.595 20.3451 233.193 20.5132 233.801 20.5047C234.194 20.513 234.587 20.4635 234.966 20.358C235.321 20.2529 235.657 20.0932 235.963 19.8845C236.27 19.6815 236.563 19.4569 236.839 19.2122C237.115 18.9708 237.461 18.6441 237.897 18.2369C238.111 18.069 238.379 17.9864 238.65 18.005C238.965 17.9911 239.273 18.0957 239.516 18.2985C239.627 18.4051 239.714 18.5349 239.77 18.6787C239.827 18.8226 239.852 18.9771 239.844 19.1317C239.818 19.5281 239.692 19.9112 239.479 20.2443C239.185 20.716 238.807 21.1285 238.365 21.4611C237.798 21.8812 237.165 22.2013 236.492 22.408C235.659 22.6765 234.788 22.806 233.913 22.7914C231.692 22.7914 229.964 22.1507 228.732 20.8693C227.499 19.5878 226.875 17.8519 226.86 15.6614C226.852 14.682 227.011 13.7084 227.328 12.7829C227.609 11.9385 228.062 11.1629 228.657 10.5056C229.258 9.86273 229.996 9.3672 230.815 9.05692C231.72 8.70626 232.682 8.53274 233.651 8.5456C234.866 8.51258 236.068 8.8119 237.129 9.412C238.047 9.93802 238.801 10.7138 239.305 11.6514C239.77 12.5082 240.017 13.4677 240.026 14.4447C240.026 15.3253 239.773 15.8934 239.277 16.1538C238.615 16.4477 237.894 16.5822 237.171 16.5468L237.18 16.5704ZM230.417 14.582H236.689C236.687 13.603 236.348 12.6553 235.729 11.9023C235.453 11.6037 235.116 11.3681 234.743 11.2114C234.369 11.0547 233.967 10.9803 233.562 10.9933C233.165 10.9809 232.769 11.0552 232.402 11.2113C232.036 11.3673 231.707 11.6014 231.437 11.8976C230.824 12.6533 230.47 13.5907 230.431 14.5678L230.417 14.582ZM254.082 18.2511C254.124 19.1319 253.879 20.0023 253.386 20.7291C252.892 21.4559 252.176 21.999 251.349 22.2754C250.286 22.657 249.162 22.8384 248.035 22.8104C246.937 22.8462 245.843 22.6562 244.819 22.2517C244.049 21.955 243.371 21.4567 242.853 20.8077C242.463 20.3128 242.241 19.7032 242.221 19.0702C242.22 18.8867 242.255 18.7047 242.325 18.5354C242.395 18.366 242.498 18.2129 242.629 18.0854C242.764 17.9512 242.924 17.8459 243.1 17.776C243.276 17.706 243.465 17.6728 243.654 17.6783C243.957 17.6581 244.256 17.7545 244.492 17.9481C244.716 18.1675 244.904 18.4216 245.048 18.7009C245.35 19.2676 245.788 19.748 246.322 20.0976C246.94 20.4395 247.64 20.6033 248.344 20.571C248.946 20.5937 249.541 20.4284 250.047 20.0976C250.238 19.9898 250.4 19.8355 250.517 19.6486C250.633 19.4618 250.702 19.2483 250.717 19.0276C250.734 18.7608 250.679 18.4942 250.557 18.2571C250.435 18.0199 250.25 17.8213 250.024 17.683C249.308 17.3046 248.542 17.0319 247.749 16.8734C246.757 16.6374 245.785 16.3207 244.843 15.9265C244.151 15.6409 243.535 15.195 243.045 14.6246C242.593 14.0666 242.355 13.3621 242.376 12.6409C242.378 11.9294 242.596 11.2357 242.998 10.6524C243.457 9.98908 244.091 9.47042 244.829 9.15634C245.752 8.76415 246.748 8.57532 247.749 8.60241C248.561 8.591 249.371 8.68487 250.16 8.88175C250.792 9.0348 251.396 9.29062 251.948 9.63925C252.38 9.91059 252.751 10.2702 253.038 10.695C253.27 11.0251 253.4 11.4171 253.413 11.8218C253.418 12.0049 253.385 12.1871 253.317 12.3567C253.248 12.5262 253.145 12.6795 253.015 12.8066C252.701 13.0818 252.292 13.2197 251.878 13.1901C251.551 13.1985 251.231 13.0913 250.974 12.8871C250.656 12.6118 250.369 12.3022 250.118 11.9638C249.864 11.6277 249.546 11.3474 249.181 11.1401C248.735 10.9139 248.239 10.808 247.74 10.8323C247.193 10.8131 246.652 10.9528 246.181 11.2347C245.999 11.3324 245.845 11.4771 245.736 11.6542C245.626 11.8313 245.565 12.0345 245.559 12.2432C245.557 12.4212 245.599 12.5968 245.681 12.7545C245.763 12.9122 245.881 13.0472 246.027 13.1474C246.397 13.4154 246.813 13.6127 247.253 13.7298C247.768 13.8813 248.479 14.0707 249.383 14.2932C250.295 14.4975 251.179 14.8156 252.013 15.2401C252.622 15.5439 253.151 15.9883 253.558 16.5373C253.908 17.0377 254.092 17.638 254.082 18.2511Z" fill="#1F140F"/>
<path fill-rule="evenodd" clip-rule="evenodd" d="M5.14805 0.866394C11.9115 3.55081 12.4264 3.31408 19.3116 0.899535C23.1638 2.31986 24.5258 2.84064 26.4683 2.84064C28.0831 2.84064 30.2128 1.84168 33.3956 0.994223C35.2287 3.52491 36.5287 6.40932 37.215 9.46882C39.2791 19.0655 36.0636 29.8268 27.7648 35.6359C25.1764 37.4255 22.0825 38.5286 19.1899 39.4803C18.2538 39.0778 17.3645 38.9263 16.5032 38.5665C13.1379 37.1462 10.2312 35.6406 7.46028 32.7006C5.17439 30.3388 3.39597 27.5245 2.23671 24.4343C1.34039 21.6246 0.836257 18.7021 0.738907 15.7514C0.467431 10.5483 1.72184 5.97482 5.14805 0.866394ZM19.2601 7.82124C17.0606 7.82124 14.9104 8.48098 13.0815 9.71704C11.2527 10.9531 9.82725 12.7099 8.98552 14.7654C8.14378 16.8209 7.92355 19.0827 8.35266 21.2648C8.78177 23.4469 9.84096 25.4512 11.3963 27.0244C12.9516 28.5976 14.9332 29.669 17.0905 30.103C19.2478 30.5371 21.4839 30.3143 23.516 29.4629C25.5481 28.6115 27.285 27.1697 28.507 25.3198C29.729 23.4699 30.3813 21.295 30.3813 19.0702C30.3751 16.0887 29.2014 13.2311 27.1171 11.1229C25.0329 9.01466 22.2077 7.8275 19.2601 7.82124Z" fill="url(#paint0_linear_9_3425)" stroke="#B72915" stroke-width="3" stroke-miterlimit="10"/>
<path fill-rule="evenodd" clip-rule="evenodd" d="M216.02 19.4774C217.967 20.2443 218.117 20.1733 220.097 19.4774C221.201 19.8892 221.594 20.0408 222.151 20.0408C222.619 20.0408 223.223 19.752 224.145 19.5058C224.672 20.2323 225.044 21.0607 225.241 21.9392C225.835 24.6947 224.913 27.7862 222.526 29.4622C221.759 29.9515 220.927 30.3262 220.054 30.5748C219.788 30.4565 219.53 30.4138 219.282 30.3097C218.303 29.9497 217.416 29.374 216.684 28.6242C216.028 27.9487 215.518 27.1426 215.187 26.257C214.926 25.4503 214.779 24.6103 214.751 23.762C214.676 22.2363 215.124 20.7311 216.02 19.501V19.4774ZM220.078 21.4753C219.445 21.4734 218.826 21.6615 218.299 22.0156C217.772 22.3698 217.361 22.8742 217.118 23.4649C216.874 24.0556 216.81 24.706 216.932 25.3339C217.054 25.9618 217.358 26.5388 217.805 26.992C218.251 27.4452 218.821 27.7541 219.441 27.8796C220.062 28.0052 220.705 27.9417 221.29 27.6972C221.874 27.4528 222.374 27.0383 222.726 26.5064C223.078 25.9744 223.265 25.3488 223.265 24.7089C223.263 23.852 222.925 23.031 222.326 22.4251C221.727 21.8193 220.916 21.4778 220.069 21.4753H220.078Z" fill="url(#paint1_linear_9_3425)" stroke="#B72915" stroke-miterlimit="10"/>
<path d="M41.3904 33.5575H41.6572C41.988 33.5575 42.1659 33.6285 42.1908 33.7705L42.6589 36.9095L43.7448 33.7705C43.7916 33.6285 43.9835 33.5575 44.3205 33.5575H44.5592C44.8962 33.5575 45.0741 33.6285 45.0928 33.7705L45.5 36.9284L46.6374 33.7895C46.6889 33.6475 46.8808 33.5764 47.2084 33.5764H47.274C47.6671 33.5764 47.8684 33.6569 47.8684 33.8226C47.8672 33.8809 47.8561 33.9386 47.8357 33.9931L46.1553 38.7275C46.1038 38.8695 45.9119 38.9453 45.5843 38.9453H45.0647C44.7418 38.9453 44.5639 38.8695 44.5311 38.7275L44.1099 35.8868L43.1223 38.7275C43.0755 38.8695 42.8836 38.9453 42.5466 38.9453H42.0551C41.7181 38.9453 41.5402 38.8695 41.5215 38.7275L40.7445 33.9931C40.7414 33.9426 40.7414 33.892 40.7445 33.8416C40.7539 33.6475 40.9739 33.5575 41.3904 33.5575Z" fill="#BD1A15"/>
<path d="M50.0122 37.577C50.2116 37.7278 50.4562 37.8047 50.705 37.7948C50.9697 37.7973 51.2333 37.759 51.4866 37.6812C51.6887 37.6228 51.8859 37.5484 52.0764 37.4587C52.1581 37.4119 52.2444 37.3739 52.3338 37.345C52.39 37.345 52.4134 37.3924 52.4134 37.4871C52.4134 37.5818 52.4134 37.7333 52.3853 37.9226C52.3764 38.0405 52.3592 38.1576 52.3338 38.273C52.2795 38.4127 52.1908 38.5361 52.0762 38.6314C51.9615 38.7267 51.8246 38.7907 51.6785 38.8174C51.3239 38.9286 50.9546 38.9845 50.5833 38.9831C50.2617 39.0093 49.9382 38.9709 49.6314 38.8701C49.3245 38.7694 49.0404 38.6083 48.7953 38.3961C48.5921 38.1752 48.4355 37.9148 48.3349 37.6307C48.2343 37.3467 48.1919 37.0449 48.2102 36.7438C48.2102 35.6422 48.4692 34.8247 48.9872 34.2913C49.2473 34.0268 49.5587 33.8195 49.9019 33.6826C50.245 33.5457 50.6125 33.4822 50.9811 33.496C51.3164 33.4896 51.6504 33.5408 51.9687 33.6475C52.2008 33.7246 52.4089 33.8617 52.5725 34.0451C52.8002 34.3074 52.9279 34.6431 52.933 34.992C52.9529 35.2657 52.9031 35.5399 52.7884 35.7886C52.6737 36.0373 52.4978 36.252 52.2777 36.4124C51.8367 36.7259 51.3095 36.8915 50.7705 36.8858C50.4198 36.8872 50.0694 36.8634 49.722 36.8148C49.7158 37.0976 49.8201 37.3715 50.0122 37.577ZM50.8735 34.689C50.3165 34.689 49.9374 35.0678 49.7876 35.83H50.2556C50.5802 35.858 50.9057 35.7888 51.1918 35.6312C51.2745 35.5829 51.3437 35.5141 51.3929 35.4313C51.442 35.3484 51.4694 35.2543 51.4726 35.1577C51.4866 34.8453 51.276 34.689 50.8735 34.689Z" fill="#BD1A15"/>
<path d="M54.1446 38.9263C53.7562 38.9263 53.5596 38.8411 53.5596 38.6707L54.3085 31.569C54.3272 31.3513 54.5378 31.2424 54.9404 31.2424H55.2212C55.3706 31.234 55.5194 31.2667 55.6518 31.3371C55.6939 31.3571 55.7297 31.3884 55.7553 31.4277C55.7809 31.4669 55.7953 31.5126 55.7969 31.5596L55.5254 34.0877C55.6801 33.8994 55.8751 33.7491 56.0956 33.6482C56.3162 33.5473 56.5566 33.4985 56.7986 33.5054C57.041 33.4998 57.2816 33.5492 57.5028 33.65C57.7239 33.7508 57.9199 33.9003 58.0764 34.0877C58.4359 34.5515 58.6142 35.1329 58.5772 35.7211C58.614 36.5649 58.3737 37.3972 57.8938 38.0883C57.6971 38.3732 57.4341 38.6048 57.128 38.7625C56.8219 38.9202 56.4821 38.9992 56.1386 38.9926C55.9115 38.9907 55.687 38.9433 55.4781 38.8531C55.2692 38.7629 55.0801 38.6317 54.9216 38.4671C54.8916 38.6078 54.8236 38.7373 54.725 38.8411C54.5805 38.9152 54.4186 38.948 54.257 38.9358L54.1446 38.9263ZM55.7969 37.7948C55.9843 37.8013 56.17 37.7569 56.3347 37.6661C56.4993 37.5753 56.6369 37.4416 56.733 37.2787C56.9806 36.8267 57.0959 36.3127 57.0654 35.7969C57.0873 35.5107 57.0131 35.2254 56.8547 34.9873C56.7736 34.8973 56.6733 34.8271 56.5614 34.7819C56.4495 34.7368 56.3289 34.718 56.2088 34.7269C56.038 34.7468 55.8748 34.8097 55.7342 34.9097C55.5936 35.0098 55.48 35.1439 55.4037 35.2998L55.2633 36.6349L55.1416 37.5297C55.3205 37.6963 55.5537 37.7906 55.7969 37.7948Z" fill="#BD1A15"/>
<path d="M62.752 33.5575H63.0329C63.1818 33.5472 63.3307 33.5783 63.4635 33.6474C63.5056 33.6687 63.5413 33.701 63.5668 33.7409C63.5924 33.7809 63.6068 33.8271 63.6086 33.8747C63.3621 36.1946 63.2373 37.3892 63.2341 37.4586C63.2341 37.6812 63.3371 37.7948 63.5384 37.7948C63.6006 37.7937 63.6622 37.7825 63.7209 37.7616L63.8286 37.7332C63.8847 37.7332 63.9128 37.7853 63.9128 37.8847C63.9028 38.0774 63.8777 38.2689 63.8379 38.4576C63.8235 38.5436 63.7875 38.6244 63.7334 38.6924C63.6793 38.7603 63.609 38.8131 63.529 38.8458C63.3509 38.9379 63.1533 38.985 62.9533 38.9831C62.1435 38.9831 61.7363 38.5523 61.7363 37.6906L62.1201 33.9031C62.1389 33.6727 62.3495 33.5575 62.752 33.5575ZM63.1265 32.7006H62.8456C62.6967 32.7108 62.5478 32.6797 62.415 32.6106C62.3733 32.5902 62.3377 32.5587 62.3122 32.5196C62.2866 32.4804 62.272 32.435 62.2699 32.3881L62.3589 31.5501C62.3823 31.3323 62.5929 31.2234 62.9954 31.2234H63.2763C63.4242 31.2145 63.5716 31.2473 63.7022 31.3181C63.7448 31.3379 63.7813 31.3691 63.8077 31.4083C63.8341 31.4475 63.8494 31.4933 63.852 31.5406L63.7584 32.3739C63.7396 32.5917 63.529 32.7006 63.1265 32.7006Z" fill="#BD1A15"/>
<path d="M69.0951 34.7885L68.8424 37.4587C68.8424 37.6812 68.9453 37.7948 69.1466 37.7948C69.2088 37.7937 69.2705 37.7825 69.3292 37.7617L69.4368 37.7333C69.493 37.7333 69.5211 37.7853 69.5211 37.8848C69.5109 38.0771 69.4874 38.2686 69.4509 38.4576C69.4347 38.5436 69.3975 38.6242 69.3428 38.692C69.288 38.7598 69.2174 38.8127 69.1372 38.8459C68.9591 38.9379 68.7616 38.985 68.5615 38.9832C67.7518 38.9832 67.3446 38.5523 67.3446 37.6907L67.5739 35.2477C67.5798 35.1782 67.5705 35.1083 67.5465 35.0429C67.5226 34.9775 67.4847 34.9183 67.4355 34.8694C67.3863 34.8206 67.3271 34.7833 67.262 34.7603C67.1969 34.7373 67.1276 34.7292 67.0591 34.7364C66.8621 34.7465 66.6714 34.8098 66.5067 34.9197C66.3421 35.0296 66.2096 35.1821 66.1229 35.3613L65.8 38.5997C65.7812 38.8174 65.5706 38.9263 65.1681 38.9263H64.8826C64.7347 38.9348 64.5874 38.902 64.4566 38.8317C64.4145 38.8116 64.3787 38.7803 64.3531 38.741C64.3275 38.7018 64.3131 38.6561 64.3115 38.6091L64.6532 35.2666C64.6799 35.0277 64.6939 34.7875 64.6953 34.547L64.6719 33.9741C64.6719 33.8653 64.7843 33.78 65.0043 33.709C65.2776 33.6364 65.5596 33.603 65.8421 33.6096C65.8959 33.6048 65.9497 33.6185 65.9947 33.6486C66.0398 33.6787 66.0734 33.7234 66.0902 33.7753C66.1333 33.9473 66.1584 34.1235 66.1651 34.3008C66.3574 34.0672 66.5947 33.8755 66.8625 33.7374C67.1307 33.5826 67.4336 33.4995 67.7424 33.496C68.6551 33.496 69.0951 33.9268 69.0951 34.7885Z" fill="#BD1A15"/>
<path d="M72.7414 33.5765C72.8069 33.5765 72.8537 33.5765 72.8724 33.6238C72.8992 33.711 72.9087 33.8027 72.9005 33.8937C72.8892 34.0859 72.8365 34.2734 72.746 34.4429C72.7165 34.5348 72.6599 34.6153 72.5837 34.6737C72.5076 34.7321 72.4156 34.7656 72.3201 34.7695H72.0159L71.6133 38.5997C71.5946 38.8174 71.384 38.9263 70.9814 38.9263H70.6959C70.5481 38.9348 70.4007 38.902 70.27 38.8316C70.2279 38.8116 70.1921 38.7803 70.1665 38.741C70.1409 38.7018 70.1265 38.6561 70.1249 38.6091L70.5181 34.7695H70.3168C70.1389 34.7695 70.0547 34.6464 70.0547 34.405C70.0547 33.851 70.1811 33.5765 70.4338 33.5765H70.6772L70.7474 32.8142C70.7637 32.3617 70.9397 31.93 71.2436 31.5975C71.3947 31.4502 71.5739 31.3356 71.7703 31.2607C71.9666 31.1859 72.176 31.1522 72.3856 31.1619C73.0316 31.1619 73.3545 31.3229 73.3545 31.6353C73.3416 31.7997 73.2987 31.9602 73.2281 32.1088C73.1439 32.3124 73.0596 32.4165 72.9801 32.4165H72.8584C72.7898 32.3972 72.7189 32.3876 72.6478 32.3881C72.409 32.3881 72.2733 32.5349 72.2452 32.8284L72.1563 33.6096L72.7414 33.5765Z" fill="#BD1A15"/>
<path d="M73.3258 36.7532C73.2994 35.9625 73.5011 35.1811 73.9062 34.5044C74.1202 34.1824 74.4184 33.9267 74.7675 33.7658C75.1804 33.5773 75.6298 33.4851 76.0827 33.496C76.3775 33.4781 76.6729 33.5214 76.9506 33.6231C77.2282 33.7249 77.4824 33.883 77.6975 34.0878C77.8952 34.3142 78.0463 34.5781 78.1419 34.8643C78.2376 35.1504 78.2758 35.453 78.2545 35.7543C78.307 36.6182 78.0457 37.4718 77.5197 38.1546C77.2656 38.4397 76.9518 38.6637 76.6011 38.8104C76.2505 38.957 75.8719 39.0225 75.493 39.0021C75.1976 39.0237 74.901 38.9845 74.621 38.8868C74.341 38.7892 74.0835 38.6351 73.8641 38.4339C73.6678 38.2045 73.519 37.9375 73.4265 37.6488C73.334 37.3601 73.2998 37.0556 73.3258 36.7532ZM75.6287 37.7948C75.7995 37.793 75.9665 37.7439 76.1117 37.653C76.2569 37.562 76.3748 37.4326 76.4525 37.2788C76.6742 36.8217 76.7757 36.3146 76.7474 35.8064C76.7474 35.063 76.4852 34.689 75.961 34.689C75.7899 34.6895 75.6222 34.7375 75.4762 34.8276C75.3301 34.9178 75.2113 35.0467 75.1326 35.2003C74.9068 35.6595 74.8036 36.1703 74.833 36.6822C74.833 37.4255 75.0998 37.7948 75.6287 37.7948Z" fill="#BD1A15"/>
<path d="M79.3735 34.5612V33.9883C79.3735 33.8794 79.4858 33.7942 79.7058 33.7232C79.9665 33.6506 80.2358 33.614 80.5062 33.6143C80.5453 33.6125 80.5842 33.6207 80.6193 33.6381C80.6545 33.6555 80.6848 33.6815 80.7074 33.7137C80.7517 33.7753 80.7806 33.8468 80.7917 33.9221C80.7917 33.9931 80.7917 34.1114 80.8245 34.2771C80.9398 34.0571 81.1086 33.8704 81.3149 33.7346C81.5213 33.5988 81.7584 33.5183 82.004 33.5007C82.0674 33.4921 82.132 33.4985 82.1927 33.5192C82.2533 33.54 82.3084 33.5746 82.3537 33.6204C82.399 33.6662 82.4332 33.7219 82.4537 33.7833C82.4743 33.8446 82.4805 33.9099 82.472 33.9741C82.4639 34.1824 82.4146 34.3868 82.3269 34.5754C82.2287 34.8074 82.1444 34.921 82.0695 34.921C82.0176 34.9124 81.9672 34.8965 81.9197 34.8737C81.8354 34.8446 81.7467 34.8302 81.6576 34.8311C81.4812 34.8386 81.3093 34.8896 81.1568 34.9795C81.0043 35.0694 80.8758 35.1956 80.7823 35.3471L80.5062 38.5996C80.5062 38.8174 80.2722 38.9263 79.8696 38.9263H79.5701C79.4222 38.9348 79.2749 38.902 79.1441 38.8316C79.102 38.8116 79.0662 38.7803 79.0406 38.741C79.015 38.7018 79.0006 38.6561 78.999 38.6091L79.3407 35.2666C79.3594 35.0015 79.3735 34.7648 79.3735 34.5612Z" fill="#BD1A15"/>
<path d="M83.0709 34.5612V33.9883C83.0709 33.8794 83.1833 33.7942 83.4033 33.7232C83.6766 33.6506 83.9586 33.6172 84.2411 33.6238C84.3956 33.6238 84.4939 33.7327 84.5313 33.9505C84.548 34.065 84.5589 34.1804 84.5641 34.2961C84.7549 34.0641 84.9907 33.874 85.2568 33.7374C85.523 33.592 85.8202 33.514 86.1227 33.5102C86.8201 33.5102 87.2461 33.7706 87.3912 34.2961C87.5851 34.0639 87.8262 33.8766 88.0979 33.7469C88.3759 33.5958 88.6857 33.5146 89.0013 33.5102C89.8906 33.5102 90.3306 33.941 90.3306 34.8027L90.0778 37.4729C90.0778 37.6954 90.1808 37.809 90.3821 37.809C90.4443 37.8079 90.5059 37.7967 90.5646 37.7759L90.6723 37.7475C90.7284 37.7475 90.7565 37.7995 90.7565 37.899C90.7463 38.0913 90.7229 38.2828 90.6863 38.4718C90.6701 38.5578 90.633 38.6384 90.5782 38.7062C90.5235 38.774 90.4528 38.8269 90.3727 38.86C90.1946 38.9521 89.997 38.9992 89.797 38.9973C88.9872 38.9973 88.58 38.5665 88.58 37.7049L88.8094 35.2619C88.8151 35.1933 88.8059 35.1243 88.7825 35.0596C88.7591 34.995 88.722 34.9363 88.6739 34.8876C88.6258 34.8389 88.5678 34.8014 88.5038 34.7778C88.4399 34.7541 88.3717 34.7448 88.3039 34.7506C88.1168 34.7622 87.9358 34.8217 87.7777 34.9236C87.6197 35.0254 87.4899 35.1663 87.4005 35.3329L87.0588 38.5997C87.0354 38.8174 86.8248 38.9263 86.4223 38.9263H86.1414C85.9921 38.9347 85.8433 38.9019 85.7108 38.8316C85.6694 38.8108 85.6341 38.7793 85.6086 38.7402C85.5831 38.7011 85.5683 38.6559 85.5657 38.6091C85.7904 36.436 85.898 35.295 85.898 35.2477C85.9037 35.1791 85.8945 35.1101 85.8711 35.0454C85.8478 34.9808 85.8107 34.9221 85.7626 34.8734C85.7144 34.8247 85.6564 34.7872 85.5925 34.7636C85.5286 34.7399 85.4603 34.7306 85.3925 34.7364C85.2046 34.7489 85.0229 34.8099 84.8648 34.9135C84.7067 35.017 84.5774 35.1598 84.4892 35.3282L84.1662 38.5997C84.1475 38.8174 83.9369 38.9263 83.5343 38.9263H83.2535C83.1111 38.9282 82.9707 38.8923 82.8463 38.8222C82.8042 38.8022 82.7684 38.7708 82.7428 38.7316C82.7172 38.6923 82.7028 38.6467 82.7012 38.5997L83.0429 35.2572C83.064 35.0258 83.0734 34.7935 83.0709 34.5612Z" fill="#BD1A15"/>
<path d="M95.3434 38.9831C95.0911 39.0225 94.8334 38.9665 94.6193 38.8259C94.4052 38.6854 94.2498 38.47 94.1826 38.2209C94.035 38.4472 93.8401 38.6379 93.6116 38.7796C93.3762 38.9244 93.1054 38.9998 92.8299 38.9973C92.6005 39.0045 92.3727 38.9557 92.1658 38.8552C91.9589 38.7547 91.7789 38.6053 91.641 38.4197C91.3173 37.9405 91.1608 37.3657 91.1964 36.7864C91.1589 35.9507 91.378 35.1239 91.8236 34.4192C91.9916 34.14 92.2282 33.9096 92.5103 33.7503C92.7925 33.591 93.1106 33.5083 93.4337 33.5102C93.8939 33.5203 94.3315 33.7143 94.6507 34.0499C94.6797 33.9071 94.746 33.7747 94.8426 33.6664C94.9869 33.5916 95.149 33.5588 95.3106 33.5717H95.4323C95.8208 33.5717 96.0174 33.6569 96.0174 33.8274L95.8349 35.598C95.7085 36.7816 95.643 37.4066 95.643 37.4918C95.643 37.7096 95.7412 37.8185 95.9425 37.8185C96.0048 37.8182 96.0666 37.807 96.1251 37.7853L96.2374 37.7569C96.2889 37.7569 96.317 37.809 96.317 37.9084C96.3068 38.1008 96.2833 38.2922 96.2468 38.4813C96.2306 38.5673 96.1934 38.6479 96.1387 38.7157C96.0839 38.7835 96.0133 38.8364 95.9332 38.8695C95.7492 38.957 95.5463 38.9961 95.3434 38.9831ZM93.3775 37.7617C93.6537 37.7617 93.9158 37.5676 94.1639 37.1746C94.2419 36.253 94.2887 35.7416 94.3043 35.6406C94.3043 35.5412 94.3605 35.3187 94.426 34.9731C94.2464 34.8005 94.0091 34.7025 93.7614 34.6985C93.5943 34.6982 93.4308 34.7468 93.2905 34.8383C93.1501 34.9299 93.0389 35.0605 92.9703 35.2146C92.7597 35.6949 92.6651 36.2191 92.6942 36.7438C92.6754 37.4255 92.9235 37.7617 93.3775 37.7617Z" fill="#BD1A15"/>
<path d="M97.0844 34.7695C96.9112 34.7695 96.8223 34.6464 96.8223 34.405C96.8223 33.851 96.9486 33.5764 97.2061 33.5764H97.4073L97.5056 32.6296C97.5056 32.4118 97.7397 32.3029 98.1422 32.3029H98.423C98.5703 32.2955 98.7169 32.3265 98.849 32.3928C98.8911 32.4141 98.9268 32.4464 98.9523 32.4863C98.9779 32.5263 98.9923 32.5725 98.9941 32.6201L98.8958 33.5954H99.4902C99.5142 33.592 99.5387 33.5945 99.5615 33.6027C99.5843 33.611 99.6048 33.6247 99.6213 33.6427C99.6481 33.7299 99.6576 33.8216 99.6494 33.9126C99.6381 34.1049 99.5854 34.2923 99.4949 34.4618C99.4654 34.5537 99.4087 34.6343 99.3326 34.6927C99.2564 34.7511 99.1644 34.7845 99.069 34.7885H98.76C98.5728 36.5591 98.4792 37.4587 98.4792 37.4776C98.4792 37.7001 98.5775 37.8137 98.7788 37.8137C98.861 37.8136 98.9428 37.8024 99.0222 37.7806L99.1626 37.7522C99.2187 37.7522 99.2421 37.8043 99.2421 37.9037C99.232 38.0961 99.2085 38.2875 99.1719 38.4766C99.1566 38.5622 99.1203 38.6427 99.0664 38.7105C99.0124 38.7783 98.9425 38.8313 98.863 38.8648C98.6849 38.9568 98.4873 39.0039 98.2873 39.0021C97.4167 39.0021 96.9767 38.5286 96.9767 37.648L97.2716 34.8074L97.0844 34.7695Z" fill="#BD1A15"/>
<path d="M101.181 33.5575H101.462C101.611 33.5472 101.759 33.5783 101.892 33.6475C101.934 33.6687 101.97 33.701 101.996 33.741C102.021 33.7809 102.035 33.8271 102.037 33.8747C101.788 36.1946 101.663 37.3892 101.663 37.4587C101.663 37.6812 101.766 37.7948 101.967 37.7948C102.029 37.7937 102.091 37.7825 102.15 37.7617L102.257 37.7333C102.313 37.7333 102.342 37.7853 102.342 37.8848C102.331 38.0771 102.308 38.2686 102.271 38.4576C102.255 38.5436 102.218 38.6242 102.163 38.692C102.108 38.7598 102.038 38.8127 101.958 38.8458C101.78 38.9379 101.582 38.985 101.382 38.9831C100.572 38.9831 100.165 38.5523 100.165 37.6906L100.549 33.9031C100.568 33.6727 100.778 33.5575 101.181 33.5575ZM101.555 32.7006H101.274C101.125 32.7109 100.976 32.6797 100.844 32.6106C100.802 32.5902 100.766 32.5587 100.741 32.5196C100.715 32.4804 100.701 32.435 100.699 32.3881L100.788 31.5501C100.788 31.3323 101.022 31.2234 101.424 31.2234H101.705C101.854 31.2151 102.003 31.2478 102.136 31.3181C102.177 31.339 102.212 31.3705 102.238 31.4096C102.263 31.4487 102.278 31.4939 102.281 31.5406L102.187 32.3739C102.168 32.5917 101.962 32.7006 101.569 32.7006H101.555Z" fill="#BD1A15"/>
<path d="M102.79 33.8132C102.79 33.6427 103.005 33.5575 103.427 33.5575H103.759C104.087 33.5575 104.269 33.6285 104.302 33.7705L104.704 35.6643C104.704 35.7543 104.751 35.9531 104.784 36.2608C104.817 36.5686 104.84 36.7816 104.854 36.8953H104.896C105.065 36.3319 105.201 35.9484 105.308 35.6643L106.095 33.7705C106.155 33.6285 106.347 33.5575 106.68 33.5575H106.928C107.312 33.5575 107.503 33.6332 107.503 33.7895C107.502 33.8503 107.488 33.9101 107.461 33.9647L105.369 38.6991C105.308 38.8411 105.112 38.9168 104.784 38.9168H104.461C104.133 38.9168 103.951 38.8411 103.918 38.6991L102.813 33.9647C102.799 33.8842 102.79 33.8321 102.79 33.8132Z" fill="#BD1A15"/>
<path d="M111.824 38.9831C111.572 39.0225 111.314 38.9665 111.1 38.8259C110.886 38.6854 110.73 38.47 110.663 38.2209C110.512 38.4487 110.312 38.6396 110.078 38.7796C109.843 38.9244 109.572 38.9998 109.296 38.9973C109.069 39.0022 108.844 38.9523 108.64 38.8519C108.436 38.7515 108.258 38.6034 108.122 38.4197C107.79 37.9435 107.625 37.3684 107.654 36.7864C107.616 35.9507 107.835 35.1239 108.281 34.4192C108.449 34.14 108.685 33.9096 108.967 33.7503C109.25 33.591 109.568 33.5083 109.891 33.5102C110.351 33.5203 110.789 33.7143 111.108 34.0499C111.137 33.9071 111.203 33.7747 111.3 33.6664C111.444 33.5916 111.606 33.5588 111.768 33.5717H111.889C112.278 33.5717 112.475 33.6569 112.475 33.8274L112.292 35.598C112.166 36.7816 112.1 37.4066 112.1 37.4918C112.1 37.7096 112.198 37.8185 112.4 37.8185C112.462 37.8182 112.524 37.807 112.582 37.7853L112.695 37.7569C112.746 37.7569 112.774 37.809 112.774 37.9084C112.764 38.1008 112.74 38.2922 112.704 38.4813C112.688 38.5673 112.651 38.6479 112.596 38.7157C112.541 38.7835 112.47 38.8364 112.39 38.8695C112.213 38.9532 112.019 38.9921 111.824 38.9831ZM109.858 37.7617C110.134 37.7617 110.396 37.5676 110.644 37.1746C110.726 36.253 110.772 35.7416 110.785 35.6406C110.785 35.5412 110.841 35.3187 110.907 34.9731C110.727 34.8005 110.49 34.7025 110.242 34.6985C110.075 34.6982 109.911 34.7468 109.771 34.8383C109.631 34.9299 109.519 35.0605 109.451 35.2146C109.24 35.6949 109.146 36.2191 109.175 36.7438C109.175 37.4255 109.404 37.7617 109.858 37.7617Z" fill="#BD1A15"/>
<path d="M115.61 33.8226C115.61 33.6475 115.826 33.5575 116.256 33.5575H116.546C116.874 33.5575 117.057 33.6285 117.089 33.7705L117.483 35.6643C117.511 35.7921 117.562 36.204 117.642 36.8953H117.684C117.866 36.294 117.997 35.8821 118.086 35.6643L118.882 33.7705C118.943 33.6285 119.135 33.5575 119.467 33.5575H119.706C120.094 33.5575 120.291 33.6285 120.291 33.7705C120.277 33.8362 120.26 33.901 120.239 33.9647L117.22 40.7869C117.16 40.929 116.963 41 116.635 41H116.467C116.074 41 115.882 40.9337 115.882 40.7964C115.886 40.7276 115.907 40.6608 115.943 40.6023L116.757 38.9026C115.993 35.5507 115.61 33.8573 115.61 33.8226Z" fill="#BD1A15"/>
<path d="M123.301 34.5612L123.278 33.9883C123.278 33.8795 123.39 33.7942 123.61 33.7232C123.884 33.6506 124.166 33.6172 124.448 33.6238C124.635 33.6238 124.743 33.8274 124.771 34.2345C124.911 34.0096 125.106 33.8248 125.338 33.698C125.569 33.5711 125.828 33.5065 126.091 33.5102C126.336 33.5004 126.581 33.5474 126.805 33.6475C127.03 33.7476 127.229 33.8981 127.388 34.0878C127.732 34.5581 127.898 35.1376 127.856 35.7211C127.894 36.5622 127.661 37.3931 127.191 38.0883C127.001 38.3718 126.744 38.603 126.443 38.7608C126.142 38.9187 125.807 38.9984 125.469 38.9926C125.074 38.9863 124.694 38.8425 124.392 38.5855L124.172 40.6828C124.153 40.9006 123.943 41.0095 123.54 41.0095H123.255C123.107 41.0191 122.96 40.988 122.829 40.9195C122.787 40.8991 122.751 40.8676 122.726 40.8285C122.7 40.7893 122.686 40.7439 122.684 40.697L123.245 35.2761C123.276 35.039 123.295 34.8003 123.301 34.5612ZM125.141 37.809C125.324 37.8151 125.505 37.7702 125.664 37.6792C125.824 37.5882 125.955 37.4546 126.044 37.293C126.281 36.8373 126.391 36.3251 126.363 35.8111C126.363 35.1009 126.082 34.7411 125.525 34.7411C125.235 34.7411 124.968 34.9494 124.72 35.3661C124.72 35.5933 124.631 36.3129 124.509 37.5723C124.687 37.72 124.911 37.7989 125.141 37.7948V37.809Z" fill="#BD1A15"/>
<path d="M132.742 38.9831C132.482 39.0217 132.217 38.9591 132.001 38.808C131.785 38.6569 131.633 38.4285 131.577 38.1688C131.373 38.4075 131.127 38.6051 130.851 38.7511C130.58 38.9012 130.276 38.9809 129.966 38.9831C129.604 39.0149 129.243 38.9029 128.96 38.6707C128.844 38.5378 128.755 38.3825 128.7 38.214C128.644 38.0456 128.623 37.8676 128.637 37.6906C128.637 37.4097 128.731 36.4297 128.918 34.7506L129.007 33.8842C129.03 33.6664 129.241 33.5575 129.643 33.5575H129.924C130.072 33.5471 130.219 33.5783 130.35 33.6475C130.393 33.6684 130.429 33.7005 130.456 33.7405C130.482 33.7804 130.497 33.8268 130.5 33.8747C130.269 36.0336 130.154 37.1572 130.154 37.2456C130.153 37.3115 130.167 37.3768 130.193 37.4372C130.219 37.4976 130.257 37.5518 130.305 37.5964C130.353 37.641 130.41 37.6749 130.472 37.696C130.534 37.7171 130.599 37.725 130.664 37.719C130.847 37.7096 131.026 37.6546 131.183 37.5588C131.341 37.463 131.473 37.3294 131.567 37.1699L131.909 33.8558C131.928 33.638 132.138 33.5291 132.541 33.5291H132.826C132.974 33.5194 133.121 33.5505 133.252 33.619C133.294 33.6403 133.33 33.6726 133.356 33.7125C133.381 33.7525 133.396 33.7987 133.397 33.8463C133.151 36.1662 133.028 37.3608 133.028 37.4302C133.028 37.6528 133.126 37.7664 133.327 37.7664C133.389 37.7657 133.451 37.7545 133.51 37.7332L133.617 37.7048C133.673 37.7048 133.702 37.7569 133.702 37.8563C133.691 38.0487 133.668 38.2401 133.631 38.4292C133.615 38.5152 133.578 38.5958 133.523 38.6636C133.469 38.7314 133.398 38.7843 133.318 38.8174C133.142 38.9194 132.944 38.9763 132.742 38.9831Z" fill="#BD1A15"/>
<path d="M134.801 38.9263C134.412 38.9263 134.216 38.8411 134.216 38.6707L134.965 31.569C134.983 31.3513 135.194 31.2424 135.597 31.2424H135.877C136.027 31.234 136.176 31.2667 136.308 31.3371C136.35 31.3571 136.386 31.3884 136.412 31.4277C136.437 31.4669 136.452 31.5126 136.453 31.5596L136.205 34.0877C136.36 33.8994 136.555 33.7491 136.775 33.6482C136.996 33.5473 137.236 33.4985 137.478 33.5054C137.718 33.5026 137.955 33.5534 138.172 33.6541C138.39 33.7548 138.583 33.9028 138.737 34.0877C139.097 34.5515 139.275 35.1329 139.238 35.7211C139.275 36.5649 139.035 37.3972 138.555 38.0883C138.358 38.3729 138.095 38.6042 137.789 38.7619C137.483 38.9196 137.143 38.9988 136.8 38.9926C136.572 38.9907 136.348 38.9433 136.139 38.8531C135.93 38.7629 135.741 38.6317 135.583 38.4671C135.553 38.6078 135.485 38.7373 135.386 38.8411C135.241 38.9152 135.08 38.948 134.918 38.9358L134.801 38.9263ZM136.453 37.7948C136.641 37.8013 136.826 37.7569 136.991 37.6661C137.156 37.5753 137.293 37.4416 137.389 37.2787C137.637 36.8267 137.752 36.3127 137.722 35.7969C137.744 35.5107 137.669 35.2254 137.511 34.9873C137.43 34.8973 137.33 34.8271 137.218 34.7819C137.106 34.7368 136.985 34.718 136.865 34.7269C136.694 34.7464 136.531 34.8091 136.39 34.9092C136.249 35.0093 136.136 35.1436 136.06 35.2998L135.92 36.6349L135.798 37.5297C135.978 37.6974 136.213 37.7918 136.458 37.7948H136.453Z" fill="#BD1A15"/>
<path d="M141.181 31.214H141.649C141.963 31.214 142.117 31.3086 142.117 31.4886C141.724 35.4307 141.526 37.4208 141.523 37.4586C141.523 37.6812 141.621 37.7948 141.827 37.7948C141.888 37.7941 141.948 37.7829 142.005 37.7617L142.117 37.7332C142.169 37.7332 142.197 37.7853 142.197 37.8847C142.187 38.0771 142.163 38.2685 142.127 38.4576C142.111 38.5436 142.073 38.6242 142.019 38.692C141.964 38.7598 141.893 38.8127 141.813 38.8458C141.637 38.9384 141.441 38.9856 141.242 38.9831C140.428 38.9831 140.021 38.5523 140.021 37.6906L140.657 31.5359C140.685 31.3181 140.858 31.214 141.181 31.214Z" fill="#BD1A15"/>
<path d="M143.989 33.5575H144.27C144.418 33.5471 144.565 33.5783 144.696 33.6475C144.739 33.6684 144.775 33.7006 144.802 33.7405C144.828 33.7804 144.843 33.8268 144.846 33.8747C144.599 36.1946 144.475 37.3892 144.471 37.4587C144.471 37.6812 144.574 37.7948 144.776 37.7948C144.836 37.7941 144.897 37.7829 144.954 37.7617L145.066 37.7333C145.117 37.7333 145.145 37.7853 145.145 37.8848C145.135 38.0771 145.112 38.2686 145.075 38.4576C145.059 38.5436 145.022 38.6242 144.967 38.692C144.912 38.7598 144.842 38.8127 144.762 38.8458C144.585 38.9384 144.389 38.9856 144.191 38.9831C143.376 38.9831 142.974 38.5523 142.974 37.6906L143.353 33.9031C143.376 33.6664 143.587 33.5575 143.989 33.5575ZM144.359 32.7006H144.078C143.931 32.7102 143.784 32.6791 143.652 32.6106C143.611 32.5902 143.575 32.5587 143.549 32.5196C143.524 32.4804 143.509 32.435 143.507 32.3881L143.596 31.5501C143.615 31.3323 143.826 31.2234 144.228 31.2234H144.514C144.661 31.215 144.809 31.2478 144.939 31.3181C144.982 31.3381 145.017 31.3695 145.043 31.4087C145.069 31.448 145.083 31.4936 145.085 31.5406L144.996 32.3739C144.977 32.5917 144.762 32.7006 144.359 32.7006Z" fill="#BD1A15"/>
<path d="M149.686 37.5297C149.696 37.7926 149.669 38.0556 149.606 38.3109C149.549 38.4404 149.463 38.5544 149.354 38.6434C149.245 38.7323 149.116 38.7936 148.979 38.8222C148.652 38.9279 148.311 38.9822 147.968 38.9831C146.442 38.9831 145.679 38.2635 145.679 36.8242C145.646 36.006 145.86 35.1969 146.292 34.5044C146.51 34.1777 146.816 33.9201 147.172 33.7611C147.554 33.5837 147.969 33.4932 148.389 33.496C148.785 33.4903 149.179 33.5429 149.559 33.6522C149.906 33.7611 150.084 33.941 150.088 34.1967C150.066 34.3703 149.996 34.5341 149.887 34.6701C149.756 34.8737 149.639 34.9778 149.536 34.9778C149.479 34.9655 149.424 34.9413 149.377 34.9068C149.123 34.7669 148.838 34.6936 148.548 34.6938C147.665 34.6938 147.222 35.355 147.219 36.6775C147.194 36.9785 147.276 37.2786 147.448 37.5249C147.549 37.6248 147.669 37.7012 147.802 37.7487C147.935 37.7961 148.076 37.8135 148.216 37.7995C148.632 37.7856 149.039 37.6738 149.405 37.4729C149.472 37.4314 149.547 37.4041 149.625 37.3924C149.667 37.4018 149.686 37.435 149.686 37.5297Z" fill="#BD1A15"/>
<path d="M151.539 33.5575H151.82C151.969 33.5479 152.118 33.579 152.251 33.6475C152.292 33.6694 152.327 33.7019 152.353 33.7418C152.378 33.7816 152.393 33.8274 152.396 33.8747C152.149 36.1946 152.024 37.3892 152.021 37.4587C152.021 37.6812 152.124 37.7948 152.325 37.7948C152.386 37.7941 152.446 37.7829 152.503 37.7617L152.616 37.7333C152.672 37.7333 152.695 37.7853 152.695 37.8848C152.685 38.0771 152.662 38.2686 152.625 38.4576C152.61 38.5433 152.573 38.6237 152.519 38.6915C152.466 38.7593 152.396 38.8124 152.316 38.8458C152.138 38.9379 151.94 38.985 151.74 38.9831C150.926 38.9831 150.523 38.5523 150.523 37.6906L150.903 33.9031C150.926 33.6664 151.137 33.5575 151.539 33.5575ZM151.914 32.7006H151.651C151.504 32.7102 151.357 32.6791 151.226 32.6106C151.184 32.5902 151.148 32.5587 151.123 32.5196C151.097 32.4804 151.083 32.435 151.08 32.3881L151.169 31.5501C151.169 31.3323 151.403 31.2234 151.806 31.2234H152.087C152.235 31.215 152.382 31.2478 152.513 31.3181C152.555 31.3381 152.591 31.3695 152.616 31.4087C152.642 31.448 152.656 31.4936 152.658 31.5406L152.569 32.3739C152.535 32.5917 152.316 32.7006 151.914 32.7006Z" fill="#BD1A15"/>
<path d="M153.552 34.7695C153.379 34.7695 153.29 34.6464 153.29 34.405C153.29 33.851 153.416 33.5764 153.674 33.5764H153.875L153.978 32.6296C153.997 32.4118 154.207 32.3029 154.61 32.3029H154.891C155.04 32.2957 155.188 32.3267 155.321 32.3928C155.364 32.4141 155.399 32.4464 155.425 32.4863C155.45 32.5263 155.465 32.5725 155.467 32.6201L155.364 33.5954H155.958C156.028 33.5954 156.07 33.5954 156.089 33.6427C156.121 33.7288 156.132 33.8213 156.122 33.9126C156.111 34.1055 156.056 34.2934 155.963 34.4618C155.933 34.5537 155.876 34.6343 155.8 34.6927C155.724 34.7511 155.632 34.7845 155.537 34.7885H155.247C155.055 36.5591 154.961 37.4587 154.961 37.4776C154.961 37.7001 155.064 37.8137 155.265 37.8137C155.347 37.8136 155.429 37.8024 155.509 37.7806L155.649 37.7522C155.701 37.7522 155.729 37.8043 155.729 37.9037C155.718 38.0961 155.695 38.2875 155.658 38.4766C155.642 38.5626 155.605 38.6431 155.55 38.7109C155.496 38.7787 155.425 38.8316 155.345 38.8648C155.168 38.9563 154.972 39.0034 154.774 39.0021C153.899 39.0021 153.463 38.5286 153.463 37.648L153.753 34.8074L153.552 34.7695Z" fill="#BD1A15"/>
<path d="M160.741 38.9831C160.493 39.0161 160.241 38.957 160.033 38.8169C159.825 38.6767 159.674 38.465 159.608 38.2209C159.456 38.45 159.254 38.641 159.018 38.7796C158.783 38.9244 158.512 38.9998 158.237 38.9973C158.007 39.0045 157.78 38.9557 157.573 38.8552C157.366 38.7547 157.186 38.6053 157.048 38.4197C156.726 37.9399 156.571 37.3652 156.608 36.7864C156.569 35.9512 156.786 35.1244 157.23 34.4192C157.398 34.14 157.635 33.9096 157.917 33.7503C158.199 33.591 158.517 33.5083 158.841 33.5102C159.301 33.5203 159.738 33.7143 160.058 34.0499C160.087 33.9071 160.153 33.7747 160.249 33.6664C160.394 33.5927 160.556 33.56 160.717 33.5717H160.839C161.228 33.5717 161.424 33.6569 161.424 33.8274L161.242 35.598C161.115 36.7816 161.05 37.4066 161.05 37.4918C161.05 37.7096 161.153 37.8185 161.354 37.8185C161.415 37.8177 161.475 37.8065 161.532 37.7853L161.644 37.7569C161.7 37.7569 161.724 37.809 161.724 37.9084C161.714 38.1008 161.69 38.2922 161.654 38.4813C161.638 38.567 161.602 38.6474 161.548 38.7152C161.494 38.783 161.424 38.8361 161.345 38.8695C161.156 38.958 160.948 38.9971 160.741 38.9831ZM158.78 37.7617C159.051 37.7617 159.313 37.5676 159.561 37.1746L159.702 35.6406C159.702 35.5412 159.758 35.3187 159.823 34.9731C159.644 34.8005 159.407 34.7025 159.159 34.6985C158.992 34.6982 158.828 34.7468 158.688 34.8383C158.548 34.9299 158.436 35.0605 158.368 35.2146C158.157 35.6949 158.063 36.2191 158.092 36.7438C158.092 37.4255 158.321 37.7617 158.78 37.7617Z" fill="#BD1A15"/>
<path d="M162.482 34.5612V33.9883C162.482 33.8794 162.59 33.7942 162.815 33.7232C163.086 33.6506 163.367 33.6171 163.648 33.6238C163.687 33.6216 163.726 33.6295 163.761 33.6469C163.797 33.6644 163.827 33.6906 163.849 33.7232C163.892 33.7859 163.923 33.8567 163.938 33.9315C163.938 34.0025 163.938 34.1209 163.971 34.2866C164.086 34.066 164.254 33.8788 164.461 33.7429C164.667 33.607 164.905 33.5268 165.15 33.5101C165.214 33.5016 165.278 33.5079 165.339 33.5287C165.4 33.5494 165.455 33.5841 165.5 33.6299C165.545 33.6756 165.58 33.7314 165.6 33.7927C165.621 33.8541 165.627 33.9194 165.618 33.9836C165.601 34.1843 165.547 34.3801 165.459 34.5612C165.361 34.7932 165.277 34.9068 165.202 34.9068C165.15 34.8982 165.1 34.8822 165.052 34.8595C164.968 34.8308 164.879 34.8164 164.79 34.8168C164.613 34.8236 164.441 34.8742 164.289 34.9642C164.136 35.0542 164.008 35.1808 163.915 35.3329L163.592 38.5949C163.568 38.8127 163.358 38.9216 162.955 38.9216H162.674C162.526 38.9305 162.379 38.8977 162.248 38.8269C162.206 38.8071 162.169 38.7759 162.143 38.7367C162.116 38.6975 162.101 38.6517 162.099 38.6044L162.44 35.2619C162.466 35.0292 162.48 34.7953 162.482 34.5612Z" fill="#BD1A15"/>
<path d="M166.821 33.5575H167.102C167.251 33.5479 167.4 33.579 167.533 33.6474C167.575 33.6687 167.611 33.701 167.636 33.7409C167.662 33.7809 167.676 33.8271 167.678 33.8747C167.428 36.1946 167.303 37.3892 167.303 37.4586C167.303 37.6812 167.406 37.7948 167.608 37.7948C167.67 37.7937 167.732 37.7825 167.79 37.7616L167.898 37.7332C167.954 37.7332 167.977 37.7853 167.977 37.8847C167.967 38.0771 167.944 38.2685 167.907 38.4576C167.892 38.5433 167.856 38.6237 167.802 38.6915C167.748 38.7593 167.678 38.8124 167.598 38.8458C167.42 38.9379 167.223 38.985 167.023 38.9831C166.213 38.9831 165.806 38.5523 165.806 37.6906L166.189 33.9031C166.208 33.6727 166.419 33.5575 166.821 33.5575ZM167.196 32.7006H166.915C166.766 32.7108 166.617 32.6797 166.484 32.6106C166.443 32.5902 166.407 32.5587 166.382 32.5196C166.356 32.4804 166.341 32.435 166.339 32.3881L166.428 31.5501C166.452 31.3323 166.662 31.2234 167.065 31.2234H167.346C167.493 31.2145 167.641 31.2473 167.772 31.3181C167.814 31.3379 167.851 31.3691 167.877 31.4083C167.903 31.4475 167.919 31.4933 167.921 31.5406L167.828 32.3739C167.809 32.5917 167.598 32.7006 167.196 32.7006Z" fill="#BD1A15"/>
<path d="M172.579 38.9831C172.327 39.0212 172.071 38.9647 171.858 38.8242C171.644 38.6837 171.49 38.4691 171.423 38.2209C171.273 38.4489 171.075 38.6399 170.842 38.7796C170.609 38.9245 170.339 38.9999 170.065 38.9974C169.835 39.0069 169.607 38.9592 169.4 38.8585C169.192 38.7578 169.013 38.6071 168.876 38.4198C168.553 37.9405 168.396 37.3657 168.432 36.7864C168.395 35.9515 168.612 35.1253 169.054 34.4192C169.223 34.1393 169.46 33.9084 169.743 33.7491C170.026 33.5898 170.345 33.5074 170.669 33.5102C171.129 33.5203 171.567 33.7143 171.886 34.0499C171.913 33.9063 171.98 33.7734 172.078 33.6664C172.222 33.5916 172.384 33.5588 172.546 33.5717H172.668C173.056 33.5717 173.248 33.6569 173.248 33.8274L173.07 35.598C172.939 36.7816 172.878 37.4066 172.878 37.4918C172.878 37.7096 172.977 37.8185 173.178 37.8185C173.24 37.8182 173.302 37.807 173.36 37.7853L173.473 37.7569C173.524 37.7569 173.552 37.809 173.552 37.9084C173.542 38.1008 173.519 38.2922 173.482 38.4813C173.466 38.5673 173.429 38.6479 173.374 38.7157C173.319 38.7835 173.249 38.8364 173.169 38.8695C172.984 38.9557 172.782 38.9947 172.579 38.9831ZM170.618 37.7617C170.894 37.7617 171.156 37.5676 171.404 37.1746C171.485 36.253 171.532 35.7417 171.544 35.6407C171.544 35.5412 171.596 35.3187 171.666 34.9731C171.486 34.8013 171.249 34.7034 171.001 34.6985C170.834 34.6976 170.67 34.7459 170.53 34.8376C170.39 34.9292 170.278 35.0602 170.21 35.2146C170 35.6949 169.905 36.2191 169.934 36.7438C169.934 37.4255 170.164 37.7617 170.618 37.7617Z" fill="#BD1A15"/>
<path d="M178.612 34.6795C178.228 34.6795 178.037 34.8121 178.037 35.0867C178.037 35.2287 178.13 35.3518 178.317 35.4513C178.515 35.5579 178.721 35.6451 178.935 35.7116C179.175 35.7951 179.387 35.9443 179.548 36.1425C179.742 36.3803 179.842 36.6821 179.829 36.9899C179.844 37.2617 179.8 37.5335 179.702 37.7868C179.603 38.04 179.452 38.2688 179.258 38.4576C178.842 38.8198 178.304 39.0078 177.756 38.9831C177.505 38.9851 177.256 38.9581 177.011 38.9026C176.543 38.7937 176.305 38.6138 176.305 38.3629C176.305 37.7522 176.38 37.4492 176.529 37.4492C176.591 37.4733 176.651 37.5034 176.707 37.5391C176.992 37.704 177.315 37.792 177.643 37.7948C178.088 37.7948 178.308 37.6244 178.308 37.2835C178.309 37.2138 178.292 37.1452 178.259 37.0839C178.226 37.0226 178.179 36.9708 178.121 36.9331C177.984 36.8359 177.834 36.7594 177.676 36.7059C177.497 36.6427 177.322 36.5684 177.152 36.4834C176.961 36.3949 176.799 36.2538 176.684 36.0762C176.552 35.8693 176.487 35.6262 176.497 35.3802C176.478 35.1164 176.518 34.8515 176.614 34.6056C176.711 34.3597 176.861 34.1389 177.054 33.9599C177.459 33.6285 177.97 33.46 178.491 33.4865C178.831 33.4821 179.171 33.5317 179.497 33.6332C179.806 33.7327 179.965 33.8889 179.965 34.1067C179.944 34.2798 179.876 34.4436 179.768 34.5801C179.637 34.779 179.525 34.8831 179.431 34.8831C179.431 34.8831 179.328 34.8453 179.16 34.779C178.985 34.7117 178.799 34.678 178.612 34.6795Z" fill="#BD1A15"/>
<path d="M180.573 36.7532C180.543 35.964 180.74 35.1828 181.14 34.5044C181.352 34.1812 181.651 33.9252 182.001 33.7658C182.414 33.5773 182.863 33.4851 183.316 33.496C183.616 33.474 183.918 33.5153 184.201 33.6172C184.485 33.719 184.744 33.8793 184.964 34.0878C185.161 34.3145 185.311 34.5787 185.406 34.8648C185.5 35.1509 185.538 35.4533 185.516 35.7543C185.571 36.6185 185.309 37.4729 184.781 38.1546C184.528 38.4399 184.215 38.6641 183.865 38.8107C183.515 38.9574 183.137 39.0228 182.759 39.0021C182.464 39.0239 182.167 38.9849 181.887 38.8872C181.607 38.7895 181.35 38.6353 181.13 38.4339C180.931 38.206 180.778 37.9397 180.683 37.6509C180.587 37.3622 180.55 37.0569 180.573 36.7532ZM182.881 37.7948C183.051 37.7953 183.219 37.7472 183.364 37.6559C183.509 37.5647 183.625 37.4339 183.7 37.2787C183.923 36.8222 184.027 36.315 183.999 35.8063C183.999 35.063 183.737 34.689 183.213 34.689C183.041 34.6887 182.873 34.7362 182.726 34.8264C182.579 34.9166 182.459 35.046 182.38 35.2003C182.158 35.6608 182.057 36.1709 182.085 36.6822C182.076 37.4255 182.352 37.7948 182.881 37.7948Z" fill="#BD1A15"/>
<path d="M186.817 38.9263C186.428 38.9263 186.231 38.8411 186.231 38.6707L186.976 31.5691C186.976 31.3513 187.21 31.2424 187.612 31.2424H187.893C188.041 31.234 188.188 31.2667 188.319 31.3371C188.362 31.3568 188.398 31.388 188.425 31.4272C188.451 31.4665 188.466 31.5122 188.469 31.5596L188.193 34.0878C188.348 33.8999 188.543 33.75 188.763 33.6492C188.984 33.5483 189.224 33.4992 189.466 33.5054C189.709 33.4995 189.95 33.5487 190.172 33.6495C190.394 33.7502 190.591 33.9 190.748 34.0878C191.106 34.5522 191.283 35.1336 191.244 35.7211C191.283 36.5644 191.044 37.3968 190.566 38.0883C190.368 38.3726 190.105 38.6037 189.799 38.7614C189.493 38.919 189.154 38.9984 188.81 38.9926C188.351 38.988 187.911 38.799 187.589 38.4671C187.559 38.6078 187.491 38.7373 187.392 38.8411C187.248 38.9162 187.086 38.949 186.924 38.9358L186.817 38.9263ZM188.469 37.7948C188.656 37.7998 188.841 37.7548 189.005 37.6641C189.17 37.5735 189.308 37.4406 189.405 37.2788C189.652 36.8267 189.768 36.3127 189.737 35.7969C189.76 35.51 189.684 35.2239 189.522 34.9873C189.441 34.8977 189.342 34.8276 189.231 34.7825C189.12 34.7374 189 34.7184 188.881 34.7269C188.71 34.7464 188.546 34.8091 188.406 34.9092C188.265 35.0093 188.152 35.1436 188.076 35.2998L187.935 36.6349L187.813 37.5297C187.992 37.6971 188.225 37.7915 188.469 37.7948Z" fill="#BD1A15"/>
<path d="M192.373 34.5612V33.9883C192.373 33.8794 192.481 33.7942 192.705 33.7232C192.977 33.6503 193.258 33.6168 193.539 33.6238C193.578 33.6216 193.617 33.6295 193.652 33.6469C193.687 33.6644 193.717 33.6906 193.74 33.7232C193.784 33.7848 193.813 33.8562 193.824 33.9315C193.824 34.0025 193.847 34.1209 193.861 34.2866C193.976 34.0667 194.144 33.8799 194.349 33.744C194.555 33.6081 194.791 33.5276 195.036 33.5101C195.1 33.5016 195.164 33.5079 195.225 33.5287C195.286 33.5494 195.341 33.5841 195.386 33.6299C195.431 33.6756 195.466 33.7314 195.486 33.7927C195.507 33.8541 195.513 33.9194 195.504 33.9836C195.494 34.1921 195.443 34.3964 195.355 34.5849C195.261 34.8168 195.172 34.9305 195.102 34.9305C195.048 34.9228 194.996 34.9068 194.947 34.8831C194.863 34.8541 194.774 34.8397 194.685 34.8405C194.505 34.8411 194.328 34.8867 194.169 34.9735C194.011 35.0602 193.876 35.1853 193.777 35.3376L193.454 38.5996C193.436 38.8174 193.225 38.9263 192.822 38.9263H192.542C192.392 38.9347 192.243 38.9019 192.111 38.8316C192.069 38.8108 192.034 38.7792 192.009 38.7402C191.983 38.7011 191.968 38.6559 191.966 38.6091L192.307 35.2666C192.342 35.0328 192.363 34.7973 192.373 34.5612Z" fill="#BD1A15"/>
<path d="M197.522 37.577C197.721 37.7278 197.965 37.8047 198.214 37.7948C198.479 37.7973 198.743 37.759 198.996 37.6812C199.198 37.6228 199.395 37.5484 199.586 37.4587C199.667 37.4119 199.754 37.3739 199.843 37.345C199.899 37.345 199.923 37.3924 199.923 37.4871C199.923 37.5818 199.923 37.7333 199.895 37.9226C199.886 38.0405 199.869 38.1576 199.843 38.273C199.789 38.4127 199.7 38.5361 199.585 38.6314C199.471 38.7267 199.334 38.7907 199.188 38.8174C198.833 38.9286 198.464 38.9845 198.093 38.9831C197.771 39.0093 197.447 38.9709 197.141 38.8701C196.834 38.7694 196.55 38.6083 196.305 38.3961C196.101 38.1756 195.943 37.9153 195.842 37.6313C195.74 37.3472 195.697 37.0452 195.715 36.7438C195.715 35.6422 195.974 34.8247 196.492 34.2913C196.752 34.0268 197.063 33.8195 197.406 33.6826C197.75 33.5457 198.117 33.4822 198.486 33.496C198.821 33.4896 199.155 33.5408 199.473 33.6475C199.705 33.7246 199.913 33.8617 200.077 34.0451C200.305 34.3074 200.433 34.6431 200.438 34.992C200.457 35.2657 200.408 35.5399 200.293 35.7886C200.178 36.0373 200.002 36.252 199.782 36.4124C199.341 36.7259 198.814 36.8915 198.275 36.8858C197.924 36.8872 197.574 36.8634 197.227 36.8148C197.222 37.0983 197.328 37.3722 197.522 37.577ZM198.383 34.689C197.826 34.689 197.447 35.0678 197.297 35.83H197.765C198.089 35.858 198.415 35.7888 198.701 35.6312C198.784 35.5829 198.853 35.5141 198.902 35.4313C198.951 35.3484 198.979 35.2543 198.982 35.1577C198.987 34.8453 198.785 34.689 198.383 34.689Z" fill="#BD1A15"/>
<path d="M207.627 38.9831C207.375 39.0225 207.117 38.9665 206.903 38.8259C206.689 38.6854 206.533 38.47 206.466 38.2209C206.315 38.4487 206.115 38.6396 205.881 38.7796C205.646 38.9244 205.375 38.9998 205.099 38.9973C204.87 39.0045 204.642 38.9557 204.435 38.8552C204.228 38.7547 204.048 38.6053 203.911 38.4197C203.587 37.9405 203.43 37.3657 203.466 36.7864C203.428 35.9507 203.648 35.1239 204.093 34.4192C204.261 34.14 204.498 33.9096 204.78 33.7503C205.062 33.591 205.38 33.5083 205.703 33.5102C206.163 33.5203 206.601 33.7143 206.92 34.0499C206.949 33.9071 207.016 33.7747 207.112 33.6664C207.256 33.5916 207.418 33.5588 207.58 33.5717H207.702C208.09 33.5717 208.287 33.6569 208.287 33.8274L208.104 35.598C207.978 36.7816 207.912 37.4066 207.912 37.4918C207.912 37.7096 208.011 37.8185 208.212 37.8185C208.274 37.8182 208.336 37.807 208.395 37.7853L208.507 37.7569C208.558 37.7569 208.586 37.809 208.586 37.9084C208.576 38.1008 208.553 38.2922 208.516 38.4813C208.5 38.5673 208.463 38.6479 208.408 38.7157C208.353 38.7835 208.283 38.8364 208.203 38.8695C208.023 38.9547 207.825 38.9937 207.627 38.9831ZM205.661 37.7617C205.937 37.7617 206.199 37.5676 206.447 37.1746C206.529 36.253 206.575 35.7416 206.588 35.6406C206.588 35.5412 206.644 35.3187 206.71 34.9731C206.529 34.8013 206.292 34.7034 206.045 34.6985C205.878 34.6982 205.714 34.7468 205.574 34.8383C205.434 34.9299 205.322 35.0605 205.254 35.2146C205.043 35.6949 204.949 36.2191 204.978 36.7438C204.978 37.4255 205.207 37.7617 205.661 37.7617Z" fill="#BD1A15"/>
<path d="M208.984 33.8226C208.984 33.6475 209.2 33.5575 209.63 33.5575H209.953C210.281 33.5575 210.463 33.6285 210.496 33.7705L210.889 35.6643C210.913 35.7921 210.969 36.204 211.049 36.8953H211.095C211.273 36.294 211.409 35.8821 211.498 35.6643L212.294 33.7705C212.35 33.6285 212.546 33.5575 212.874 33.5575H213.117C213.506 33.5575 213.702 33.6285 213.702 33.7705C213.689 33.8362 213.672 33.901 213.651 33.9647L210.627 40.7869C210.566 40.929 210.37 41 210.042 41H209.869C209.481 41 209.289 40.9337 209.289 40.7964C209.293 40.7276 209.313 40.6608 209.349 40.6023L210.159 38.9026C209.376 35.5507 208.984 33.8573 208.984 33.8226Z" fill="#BD1A15"/>
<path d="M217.943 38.9831C217.683 39.0217 217.418 38.9591 217.202 38.808C216.986 38.6569 216.834 38.4285 216.778 38.1688C216.574 38.4075 216.328 38.6051 216.052 38.7511C215.781 38.9012 215.477 38.9809 215.168 38.9831C214.805 39.0149 214.444 38.9029 214.161 38.6707C214.045 38.5378 213.956 38.3825 213.901 38.214C213.845 38.0456 213.824 37.8676 213.838 37.6906C213.838 37.4097 213.932 36.4297 214.119 34.7506L214.208 33.8842C214.231 33.6664 214.442 33.5575 214.845 33.5575H215.125C215.273 33.5471 215.42 33.5783 215.551 33.6475C215.594 33.6684 215.631 33.7005 215.657 33.7405C215.683 33.7804 215.698 33.8268 215.701 33.8747C215.473 36.0336 215.36 37.1572 215.36 37.2456C215.355 37.3124 215.364 37.3795 215.389 37.4418C215.413 37.5042 215.451 37.5602 215.499 37.6057C215.548 37.6512 215.606 37.6851 215.669 37.7047C215.733 37.7243 215.8 37.7292 215.865 37.719C216.049 37.7096 216.227 37.6546 216.385 37.5588C216.542 37.463 216.674 37.3294 216.768 37.1699L217.11 33.8558C217.129 33.638 217.339 33.5291 217.742 33.5291H218.027C218.175 33.5194 218.322 33.5505 218.453 33.619C218.496 33.6403 218.531 33.6726 218.557 33.7125C218.582 33.7525 218.597 33.7987 218.599 33.8463C218.352 36.1662 218.229 37.3608 218.229 37.4302C218.229 37.6528 218.327 37.7664 218.528 37.7664C218.591 37.7657 218.652 37.7545 218.711 37.7332L218.818 37.7048C218.875 37.7048 218.903 37.7569 218.903 37.8563C218.893 38.0487 218.869 38.2401 218.833 38.4292C218.816 38.5152 218.779 38.5958 218.724 38.6636C218.67 38.7314 218.599 38.7843 218.519 38.8174C218.343 38.9194 218.146 38.9763 217.943 38.9831Z" fill="#BD1A15"/>
<path d="M224.145 34.7884L223.896 37.4586C223.896 37.6812 223.995 37.7948 224.196 37.7948C224.258 37.7941 224.32 37.7829 224.379 37.7616L224.491 37.7332C224.542 37.7332 224.57 37.7853 224.57 37.8847C224.56 38.0771 224.537 38.2685 224.5 38.4576C224.484 38.5436 224.447 38.6242 224.392 38.692C224.337 38.7598 224.267 38.8127 224.187 38.8458C224.009 38.9379 223.811 38.985 223.611 38.9831C222.801 38.9831 222.394 38.5523 222.394 37.6906L222.628 35.2477C222.634 35.1778 222.625 35.1074 222.6 35.0416C222.576 34.9758 222.538 34.9163 222.488 34.8674C222.438 34.8185 222.379 34.7813 222.313 34.7587C222.247 34.736 222.177 34.7284 222.108 34.7364C221.916 34.7506 221.73 34.8158 221.57 34.9255C221.409 35.0351 221.28 35.1854 221.196 35.3613L220.873 38.5996C220.854 38.8174 220.643 38.9263 220.241 38.9263H219.96C219.807 38.9343 219.654 38.8982 219.52 38.8222C219.478 38.8022 219.442 38.7708 219.417 38.7315C219.391 38.6923 219.377 38.6466 219.375 38.5996L219.717 35.2571C219.743 35.0182 219.757 34.778 219.759 34.5375V33.9646C219.759 33.8558 219.871 33.7705 220.091 33.6995C220.364 33.6322 220.644 33.6035 220.924 33.6143C220.978 33.6095 221.032 33.6232 221.077 33.6533C221.122 33.6834 221.156 33.7281 221.172 33.78C221.216 33.952 221.241 34.1282 221.247 34.3055C221.44 34.0719 221.677 33.8802 221.945 33.7421C222.213 33.5878 222.516 33.5048 222.825 33.5007C223.705 33.4959 224.145 33.9268 224.145 34.7884Z" fill="#BD1A15"/>
<path d="M225.422 34.7695C225.249 34.7695 225.165 34.6464 225.165 34.405C225.165 33.851 225.291 33.5764 225.544 33.5764H225.745L225.848 32.6296C225.867 32.4118 226.078 32.3029 226.48 32.3029H226.766C226.913 32.2955 227.06 32.3265 227.192 32.3928C227.234 32.4141 227.27 32.4464 227.295 32.4863C227.321 32.5263 227.335 32.5725 227.337 32.6201L227.239 33.5954H227.833C227.899 33.5954 227.941 33.5954 227.959 33.6427C227.991 33.7288 228.003 33.8213 227.992 33.9126C227.981 34.1049 227.928 34.2923 227.838 34.4618C227.808 34.5544 227.75 34.6355 227.673 34.694C227.596 34.7525 227.503 34.7854 227.407 34.7885H227.117C226.93 36.5591 226.836 37.4587 226.836 37.4776C226.836 37.7001 226.934 37.8137 227.136 37.8137C227.218 37.8136 227.3 37.8024 227.379 37.7806L227.519 37.7522C227.571 37.7522 227.599 37.8043 227.599 37.9037C227.589 38.0961 227.565 38.2875 227.529 38.4766C227.513 38.5626 227.475 38.6431 227.421 38.7109C227.366 38.7787 227.295 38.8316 227.215 38.8648C227.039 38.9574 226.843 39.0045 226.644 39.0021C225.769 39.0021 225.334 38.5286 225.334 37.648L225.628 34.8074L225.422 34.7695Z" fill="#BD1A15"/>
<path d="M232.626 38.9831C232.375 39.0212 232.118 38.9647 231.905 38.8242C231.692 38.6837 231.537 38.4691 231.47 38.2209C231.318 38.45 231.116 38.641 230.88 38.7796C230.645 38.9251 230.374 39.0006 230.099 38.9973C229.864 39.0117 229.63 38.9663 229.417 38.8654C229.205 38.7645 229.021 38.6113 228.882 38.4197C228.548 37.9444 228.383 37.3687 228.414 36.7864C228.375 35.9512 228.592 35.1244 229.036 34.4192C229.204 34.14 229.441 33.9096 229.723 33.7503C230.005 33.591 230.323 33.5083 230.646 33.5102C231.108 33.5201 231.547 33.714 231.868 34.0499C231.895 33.9063 231.961 33.7734 232.06 33.6664C232.204 33.5916 232.366 33.5588 232.528 33.5717H232.645C233.038 33.5717 233.23 33.6569 233.23 33.8274L233.094 35.5933C232.968 36.7769 232.902 37.4019 232.902 37.4871C232.902 37.7049 233.005 37.8137 233.207 37.8137C233.269 37.8127 233.33 37.8015 233.389 37.7806L233.497 37.7522C233.553 37.7522 233.581 37.8043 233.581 37.9037C233.571 38.0961 233.547 38.2875 233.511 38.4766C233.495 38.5626 233.457 38.6431 233.403 38.7109C233.348 38.7787 233.277 38.8316 233.197 38.8648C233.019 38.9496 232.823 38.9901 232.626 38.9831ZM230.665 37.7617C230.941 37.7617 231.203 37.5676 231.451 37.1746C231.532 36.253 231.579 35.7416 231.592 35.6406C231.592 35.5412 231.643 35.3187 231.713 34.9731C231.533 34.8013 231.296 34.7034 231.049 34.6985C230.882 34.697 230.717 34.7451 230.577 34.8368C230.436 34.9285 230.325 35.0598 230.258 35.2146C230.045 35.6942 229.95 36.2189 229.982 36.7438C229.968 37.4255 230.192 37.7617 230.651 37.7617H230.665Z" fill="#BD1A15"/>
<path d="M234.367 34.5612L234.344 33.9883C234.344 33.8794 234.456 33.7942 234.676 33.7232C234.949 33.6506 235.231 33.6172 235.514 33.6238C235.668 33.6238 235.762 33.7327 235.804 33.9505C235.821 34.065 235.832 34.1804 235.837 34.2961C236.028 34.0641 236.264 33.874 236.53 33.7374C236.796 33.592 237.093 33.514 237.396 33.5102C238.093 33.5102 238.514 33.7706 238.664 34.2961C238.858 34.0639 239.099 33.8766 239.371 33.7469C239.649 33.5958 239.959 33.5146 240.274 33.5102C241.159 33.5102 241.603 33.941 241.603 34.8027L241.351 37.4729C241.351 37.6954 241.454 37.809 241.655 37.809C241.716 37.8083 241.776 37.7971 241.833 37.7759L241.945 37.7475C242.001 37.7475 242.025 37.7995 242.025 37.899C242.015 38.0913 241.991 38.2828 241.954 38.4718C241.939 38.5575 241.903 38.6379 241.849 38.7057C241.795 38.7736 241.725 38.8266 241.646 38.86C241.467 38.9521 241.27 38.9992 241.07 38.9973C240.26 38.9973 239.853 38.5665 239.853 37.7049L240.082 35.2619C240.088 35.1933 240.079 35.1243 240.055 35.0596C240.032 34.995 239.995 34.9363 239.947 34.8876C239.899 34.8389 239.841 34.8014 239.777 34.7778C239.713 34.7541 239.645 34.7448 239.577 34.7506C239.39 34.7622 239.209 34.8217 239.051 34.9236C238.893 35.0254 238.763 35.1663 238.673 35.3329L238.36 38.6139C238.341 38.8316 238.13 38.9405 237.728 38.9405H237.447C237.298 38.9489 237.149 38.9162 237.016 38.8458C236.974 38.8258 236.939 38.7945 236.913 38.7552C236.887 38.716 236.873 38.6703 236.871 38.6233C237.093 36.4487 237.204 35.3282 237.204 35.2619C237.209 35.1929 237.2 35.1234 237.177 35.0584C237.153 34.9934 237.115 34.9344 237.067 34.8856C237.018 34.8369 236.959 34.7995 236.895 34.7762C236.83 34.7528 236.762 34.7441 236.693 34.7506C236.506 34.7639 236.326 34.8252 236.168 34.9288C236.011 35.0323 235.883 35.1747 235.795 35.3424L235.472 38.6139C235.453 38.8316 235.242 38.9405 234.84 38.9405H234.554C234.407 38.949 234.259 38.9162 234.128 38.8458C234.086 38.8258 234.051 38.7945 234.025 38.7552C233.999 38.716 233.985 38.6703 233.983 38.6233L234.325 35.2808C234.352 35.0419 234.366 34.8017 234.367 34.5612Z" fill="#BD1A15"/>
<path d="M243.546 33.5575H243.827C243.976 33.5472 244.125 33.5783 244.257 33.6474C244.3 33.6687 244.335 33.701 244.361 33.7409C244.386 33.7809 244.401 33.8271 244.403 33.8747C244.156 36.1946 244.031 37.3892 244.028 37.4586C244.028 37.6812 244.131 37.7948 244.332 37.7948C244.395 37.7937 244.456 37.7825 244.515 37.7616L244.623 37.7332C244.679 37.7332 244.707 37.7853 244.707 37.8847C244.694 38.0771 244.669 38.2685 244.632 38.4576C244.617 38.5433 244.58 38.6237 244.526 38.6915C244.472 38.7593 244.402 38.8124 244.323 38.8458C244.145 38.9379 243.947 38.985 243.747 38.9831C242.938 38.9831 242.53 38.5523 242.53 37.6906L242.914 33.9031C242.92 33.6727 243.131 33.5575 243.546 33.5575ZM243.92 32.7006H243.64C243.491 32.7108 243.342 32.6797 243.209 32.6106C243.167 32.5902 243.132 32.5587 243.106 32.5196C243.081 32.4804 243.066 32.435 243.064 32.3881L243.153 31.5501C243.153 31.3323 243.387 31.2234 243.789 31.2234H244.07C244.218 31.2145 244.366 31.2473 244.496 31.3181C244.539 31.3379 244.575 31.3691 244.602 31.4083C244.628 31.4475 244.643 31.4933 244.646 31.5406L244.552 32.3739C244.534 32.5917 244.323 32.7006 243.92 32.7006Z" fill="#BD1A15"/>
<path d="M247.047 37.577C247.245 37.7271 247.488 37.804 247.735 37.7948C248.002 37.7969 248.267 37.7586 248.522 37.6812C248.723 37.6212 248.92 37.5468 249.111 37.4587C249.192 37.4125 249.276 37.3744 249.364 37.345C249.42 37.345 249.448 37.3924 249.448 37.4871C249.446 37.6328 249.435 37.7782 249.416 37.9226C249.407 38.0405 249.39 38.1576 249.364 38.273C249.311 38.4132 249.224 38.5374 249.11 38.6336C248.996 38.7297 248.86 38.7947 248.714 38.8222C248.357 38.933 247.986 38.9889 247.614 38.9879C247.292 39.014 246.969 38.9756 246.662 38.8749C246.355 38.7741 246.071 38.613 245.826 38.4008C245.626 38.1776 245.473 37.9155 245.376 37.6307C245.28 37.3458 245.242 37.0441 245.264 36.7438C245.264 35.6422 245.521 34.8247 246.036 34.2913C246.297 34.0274 246.608 33.8206 246.951 33.6838C247.295 33.547 247.662 33.483 248.03 33.496C248.366 33.4892 248.7 33.5404 249.018 33.6475C249.251 33.7226 249.459 33.86 249.622 34.0452C249.853 34.3051 249.981 34.6423 249.982 34.992C250.003 35.2659 249.954 35.5406 249.839 35.7895C249.725 36.0384 249.548 36.253 249.327 36.4124C248.886 36.7265 248.359 36.8921 247.82 36.8858C247.469 36.8872 247.119 36.8634 246.771 36.8148C246.761 37.0956 246.86 37.3692 247.047 37.577ZM247.909 34.689C247.347 34.689 246.972 35.0678 246.818 35.83H247.286C247.611 35.858 247.936 35.7888 248.222 35.6312C248.306 35.5839 248.376 35.5154 248.427 35.4325C248.477 35.3495 248.504 35.2549 248.508 35.1577C248.512 34.8453 248.311 34.689 247.909 34.689Z" fill="#BD1A15"/>
<path d="M255.318 34.7885L255.065 37.4587C255.065 37.6812 255.163 37.7948 255.364 37.7948C255.427 37.7945 255.488 37.7833 255.547 37.7617L255.659 37.7333C255.711 37.7333 255.739 37.7853 255.739 37.8848C255.729 38.0771 255.705 38.2686 255.669 38.4576C255.652 38.5436 255.615 38.6242 255.561 38.692C255.506 38.7598 255.435 38.8127 255.355 38.8459C255.179 38.9379 254.983 38.985 254.784 38.9832C253.97 38.9832 253.562 38.5523 253.562 37.6907L253.796 35.2477C253.802 35.1778 253.793 35.1074 253.769 35.0416C253.745 34.9759 253.706 34.9164 253.656 34.8674C253.607 34.8185 253.547 34.7813 253.481 34.7587C253.416 34.736 253.346 34.7284 253.277 34.7364C253.08 34.7465 252.889 34.8098 252.725 34.9197C252.56 35.0296 252.427 35.1821 252.341 35.3613L252.022 38.5997C252.022 38.8174 251.788 38.9263 251.386 38.9263H251.105C250.956 38.9347 250.807 38.902 250.674 38.8317C250.633 38.8108 250.598 38.7793 250.572 38.7402C250.547 38.7011 250.532 38.6559 250.529 38.6091L250.871 35.2666C250.898 35.0277 250.912 34.7875 250.913 34.547V33.9741C250.913 33.8653 251.021 33.78 251.245 33.709C251.517 33.6361 251.798 33.6026 252.079 33.6096C252.132 33.6048 252.186 33.6185 252.231 33.6486C252.276 33.6787 252.31 33.7234 252.327 33.7753C252.372 33.9468 252.397 34.1233 252.402 34.3008C252.595 34.0661 252.834 33.8743 253.104 33.7374C253.372 33.5826 253.675 33.4995 253.984 33.496C254.873 33.496 255.318 33.9268 255.318 34.7885Z" fill="#BD1A15"/>
<path d="M256.596 34.7695C256.418 34.7695 256.334 34.6464 256.334 34.405C256.334 33.851 256.46 33.5764 256.713 33.5764H256.919L257.017 32.6296C257.017 32.4118 257.247 32.3029 257.654 32.3029H257.935C258.082 32.2955 258.229 32.3265 258.361 32.3928C258.403 32.4141 258.439 32.4464 258.464 32.4863C258.49 32.5263 258.504 32.5725 258.506 32.6201L258.407 33.5954H259.002C259.026 33.592 259.05 33.5945 259.073 33.6027C259.096 33.611 259.117 33.6247 259.133 33.6427C259.16 33.7299 259.169 33.8216 259.161 33.9126C259.15 34.1049 259.097 34.2923 259.007 34.4618C258.977 34.5544 258.919 34.6355 258.842 34.694C258.765 34.7525 258.672 34.7854 258.576 34.7885H258.286C258.099 36.5591 258.005 37.4587 258.005 37.4776C258.005 37.7001 258.103 37.8137 258.305 37.8137C258.387 37.8136 258.469 37.8024 258.548 37.7806L258.688 37.7522C258.744 37.7522 258.768 37.8043 258.768 37.9037C258.758 38.0961 258.734 38.2875 258.698 38.4766C258.682 38.5622 258.646 38.6427 258.592 38.7105C258.538 38.7783 258.468 38.8313 258.389 38.8648C258.211 38.9568 258.013 39.0039 257.813 39.0021C256.942 39.0021 256.502 38.5286 256.502 37.648L256.797 34.8074L256.596 34.7695Z" fill="#BD1A15"/>
<path d="M259.713 36.7532C259.688 35.9621 259.891 35.1807 260.298 34.5044C260.517 34.1796 260.822 33.9237 261.178 33.7658C261.591 33.5773 262.04 33.4851 262.493 33.4959C262.787 33.4793 263.081 33.5231 263.358 33.6249C263.635 33.7266 263.888 33.8841 264.103 34.0877C264.301 34.3141 264.452 34.5781 264.548 34.8643C264.643 35.1504 264.682 35.453 264.66 35.7543C264.713 36.6182 264.451 37.4718 263.925 38.1546C263.671 38.4397 263.358 38.6637 263.007 38.8103C262.656 38.957 262.278 39.0225 261.899 39.0021C261.603 39.0236 261.307 38.9844 261.027 38.8868C260.747 38.7891 260.489 38.6351 260.27 38.4339C260.07 38.206 259.918 37.9397 259.822 37.6509C259.727 37.3621 259.689 37.0568 259.713 36.7532ZM262.02 37.7948C262.191 37.7959 262.359 37.748 262.504 37.6567C262.649 37.5653 262.765 37.4343 262.84 37.2787C263.065 36.823 263.169 36.3152 263.139 35.8063C263.139 35.063 262.877 34.689 262.353 34.689C262.182 34.6895 262.014 34.7374 261.868 34.8276C261.722 34.9177 261.603 35.0467 261.524 35.2003C261.299 35.6595 261.195 36.1703 261.225 36.6822C261.225 37.4255 261.492 37.7948 262.02 37.7948Z" fill="#BD1A15"/>
<path d="M267.637 34.6795C267.258 34.6795 267.066 34.8121 267.066 35.0867C267.066 35.2287 267.16 35.3518 267.347 35.4513C267.543 35.5579 267.748 35.6451 267.96 35.7116C268.2 35.7951 268.413 35.9443 268.574 36.1425C268.767 36.3803 268.867 36.6821 268.854 36.9899C268.869 37.2617 268.826 37.5335 268.727 37.7868C268.629 38.04 268.477 38.2688 268.283 38.4576C267.871 38.8164 267.339 39.0041 266.795 38.9831C266.545 38.9851 266.295 38.9581 266.051 38.9026C265.583 38.7922 265.349 38.6123 265.349 38.3629C265.349 37.7522 265.419 37.4492 265.569 37.4492C265.633 37.4716 265.694 37.5018 265.751 37.5391C266.036 37.704 266.359 37.792 266.687 37.7948C267.127 37.7948 267.352 37.6244 267.352 37.2835C267.352 37.214 267.335 37.1456 267.302 37.0845C267.269 37.0234 267.222 36.9714 267.165 36.9331C267.02 36.8353 266.863 36.7587 266.697 36.7059C266.518 36.6418 266.343 36.5675 266.172 36.4834C265.982 36.3937 265.82 36.2528 265.704 36.0762C265.576 35.8678 265.513 35.6254 265.522 35.3802C265.502 35.1167 265.541 34.852 265.637 34.606C265.733 34.3601 265.882 34.1392 266.074 33.9599C266.481 33.6286 266.994 33.4601 267.516 33.4865C267.857 33.4827 268.196 33.5322 268.522 33.6332C268.831 33.7327 268.99 33.8889 268.99 34.1067C268.969 34.2798 268.901 34.4436 268.794 34.5801C268.663 34.779 268.55 34.8831 268.457 34.8831C268.364 34.8531 268.274 34.8184 268.185 34.779C268.01 34.7123 267.824 34.6786 267.637 34.6795Z" fill="#BD1A15"/>
</g>
<defs>
<linearGradient id="paint0_linear_9_3425" x1="19.2601" y1="0.866394" x2="19.2601" y2="39.4803" gradientUnits="userSpaceOnUse">
<stop stop-color="white"/>
<stop offset="0.6" stop-color="#B92315"/>
</linearGradient>
<linearGradient id="paint1_linear_9_3425" x1="220.078" y1="19.4774" x2="220.078" y2="30.5795" gradientUnits="userSpaceOnUse">
<stop stop-color="white"/>
<stop offset="0.6" stop-color="#B92315"/>
</linearGradient>
<clipPath id="clip0_9_3425">
<rect width="269" height="41" fill="white"/>
</clipPath>
</defs>
</svg>
