<svg width="341" height="51" viewBox="0 0 341 51" fill="none" xmlns="http://www.w3.org/2000/svg">
<g clip-path="url(#clip0_9_3754)">
<path d="M67.9268 25.9127C66.9852 26.657 65.95 27.2766 64.8474 27.756C63.7857 28.1678 62.6525 28.368 61.5128 28.3449C60.4841 28.3661 59.4657 28.1377 58.5461 27.6794C57.7368 27.2859 57.056 26.6735 56.5821 25.9127C56.1247 25.1765 55.8842 24.3278 55.8879 23.4628C55.8616 22.3389 56.2691 21.2475 57.0271 20.4122C57.8649 19.532 58.9651 18.9416 60.1659 18.7279C60.4389 18.6631 61.1331 18.5218 62.2367 18.298C63.3403 18.0742 64.2837 17.8681 65.0729 17.7091C65.862 17.5501 66.7105 17.2969 67.6361 17.0318C67.6579 16.1397 67.4144 15.261 66.936 14.5054C66.5206 13.9636 65.6721 13.6986 64.3727 13.6986C63.5084 13.6471 62.6446 13.8068 61.8569 14.1638C61.2654 14.4957 60.7691 14.9721 60.4151 15.5478C60.152 15.9687 59.8668 16.3756 59.5607 16.7668C59.4128 16.8864 59.2415 16.9743 59.0577 17.0249C58.8739 17.0756 58.6816 17.088 58.4927 17.0613C58.0224 17.0719 57.5659 16.9033 57.217 16.5902C57.0452 16.4454 56.9077 16.2647 56.8144 16.0611C56.7211 15.8575 56.6742 15.636 56.6771 15.4123C56.6839 14.5828 56.9724 13.7799 57.4959 13.1332C58.1711 12.325 59.0551 11.7143 60.0532 11.3665C61.4336 10.8565 62.9004 10.6166 64.3727 10.6598C65.9177 10.599 67.4602 10.8308 68.9177 11.3429C69.9475 11.7273 70.7846 12.4969 71.2496 13.4866C71.7567 14.7204 71.9914 16.0478 71.9378 17.3793C71.9378 18.3981 71.9378 19.2638 71.9378 19.9764C71.9378 20.689 71.9378 21.484 71.9378 22.3321C71.948 23.2017 72.0879 24.065 72.3532 24.8939C72.5523 25.4482 72.6876 26.0231 72.7567 26.6076C72.7495 26.8444 72.6894 27.0766 72.5806 27.2875C72.4718 27.4983 72.3171 27.6825 72.1277 27.8266C71.7342 28.1799 71.2224 28.3751 70.6918 28.3743C70.1806 28.3467 69.701 28.1203 69.3568 27.7442C68.8153 27.1974 68.3466 26.5838 67.9624 25.9186L67.9268 25.9127ZM67.642 19.6231C66.724 19.9315 65.7865 20.1794 64.8355 20.3651C63.6073 20.6242 62.7588 20.8186 62.2901 20.954C61.7898 21.0879 61.327 21.3336 60.9373 21.6725C60.723 21.8545 60.5537 22.083 60.4426 22.3404C60.3315 22.5977 60.2815 22.877 60.2965 23.1566C60.2931 23.4759 60.3592 23.7922 60.4903 24.0839C60.6214 24.3756 60.8143 24.6358 61.0559 24.8467C61.5985 25.3199 62.3043 25.5668 63.0258 25.5358C63.8631 25.5358 64.6878 25.3337 65.4289 24.9469C66.0991 24.6303 66.662 24.1269 67.0487 23.4981C67.516 22.4804 67.7199 21.363 67.642 20.2473V19.6231ZM80.0014 28.922L80.4048 27.9503L75.0114 14.4583C74.7445 13.9291 74.5756 13.3566 74.5129 12.7681C74.5111 12.4007 74.6117 12.0399 74.8037 11.7257C74.9979 11.4113 75.2687 11.1504 75.5912 10.9672C75.9137 10.784 76.2775 10.6844 76.649 10.6775C76.9162 10.6579 77.1844 10.701 77.4318 10.8033C77.6791 10.9056 77.8988 11.0643 78.073 11.2664C78.4579 11.7855 78.7435 12.3704 78.9156 12.9919L82.6299 23.7042L86.1425 13.7398C86.3567 13.093 86.6103 12.4598 86.9019 11.8435C87.0512 11.4774 87.2972 11.158 87.614 10.9189C87.9402 10.7407 88.3102 10.6571 88.682 10.6775C89.0217 10.6782 89.3552 10.7686 89.6481 10.9393C89.9411 11.1101 90.1831 11.355 90.3493 11.6492C90.5131 11.9366 90.5989 12.2612 90.5985 12.5914L90.3908 13.4512C90.2909 13.8344 90.1701 14.2119 90.0289 14.582L84.3209 29.4462C83.942 30.5149 83.4591 31.5445 82.8791 32.5203C82.4232 33.2505 81.7748 33.8431 81.0041 34.234C80.0173 34.6735 78.9397 34.8753 77.8594 34.823C76.8785 34.8714 75.8973 34.7314 74.9698 34.4107C74.6678 34.2928 74.4113 34.0826 74.2375 33.8106C74.0636 33.5385 73.9814 33.2187 74.0027 32.8972C73.9868 32.6791 74.0202 32.4602 74.1002 32.2565C74.1803 32.0527 74.305 31.8693 74.4655 31.7194C74.8524 31.4271 75.3333 31.2847 75.8183 31.3189C76.0526 31.3185 76.2859 31.3482 76.5125 31.4072C76.7493 31.4673 76.9921 31.5008 77.2364 31.5074C77.6441 31.5254 78.0504 31.4488 78.4231 31.2836C78.7487 31.1023 79.0177 30.8353 79.2004 30.5121C79.5072 29.9935 79.773 29.452 79.9954 28.8926L80.0014 28.922ZM105.171 25.9127V25.3532C104.688 25.9705 104.132 26.5281 103.516 27.0139C102.95 27.4558 102.309 27.793 101.623 28.0092C100.854 28.2421 100.053 28.3534 99.2494 28.339C98.2681 28.3487 97.299 28.1224 96.4251 27.6794C95.6223 27.281 94.9466 26.6694 94.473 25.9127C93.8603 24.6753 93.5784 23.3024 93.6542 21.9257V13.2805C93.6002 12.5782 93.8117 11.8811 94.2475 11.3253C94.4481 11.1109 94.693 10.942 94.9654 10.8302C95.2378 10.7184 95.5313 10.6663 95.8258 10.6775C96.1254 10.6659 96.4239 10.7182 96.7013 10.831C96.9787 10.9438 97.2285 11.1143 97.4338 11.3311C97.8718 11.8836 98.0837 12.5797 98.0271 13.2805V20.2473C98.0097 21.1005 98.0954 21.9526 98.2823 22.7855C98.4153 23.4041 98.7363 23.9673 99.2019 24.3992C99.712 24.8091 100.356 25.0187 101.012 24.9881C101.756 24.9885 102.483 24.7624 103.094 24.3403C103.733 23.9222 104.232 23.3259 104.53 22.6265C104.775 22.0141 104.896 20.6654 104.892 18.5807V13.2805C104.836 12.5797 105.047 11.8836 105.485 11.3311C105.688 11.1154 105.934 10.9453 106.209 10.8326C106.483 10.7198 106.779 10.6669 107.076 10.6775C107.37 10.6655 107.664 10.7172 107.937 10.8291C108.209 10.9409 108.454 11.1102 108.654 11.3253C109.092 11.8798 109.304 12.5779 109.247 13.2805V25.9127C109.291 26.5866 109.079 27.2524 108.654 27.7795C108.462 27.9795 108.231 28.1382 107.974 28.2457C107.718 28.3533 107.442 28.4073 107.164 28.4046C106.886 28.4018 106.611 28.3423 106.357 28.2297C106.103 28.1171 105.875 27.9538 105.687 27.7501C105.266 27.2435 105.054 26.5975 105.094 25.9421L105.171 25.9127ZM117.631 13.0743V13.6044C118.299 12.6869 119.162 11.9269 120.159 11.3783C121.14 10.8926 122.225 10.6502 123.321 10.6716C124.402 10.6516 125.47 10.9114 126.419 11.4254C127.309 11.8999 128.026 12.642 128.466 13.5455C128.763 14.0819 128.964 14.6659 129.059 15.271C129.152 16.0527 129.193 16.8396 129.184 17.6266V25.7301C129.24 26.4381 129.028 27.1414 128.59 27.703C128.391 27.9297 128.141 28.108 127.862 28.2244C127.582 28.3408 127.279 28.3921 126.976 28.3743C126.677 28.3813 126.38 28.3226 126.106 28.2025C125.832 28.0824 125.588 27.9038 125.392 27.6794C124.96 27.1194 124.749 26.422 124.799 25.7183V18.4747C124.86 17.3447 124.657 16.216 124.205 15.1768C123.802 14.4229 123.019 14.0402 121.832 14.0402C121.064 14.035 120.314 14.2768 119.696 14.7292C119.039 15.2086 118.546 15.8767 118.284 16.6432C118.014 17.8347 117.906 19.0568 117.963 20.2768V25.7301C118.025 26.4405 117.813 27.1477 117.37 27.7089C117.16 27.9366 116.901 28.1147 116.613 28.2299C116.324 28.345 116.013 28.3944 115.703 28.3743C115.406 28.3811 115.112 28.3223 114.841 28.2021C114.57 28.0819 114.329 27.9034 114.136 27.6794C113.704 27.1194 113.493 26.422 113.543 25.7183V13.1509C113.491 12.4845 113.688 11.8224 114.095 11.2899C114.285 11.0896 114.516 10.933 114.774 10.8312C115.031 10.7295 115.308 10.685 115.584 10.701C115.952 10.6984 116.314 10.7919 116.634 10.9719C116.946 11.1692 117.197 11.4485 117.358 11.7787C117.556 12.19 117.652 12.6424 117.637 13.0979L117.631 13.0743ZM133.758 11.0602H134.239V8.44547C134.239 7.74466 134.239 7.19697 134.298 6.7965C134.323 6.43648 134.429 6.08649 134.607 5.77179C134.786 5.46897 135.042 5.21741 135.348 5.04154C135.677 4.8541 136.05 4.75844 136.428 4.76475C136.992 4.76933 137.533 4.99102 137.935 5.38311C138.239 5.64744 138.448 6.00318 138.529 6.39604C138.625 6.95812 138.667 7.52804 138.653 8.09801V11.0426H140.261C140.772 11.0089 141.277 11.1642 141.679 11.4784C141.84 11.6184 141.967 11.7919 142.052 11.9863C142.137 12.1807 142.178 12.3913 142.172 12.6032C142.191 12.8541 142.134 13.1049 142.01 13.324C141.885 13.5431 141.698 13.7206 141.472 13.834C140.837 14.0964 140.152 14.2151 139.466 14.1815H138.653V22.2025C138.642 22.7276 138.666 23.2529 138.725 23.7749C138.755 24.1049 138.888 24.4175 139.104 24.6701C139.242 24.7944 139.405 24.8889 139.581 24.9477C139.758 25.0065 139.945 25.0283 140.131 25.0116C140.483 25.0019 140.832 24.9565 141.175 24.8762C141.512 24.7968 141.856 24.7514 142.201 24.7407C142.381 24.7429 142.559 24.7816 142.723 24.8545C142.888 24.9275 143.035 25.033 143.157 25.1647C143.298 25.2993 143.409 25.4614 143.484 25.6408C143.558 25.8202 143.594 26.0131 143.59 26.2071C143.583 26.5638 143.465 26.9097 143.253 27.1975C143.041 27.4852 142.744 27.7009 142.403 27.8149C141.351 28.252 140.214 28.4531 139.075 28.4038C137.99 28.4573 136.913 28.2062 135.965 27.6794C135.275 27.244 134.779 26.5637 134.577 25.7772C134.329 24.7179 134.217 23.6314 134.245 22.5441V14.2051H133.651C133.129 14.2423 132.612 14.0825 132.204 13.7575C132.043 13.6163 131.915 13.442 131.829 13.2467C131.743 13.0514 131.701 12.8399 131.705 12.6268C131.701 12.4122 131.745 12.1995 131.836 12.0046C131.926 11.8097 132.06 11.6378 132.227 11.5019C132.667 11.1846 133.204 11.0304 133.746 11.0661L133.758 11.0602ZM156.258 25.9127C155.316 26.657 154.281 27.2766 153.178 27.756C152.117 28.1678 150.983 28.368 149.844 28.3449C148.815 28.3661 147.797 28.1377 146.877 27.6794C146.068 27.2859 145.387 26.6735 144.913 25.9127C144.456 25.1765 144.215 24.3278 144.219 23.4628C144.195 22.339 144.607 21.2492 145.37 20.4181C146.205 19.5379 147.304 18.9475 148.503 18.7338C148.776 18.669 149.47 18.5277 150.574 18.3039C151.677 18.0801 152.621 17.874 153.41 17.715C154.199 17.556 155.047 17.3027 155.973 17.0377C155.995 16.1456 155.751 15.2668 155.273 14.5113C154.857 13.9695 154.009 13.7045 152.71 13.7045C151.847 13.6522 150.985 13.812 150.2 14.1697C149.605 14.4995 149.106 14.9762 148.752 15.5537C148.489 15.9745 148.204 16.3814 147.898 16.7727C147.75 16.8923 147.578 16.9802 147.395 17.0308C147.211 17.0815 147.018 17.0939 146.83 17.0672C146.359 17.0778 145.903 16.9092 145.554 16.596C145.382 16.4513 145.245 16.2706 145.151 16.067C145.058 15.8634 145.011 15.6419 145.014 15.4182C145.031 14.6049 145.319 13.8202 145.833 13.1862C146.508 12.378 147.392 11.7673 148.39 11.4195C149.77 10.9095 151.237 10.6696 152.71 10.7128C154.244 10.6316 155.78 10.8394 157.237 11.3253C158.281 11.7033 159.133 12.4731 159.61 13.4689C160.112 14.704 160.345 16.0308 160.293 17.3616C160.293 18.3805 160.293 19.2462 160.293 19.9587C160.293 20.6713 160.293 21.4664 160.293 22.3144C160.3 23.1837 160.438 24.0471 160.702 24.8762C160.901 25.4305 161.036 26.0054 161.105 26.5899C161.098 26.8267 161.038 27.059 160.929 27.2698C160.821 27.4807 160.666 27.6648 160.476 27.809C160.083 28.1622 159.571 28.3574 159.041 28.3567C158.529 28.3291 158.05 28.1027 157.706 27.7265C157.164 27.1797 156.695 26.5661 156.311 25.9009L156.258 25.9127ZM155.967 19.6172C155.049 19.9271 154.112 20.175 153.161 20.3592C151.932 20.6183 151.084 20.8127 150.615 20.9481C150.115 21.082 149.652 21.3278 149.262 21.6666C149.048 21.8486 148.879 22.0772 148.768 22.3345C148.656 22.5918 148.606 22.8711 148.621 23.1507C148.618 23.47 148.684 23.7864 148.815 24.078C148.946 24.3697 149.139 24.6299 149.381 24.8408C149.923 25.3141 150.629 25.5609 151.351 25.5299C152.178 25.5266 152.993 25.3245 153.724 24.941C154.396 24.6213 154.959 24.1136 155.344 23.4805C155.811 22.4627 156.015 21.3454 155.937 20.2296V19.6231L155.967 19.6172ZM179.309 19.841V25.6241C179.369 26.3653 179.145 27.1017 178.68 27.6853C178.47 27.9111 178.214 28.0891 177.928 28.207C177.642 28.325 177.334 28.38 177.025 28.3684C176.721 28.378 176.419 28.3213 176.141 28.2022C175.862 28.0832 175.613 27.9047 175.411 27.6794C174.953 27.0928 174.731 26.3582 174.788 25.6182V18.6985C174.801 17.847 174.763 16.9955 174.675 16.1485C174.635 15.6033 174.428 15.0833 174.082 14.6585C173.881 14.4496 173.635 14.2883 173.363 14.1863C173.091 14.0844 172.799 14.0445 172.509 14.0696C171.074 14.0696 170.128 14.5584 169.673 15.536C169.153 16.8752 168.921 18.3074 168.991 19.7408V25.63C169.053 26.3641 168.842 27.0954 168.398 27.6853C168.19 27.9177 167.932 28.1004 167.644 28.2197C167.355 28.3391 167.043 28.3919 166.73 28.3743C166.423 28.3843 166.117 28.3272 165.834 28.2071C165.551 28.0871 165.298 27.9069 165.093 27.6794C164.631 27.0966 164.404 26.3637 164.458 25.6241V13.1803C164.416 12.5067 164.628 11.8417 165.051 11.3135C165.239 11.1043 165.471 10.9389 165.73 10.8289C165.99 10.719 166.27 10.6673 166.552 10.6775C166.831 10.6694 167.108 10.7174 167.367 10.8186C167.626 10.9199 167.861 11.0722 168.059 11.2664C168.265 11.4871 168.424 11.7471 168.526 12.0305C168.628 12.3139 168.671 12.6149 168.653 12.9153V13.3276C169.315 12.501 170.146 11.8226 171.091 11.337C171.994 10.9051 172.985 10.6873 173.987 10.701C174.976 10.6723 175.957 10.8953 176.835 11.3488C177.658 11.8182 178.335 12.5026 178.793 13.3276C179.438 12.5108 180.246 11.8351 181.166 11.3429C182.026 10.9175 182.976 10.7015 183.937 10.7128C185.013 10.6824 186.078 10.9235 187.034 11.4136C187.881 11.8594 188.561 12.5634 188.975 13.4218C189.431 14.6059 189.633 15.8716 189.568 17.1378V25.63C189.625 26.37 189.403 27.1046 188.945 27.6912C188.736 27.9176 188.479 28.0961 188.193 28.214C187.907 28.332 187.599 28.3867 187.29 28.3743C186.983 28.3842 186.678 28.3271 186.396 28.207C186.114 28.0869 185.862 27.9068 185.658 27.6794C185.194 27.0974 184.965 26.3645 185.017 25.6241V18.3098C185.029 17.56 184.99 16.8104 184.898 16.066C184.832 15.539 184.607 15.0442 184.252 14.6467C184.041 14.4407 183.789 14.2815 183.512 14.18C183.234 14.0784 182.939 14.0368 182.644 14.0578C182.057 14.0578 181.484 14.2344 181 14.5643C180.488 14.9084 180.079 15.3822 179.813 15.9365C179.487 16.6667 179.333 17.9682 179.333 19.8292L179.309 19.841ZM198.213 13.145V25.7301C198.261 26.4357 198.036 27.133 197.584 27.6794C197.384 27.8987 197.138 28.0722 196.863 28.1881C196.589 28.304 196.292 28.3595 195.994 28.3508C195.699 28.3613 195.405 28.3065 195.134 28.1904C194.864 28.0743 194.622 27.8997 194.428 27.6794C194 27.1172 193.789 26.4214 193.834 25.7183V13.2805C193.78 12.58 193.992 11.8847 194.428 11.3311C194.625 11.116 194.868 10.9461 195.138 10.8332C195.409 10.7203 195.701 10.6672 195.994 10.6775C196.291 10.668 196.586 10.7214 196.86 10.8342C197.134 10.9469 197.381 11.1163 197.584 11.3311C198.028 11.8313 198.254 12.4856 198.213 13.1509V13.145ZM196.041 8.6457C195.469 8.66108 194.911 8.46126 194.481 8.08623C194.26 7.88959 194.086 7.64629 193.972 7.37419C193.858 7.10209 193.807 6.8081 193.822 6.51383C193.815 6.2264 193.871 5.94087 193.987 5.67734C194.103 5.41381 194.275 5.17869 194.493 4.98854C194.915 4.60409 195.469 4.39353 196.041 4.39962C196.595 4.39219 197.133 4.58473 197.554 4.94142C197.779 5.13676 197.955 5.3807 198.069 5.65438C198.183 5.92805 198.233 6.22413 198.213 6.51971C198.231 6.81064 198.183 7.10183 198.075 7.37257C197.966 7.64331 197.798 7.88697 197.584 8.08623C197.168 8.46904 196.621 8.6797 196.053 8.67514L196.041 8.6457ZM214.981 20.6124H206.401C206.39 21.5181 206.593 22.4138 206.995 23.2272C207.327 23.919 207.853 24.5014 208.509 24.9054C209.165 25.3094 209.925 25.518 210.697 25.5063C211.182 25.5122 211.665 25.4508 212.133 25.3238C212.58 25.193 213.005 24.9944 213.391 24.7348C213.787 24.4843 214.164 24.2048 214.518 23.8986C214.862 23.5982 215.307 23.1919 215.853 22.6854C216.127 22.4761 216.469 22.3734 216.814 22.3969C217.213 22.3796 217.604 22.5097 217.912 22.762C218.053 22.8946 218.163 23.056 218.234 23.235C218.306 23.4139 218.338 23.6062 218.327 23.7985C218.292 24.2919 218.131 24.7683 217.859 25.1824C217.488 25.769 217.012 26.2822 216.452 26.6959C215.734 27.2185 214.931 27.6167 214.079 27.8738C213.023 28.2078 211.918 28.3689 210.81 28.3508C207.993 28.3508 205.802 27.5538 204.235 25.9598C202.669 24.3658 201.888 22.2064 201.892 19.4817C201.885 18.2636 202.086 17.0531 202.485 15.9011C202.842 14.8508 203.416 13.886 204.17 13.0684C204.933 12.27 205.868 11.6538 206.906 11.2664C208.055 10.8303 209.277 10.6144 210.507 10.6303C212.046 10.5894 213.567 10.9618 214.91 11.7081C216.075 12.3608 217.031 13.3263 217.669 14.4936C218.262 15.5579 218.578 16.7521 218.588 17.9682C218.588 19.0636 218.268 19.7703 217.639 20.0942C216.799 20.4598 215.885 20.6271 214.969 20.583L214.981 20.6124ZM206.401 18.139H214.352C214.358 16.9249 213.939 15.7464 213.165 14.8057C212.811 14.4358 212.38 14.1452 211.904 13.9533C211.427 13.7613 210.914 13.6725 210.4 13.6927C209.892 13.6691 209.384 13.7559 208.912 13.9472C208.441 14.1384 208.017 14.4294 207.671 14.7999C206.889 15.7378 206.439 16.9047 206.389 18.1213L206.401 18.139ZM226.272 13.0979V13.6279C226.939 12.7096 227.802 11.9493 228.8 11.4018C229.781 10.9162 230.866 10.6737 231.962 10.6951C233.043 10.676 234.11 10.9357 235.06 11.4489C235.944 11.917 236.656 12.6509 237.095 13.5455C237.395 14.0809 237.596 14.6653 237.688 15.271C237.778 16.053 237.819 16.8396 237.813 17.6266V25.7301C237.869 26.4381 237.657 27.1414 237.219 27.703C237.025 27.9233 236.783 28.0978 236.512 28.214C236.242 28.3301 235.948 28.3849 235.653 28.3743C235.347 28.3875 235.041 28.3318 234.76 28.2115C234.478 28.0912 234.228 27.9093 234.027 27.6794C233.595 27.1194 233.384 26.422 233.434 25.7183V18.4747C233.495 17.3447 233.292 16.216 232.841 15.1768C232.437 14.4229 231.654 14.0402 230.467 14.0402C229.681 14.0217 228.912 14.2619 228.278 14.7233C227.624 15.2049 227.134 15.8724 226.871 16.6373C226.598 17.8283 226.488 19.0506 226.545 20.2709V25.7242C226.61 26.4349 226.398 27.1432 225.952 27.703C225.75 27.9213 225.502 28.0938 225.227 28.2087C224.952 28.3235 224.654 28.378 224.356 28.3684C224.057 28.3786 223.759 28.322 223.485 28.2027C223.21 28.0835 222.967 27.9046 222.771 27.6794C222.337 27.1207 222.126 26.4223 222.178 25.7183V13.1509C222.127 12.4845 222.323 11.8224 222.73 11.2899C222.92 11.0896 223.151 10.933 223.409 10.8312C223.666 10.7295 223.943 10.685 224.219 10.701C224.587 10.6984 224.949 10.7919 225.269 10.9719C225.581 11.1692 225.832 11.4485 225.993 11.7787C226.188 12.1911 226.283 12.6427 226.272 13.0979ZM242.399 11.0838H242.88V8.44547C242.88 7.74466 242.88 7.19697 242.939 6.7965C242.972 6.43463 243.085 6.08453 243.271 5.77179C243.451 5.46897 243.707 5.21741 244.013 5.04154C244.329 4.86117 244.687 4.76577 245.051 4.76475C245.616 4.76933 246.156 4.99102 246.559 5.38311C246.862 5.64744 247.071 6.00318 247.152 6.39604C247.248 6.95812 247.29 7.52804 247.277 8.09801V11.0426H248.879C249.391 11.008 249.899 11.1633 250.303 11.4784C250.463 11.6184 250.59 11.7919 250.675 11.9863C250.76 12.1807 250.801 12.3913 250.795 12.6032C250.814 12.8541 250.758 13.1049 250.633 13.324C250.508 13.5431 250.321 13.7206 250.095 13.834C249.461 14.0964 248.776 14.2151 248.089 14.1815H247.277V22.2025C247.266 22.7276 247.289 23.2529 247.348 23.7749C247.379 24.1049 247.511 24.4175 247.727 24.6701C247.865 24.7947 248.028 24.8894 248.204 24.9482C248.381 25.007 248.568 25.0286 248.754 25.0116C249.106 25.0015 249.456 24.9562 249.798 24.8762C250.133 24.7972 250.475 24.7518 250.819 24.7407C251 24.7421 251.179 24.7804 251.344 24.8534C251.509 24.9263 251.658 25.0323 251.78 25.1647C251.914 25.3028 252.017 25.4665 252.084 25.6457C252.152 25.825 252.181 26.0161 252.172 26.2071C252.165 26.5638 252.047 26.9097 251.835 27.1975C251.622 27.4852 251.326 27.7009 250.985 27.8149C249.935 28.2522 248.8 28.4534 247.662 28.4038C246.596 28.4492 245.537 28.1983 244.606 27.6794C243.913 27.246 243.414 26.5651 243.212 25.7772C242.964 24.7179 242.852 23.6314 242.88 22.5441V14.2051H242.287C241.764 14.2423 241.247 14.0825 240.839 13.7575C240.678 13.6163 240.55 13.442 240.464 13.2467C240.378 13.0514 240.336 12.8399 240.34 12.6268C240.336 12.4122 240.38 12.1995 240.471 12.0046C240.561 11.8097 240.695 11.6378 240.863 11.5019C241.302 11.1846 241.839 11.0304 242.381 11.0661L242.399 11.0838ZM270.221 19.5465C270.238 20.7673 270.037 21.9815 269.628 23.133C269.24 24.1865 268.633 25.1475 267.848 25.9539C267.068 26.7445 266.128 27.3609 265.089 27.7619C263.935 28.1958 262.709 28.4096 261.475 28.392C260.258 28.4077 259.05 28.1918 257.915 27.756C256.866 27.3476 255.917 26.722 255.132 25.9207C254.346 25.1194 253.741 24.161 253.358 23.1094C252.951 21.9596 252.75 20.7477 252.765 19.5288C252.746 18.2943 252.947 17.0662 253.358 15.9011C253.744 14.8499 254.351 13.8922 255.138 13.092C255.918 12.3115 256.859 11.7086 257.897 11.3253C260.221 10.4813 262.771 10.4813 265.095 11.3253C266.142 11.7257 267.09 12.3469 267.873 13.1461C268.655 13.9452 269.254 14.9032 269.628 15.9541C270.036 17.1057 270.237 18.3198 270.221 19.5406V19.5465ZM265.818 19.5465C265.897 18.0794 265.48 16.6283 264.632 15.4241C264.26 14.946 263.778 14.5627 263.227 14.3056C262.676 14.0486 262.072 13.9253 261.463 13.9459C260.657 13.9311 259.865 14.1635 259.197 14.6114C258.522 15.0782 258 15.7314 257.696 16.49C257.322 17.4511 257.14 18.4753 257.162 19.5053C257.142 20.5226 257.32 21.5341 257.684 22.4852C257.984 23.2653 258.503 23.9438 259.179 24.4404C259.854 24.895 260.654 25.1297 261.469 25.1117C262.076 25.1347 262.679 25.0136 263.229 24.7586C263.779 24.5035 264.26 24.1219 264.632 23.6454C265.484 22.4433 265.903 20.9906 265.818 19.5229V19.5465Z" fill="white"/>
<path d="M300.664 20.6126H292.09C292.079 21.5183 292.282 22.4139 292.683 23.2274C293.015 23.9182 293.54 24.5 294.195 24.904C294.85 25.3079 295.608 25.517 296.38 25.5065C296.878 25.5167 297.376 25.4552 297.857 25.3239C298.306 25.1932 298.733 24.9946 299.121 24.735C299.51 24.4825 299.881 24.2031 300.23 23.8988C300.581 23.5984 301.02 23.1921 301.571 22.6856C301.844 22.4766 302.183 22.374 302.527 22.397C302.925 22.3798 303.317 22.5099 303.624 22.7621C303.765 22.8948 303.875 23.0562 303.947 23.2351C304.018 23.4141 304.05 23.6063 304.04 23.7986C304.007 24.2917 303.848 24.7682 303.577 25.1826C303.204 25.7693 302.726 26.2824 302.165 26.6961C301.446 27.2187 300.644 27.6169 299.791 27.8739C298.735 28.208 297.631 28.3691 296.522 28.3509C293.706 28.3509 291.516 27.554 289.954 25.96C288.391 24.366 287.6 22.2066 287.58 19.4819C287.571 18.2635 287.772 17.0526 288.174 15.9013C288.531 14.8509 289.105 13.8861 289.859 13.0686C290.62 12.2689 291.556 11.6525 292.594 11.2665C293.741 10.8303 294.961 10.6145 296.19 10.6305C297.73 10.5894 299.253 10.9618 300.598 11.7082C301.762 12.3625 302.718 13.3276 303.357 14.4938C303.946 15.5595 304.26 16.7531 304.271 17.9684C304.271 19.0638 303.951 19.7705 303.322 20.0944C302.482 20.4599 301.568 20.6272 300.652 20.5832L300.664 20.6126ZM292.09 18.1392H300.041C300.039 16.9214 299.608 15.7425 298.824 14.8059C298.474 14.4345 298.047 14.1415 297.573 13.9465C297.1 13.7515 296.59 13.659 296.077 13.6752C295.573 13.6598 295.072 13.7523 294.607 13.9464C294.142 14.1404 293.725 14.4316 293.383 14.8C292.606 15.7401 292.158 16.9061 292.108 18.1215L292.09 18.1392ZM322.089 22.7033C322.142 23.7989 321.832 24.8815 321.206 25.7856C320.581 26.6897 319.674 27.3653 318.624 27.709C317.277 28.1838 315.853 28.4093 314.423 28.3745C313.031 28.4191 311.644 28.1827 310.347 27.6796C309.371 27.3105 308.511 26.6906 307.855 25.8834C307.36 25.2678 307.079 24.5095 307.054 23.7221C307.051 23.4938 307.096 23.2674 307.185 23.0568C307.274 22.8462 307.405 22.6557 307.57 22.4971C307.741 22.3302 307.944 22.1992 308.168 22.1122C308.391 22.0252 308.63 21.9838 308.87 21.9907C309.254 21.9655 309.633 22.0854 309.932 22.3264C310.216 22.5992 310.454 22.9153 310.638 23.2627C311.019 23.9676 311.575 24.5652 312.252 25C313.036 25.4254 313.922 25.6291 314.815 25.5889C315.579 25.6171 316.333 25.4115 316.975 25C317.217 24.866 317.421 24.6741 317.569 24.4416C317.717 24.2091 317.805 23.9436 317.823 23.6691C317.845 23.3372 317.775 23.0056 317.62 22.7106C317.465 22.4157 317.232 22.1686 316.945 21.9966C316.037 21.5258 315.066 21.1867 314.061 20.9895C312.803 20.6959 311.571 20.302 310.377 19.8117C309.5 19.4564 308.719 18.9017 308.098 18.1922C307.525 17.4981 307.224 16.6218 307.25 15.7246C307.253 14.8396 307.528 13.9767 308.039 13.2512C308.62 12.4261 309.424 11.7809 310.359 11.3902C311.53 10.9024 312.792 10.6675 314.061 10.7012C315.091 10.687 316.118 10.8037 317.117 11.0486C317.919 11.239 318.684 11.5572 319.384 11.9909C319.931 12.3284 320.402 12.7757 320.766 13.3042C321.06 13.7148 321.225 14.2024 321.241 14.7058C321.247 14.9336 321.206 15.1602 321.119 15.3711C321.032 15.582 320.902 15.7726 320.736 15.9307C320.338 16.273 319.82 16.4446 319.295 16.4078C318.88 16.4183 318.475 16.285 318.149 16.0309C317.746 15.6884 317.382 15.3034 317.064 14.8825C316.742 14.4643 316.339 14.1156 315.877 13.8578C315.311 13.5765 314.682 13.4447 314.049 13.475C313.356 13.4511 312.67 13.6248 312.074 13.9755C311.842 14.097 311.647 14.277 311.509 14.4973C311.37 14.7176 311.293 14.9703 311.284 15.2299C311.283 15.4514 311.336 15.6698 311.439 15.866C311.543 16.0622 311.693 16.23 311.878 16.3548C312.347 16.688 312.874 16.9335 313.432 17.0791C314.085 17.2676 314.987 17.5031 316.132 17.7799C317.288 18.0341 318.408 18.4298 319.467 18.9578C320.238 19.3357 320.909 19.8885 321.425 20.5714C321.869 21.1938 322.102 21.9406 322.089 22.7033Z" fill="white"/>
<path fill-rule="evenodd" clip-rule="evenodd" d="M6.52723 1.07812C15.101 4.41727 15.7537 4.12281 24.4818 1.11935C29.365 2.88609 31.0916 3.5339 33.554 3.5339C35.601 3.5339 38.3007 2.29129 42.3355 1.23713C44.6592 4.38506 46.3072 7.97298 47.1771 11.7787C49.7938 23.716 45.7175 37.102 35.1975 44.328C31.9164 46.5541 27.9944 47.9263 24.3275 49.11C23.1408 48.6094 22.0135 48.421 20.9217 47.9734C16.6556 46.2066 12.9709 44.3339 9.45834 40.6767C6.56061 37.7389 4.30618 34.2382 2.83663 30.3943C1.70041 26.8993 1.06134 23.264 0.937938 19.5936C0.593799 13.1214 2.18396 7.43251 6.52723 1.07812ZM24.4165 9.72928C21.6282 9.72928 18.9026 10.5499 16.5842 12.0875C14.2658 13.625 12.4588 15.8103 11.3918 18.3671C10.3248 20.924 10.0456 23.7374 10.5896 26.4517C11.1335 29.166 12.4762 31.6593 14.4478 33.6162C16.4195 35.5731 18.9314 36.9057 21.6662 37.4456C24.4009 37.9855 27.2355 37.7084 29.8115 36.6494C32.3876 35.5903 34.5893 33.7968 36.1384 31.4958C37.6875 29.1947 38.5143 26.4894 38.5143 23.7219C38.5065 20.0132 37.0187 16.4587 34.3765 13.8362C31.7344 11.2138 28.1531 9.73706 24.4165 9.72928Z" fill="url(#paint0_linear_9_3754)" stroke="#B72915" stroke-width="3" stroke-miterlimit="10"/>
<path fill-rule="evenodd" clip-rule="evenodd" d="M273.841 24.2285C276.309 25.1826 276.499 25.0942 279.009 24.2285C280.409 24.7409 280.908 24.9293 281.614 24.9293C282.207 24.9293 282.972 24.5701 284.141 24.2639C284.809 25.1676 285.281 26.198 285.53 27.2909C286.283 30.7184 285.114 34.564 282.088 36.6487C281.117 37.2573 280.062 37.7235 278.956 38.0327C278.617 37.8854 278.291 37.8324 277.977 37.7029C276.736 37.2551 275.611 36.539 274.683 35.6063C273.852 34.766 273.205 33.7633 272.785 32.6618C272.454 31.6583 272.268 30.6134 272.233 29.5582C272.138 27.6603 272.706 25.788 273.841 24.258V24.2285ZM278.985 26.7137C278.183 26.7114 277.399 26.9453 276.731 27.3859C276.063 27.8264 275.541 28.4538 275.233 29.1886C274.924 29.9233 274.842 30.7325 274.997 31.5135C275.152 32.2945 275.537 33.0123 276.104 33.576C276.67 34.1397 277.392 34.524 278.178 34.6801C278.965 34.8363 279.78 34.7573 280.521 34.4532C281.263 34.1492 281.896 33.6336 282.342 32.9719C282.788 32.3102 283.026 31.5321 283.026 30.736C283.023 29.6702 282.595 28.6489 281.835 27.8953C281.076 27.1416 280.047 26.7168 278.973 26.7137H278.985Z" fill="url(#paint1_linear_9_3754)" stroke="#B72915" stroke-miterlimit="10"/>
<path d="M52.4702 41.7427H52.8084C53.2277 41.7427 53.4532 41.831 53.4848 42.0077L54.0782 45.9122L55.4547 42.0077C55.514 41.831 55.7573 41.7427 56.1845 41.7427H56.4871C56.9143 41.7427 57.1398 41.831 57.1635 42.0077L57.6797 45.9357L59.1216 42.0312C59.1868 41.8546 59.4301 41.7662 59.8454 41.7662H59.9285C60.4269 41.7662 60.6821 41.8664 60.6821 42.0725C60.6805 42.145 60.6664 42.2167 60.6405 42.2845L58.5104 48.1736C58.4452 48.3503 58.2019 48.4445 57.7865 48.4445H57.1279C56.7185 48.4445 56.4931 48.3503 56.4515 48.1736L55.9175 44.6401L54.6656 48.1736C54.6062 48.3503 54.363 48.4445 53.9358 48.4445H53.3127C52.8855 48.4445 52.6601 48.3503 52.6363 48.1736L51.6514 42.2845C51.6475 42.2217 51.6475 42.1588 51.6514 42.096C51.6633 41.8546 51.9421 41.7427 52.4702 41.7427Z" fill="#BD1A15"/>
<path d="M63.399 46.7423C63.6518 46.9299 63.9618 47.0255 64.2772 47.0132C64.6128 47.0163 64.9469 46.9687 65.268 46.8719C65.5242 46.7993 65.7742 46.7067 66.0157 46.5951C66.1193 46.537 66.2286 46.4896 66.342 46.4537C66.4132 46.4537 66.4429 46.5126 66.4429 46.6304C66.4429 46.7482 66.4429 46.9367 66.4073 47.1722C66.396 47.3188 66.3742 47.4645 66.342 47.608C66.2732 47.7818 66.1607 47.9353 66.0153 48.0538C65.87 48.1724 65.6965 48.252 65.5113 48.2853C65.0617 48.4236 64.5936 48.4931 64.1229 48.4914C63.7152 48.5239 63.3051 48.4761 62.9162 48.3508C62.5272 48.2255 62.167 48.0251 61.8563 47.7611C61.5988 47.4864 61.4002 47.1625 61.2727 46.8091C61.1452 46.4558 61.0914 46.0804 61.1146 45.7058C61.1146 44.3356 61.443 43.3188 62.0996 42.6552C62.4293 42.3261 62.8241 42.0683 63.2591 41.898C63.6941 41.7278 64.1599 41.6487 64.6272 41.6659C65.0523 41.6579 65.4756 41.7216 65.8792 41.8543C66.1733 41.9503 66.4371 42.1208 66.6446 42.349C66.9331 42.6752 67.0951 43.0928 67.1015 43.5268C67.1267 43.8672 67.0636 44.2084 66.9182 44.5177C66.7728 44.827 66.5499 45.0941 66.2708 45.2936C65.7118 45.6836 65.0435 45.8896 64.3602 45.8825C63.9157 45.8842 63.4715 45.8547 63.0311 45.7942C63.0233 46.146 63.1554 46.4866 63.399 46.7423ZM64.4908 43.1499C63.7847 43.1499 63.3041 43.6211 63.1142 44.5692H63.7075C64.119 44.604 64.5316 44.518 64.8942 44.3219C64.9991 44.2619 65.0869 44.1763 65.1492 44.0732C65.2115 43.9702 65.2462 43.8531 65.2502 43.733C65.268 43.3443 65.001 43.1499 64.4908 43.1499Z" fill="#BD1A15"/>
<path d="M68.6382 48.421C68.1457 48.421 67.8965 48.315 67.8965 48.103L68.8458 39.2693C68.8696 38.9984 69.1366 38.8629 69.6468 38.8629H70.0029C70.1922 38.8525 70.3808 38.8932 70.5487 38.9807C70.6021 39.0056 70.6475 39.0446 70.6799 39.0934C70.7124 39.1422 70.7306 39.199 70.7327 39.2575L70.3885 42.4023C70.5846 42.168 70.8318 41.981 71.1114 41.8555C71.391 41.73 71.6957 41.6693 72.0024 41.6779C72.3098 41.671 72.6148 41.7324 72.8951 41.8578C73.1754 41.9831 73.4239 42.1692 73.6222 42.4023C74.078 42.9792 74.304 43.7024 74.2571 44.434C74.3038 45.4836 73.9992 46.5189 73.3908 47.3786C73.1415 47.733 72.8081 48.021 72.42 48.2172C72.032 48.4134 71.6012 48.5117 71.1658 48.5034C70.8779 48.5011 70.5933 48.4422 70.3285 48.3299C70.0637 48.2177 69.8239 48.0545 69.6231 47.8498C69.5851 48.0248 69.4988 48.1858 69.3739 48.315C69.1906 48.4072 68.9855 48.4479 68.7806 48.4328L68.6382 48.421ZM70.7327 47.0135C70.9702 47.0216 71.2056 46.9663 71.4143 46.8534C71.6231 46.7405 71.7975 46.5741 71.9193 46.3716C72.2332 45.8093 72.3793 45.1699 72.3406 44.5283C72.3685 44.1723 72.2744 43.8175 72.0736 43.5212C71.9707 43.4092 71.8436 43.3219 71.7017 43.2658C71.5599 43.2097 71.4071 43.1863 71.2548 43.1973C71.0383 43.2221 70.8315 43.3003 70.6532 43.4247C70.4749 43.5492 70.3309 43.716 70.2343 43.9099L70.0563 45.5706L69.902 46.6837C70.1288 46.891 70.4244 47.0083 70.7327 47.0135Z" fill="#BD1A15"/>
<path d="M79.5493 41.7425H79.9053C80.0941 41.7298 80.2829 41.7685 80.4512 41.8544C80.5046 41.8808 80.5498 41.921 80.5822 41.9707C80.6145 42.0205 80.6328 42.0779 80.6351 42.1371C80.3226 45.0228 80.1644 46.5088 80.1604 46.5952C80.1604 46.872 80.291 47.0133 80.5461 47.0133C80.625 47.012 80.7031 46.9981 80.7775 46.9721L80.914 46.9368C80.9852 46.9368 81.0208 47.0015 81.0208 47.1252C81.008 47.3649 80.9763 47.6031 80.9258 47.8378C80.9075 47.9448 80.8619 48.0453 80.7933 48.1298C80.7248 48.2143 80.6356 48.2801 80.5342 48.3207C80.3084 48.4352 80.058 48.4938 79.8044 48.4915C78.7779 48.4915 78.2617 47.9556 78.2617 46.8838L78.7483 42.1724C78.772 41.8858 79.039 41.7425 79.5493 41.7425ZM80.0239 40.6766H79.6679C79.4791 40.6894 79.2904 40.6507 79.1221 40.5647C79.0691 40.5393 79.0241 40.5002 78.9917 40.4514C78.9593 40.4027 78.9408 40.3462 78.9381 40.2879L79.0509 39.2455C79.0805 38.9746 79.3475 38.8392 79.8578 38.8392H80.2138C80.4013 38.8281 80.5882 38.8689 80.7538 38.957C80.8078 38.9816 80.8541 39.0203 80.8875 39.0691C80.921 39.1179 80.9404 39.1748 80.9436 39.2338L80.825 40.2703C80.8012 40.5412 80.5342 40.6766 80.0239 40.6766Z" fill="#BD1A15"/>
<path d="M87.5894 43.2738L87.269 46.5952C87.269 46.872 87.3995 47.0134 87.6546 47.0134C87.7335 47.012 87.8116 46.9981 87.886 46.9721L88.0225 46.9368C88.0937 46.9368 88.1293 47.0016 88.1293 47.1253C88.1164 47.3645 88.0867 47.6027 88.0403 47.8378C88.0198 47.9448 87.9727 48.045 87.9033 48.1294C87.8339 48.2137 87.7443 48.2795 87.6428 48.3208C87.4169 48.4353 87.1665 48.4939 86.9129 48.4915C85.8865 48.4915 85.3703 47.9556 85.3703 46.8838L85.661 43.845C85.6685 43.7586 85.6566 43.6716 85.6263 43.5903C85.5959 43.5089 85.5479 43.4352 85.4855 43.3745C85.4232 43.3137 85.3481 43.2674 85.2656 43.2388C85.1831 43.2102 85.0952 43.2 85.0083 43.209C84.7586 43.2216 84.5169 43.3003 84.3082 43.437C84.0995 43.5737 83.9315 43.7634 83.8216 43.9863L83.4122 48.0145C83.3885 48.2854 83.1215 48.4209 82.6112 48.4209H82.2493C82.0618 48.4314 81.8751 48.3906 81.7093 48.3031C81.656 48.2782 81.6106 48.2392 81.5781 48.1904C81.5457 48.1415 81.5274 48.0848 81.5254 48.0263L81.9585 43.8686C81.9924 43.5713 82.0102 43.2725 82.0119 42.9734L81.9823 42.2608C81.9823 42.1254 82.1247 42.0194 82.4035 41.931C82.75 41.8407 83.1075 41.7991 83.4656 41.8074C83.5338 41.8013 83.602 41.8185 83.6591 41.8559C83.7163 41.8933 83.7589 41.9489 83.7801 42.0135C83.8348 42.2275 83.8666 42.4466 83.875 42.6672C84.1189 42.3765 84.4196 42.1381 84.7591 41.9664C85.0992 41.7737 85.4831 41.6704 85.8746 41.666C87.0316 41.666 87.5894 42.2019 87.5894 43.2738Z" fill="#BD1A15"/>
<path d="M92.2124 41.7662C92.2955 41.7662 92.3548 41.7662 92.3786 41.8251C92.4125 41.9336 92.4246 42.0477 92.4142 42.1608C92.3999 42.4 92.333 42.6331 92.2184 42.8439C92.1809 42.9583 92.1091 43.0585 92.0126 43.1311C91.9161 43.2038 91.7994 43.2454 91.6784 43.2503H91.2927L90.7825 48.0146C90.7587 48.2855 90.4917 48.421 89.9815 48.421H89.6195C89.4321 48.4315 89.2453 48.3907 89.0796 48.3032C89.0262 48.2783 88.9808 48.2393 88.9484 48.1905C88.9159 48.1416 88.8977 48.0849 88.8956 48.0264L89.3941 43.2503H89.1389C88.9134 43.2503 88.8066 43.0972 88.8066 42.7968C88.8066 42.1078 88.9668 41.7662 89.2872 41.7662H89.5958L89.6848 40.8181C89.7054 40.2552 89.9285 39.7182 90.3137 39.3046C90.5053 39.1214 90.7325 38.9789 90.9814 38.8857C91.2303 38.7926 91.4957 38.7507 91.7615 38.7628C92.5803 38.7628 92.9897 38.963 92.9897 39.3517C92.9733 39.5561 92.919 39.7557 92.8295 39.9406C92.7227 40.1938 92.6159 40.3234 92.515 40.3234H92.3608C92.2739 40.2993 92.184 40.2874 92.0938 40.2881C91.7912 40.2881 91.6191 40.4706 91.5835 40.8357L91.4708 41.8075L92.2124 41.7662Z" fill="#BD1A15"/>
<path d="M92.9541 45.7182C92.9206 44.7347 93.1763 43.7627 93.6898 42.9209C93.9611 42.5203 94.339 42.2023 94.7816 42.0022C95.305 41.7677 95.8748 41.653 96.4489 41.6665C96.8226 41.6443 97.197 41.6981 97.549 41.8247C97.901 41.9513 98.2232 42.148 98.4959 42.4026C98.7465 42.6843 98.938 43.0126 99.0592 43.3686C99.1805 43.7245 99.229 44.1009 99.202 44.4756C99.2685 45.5503 98.9372 46.6121 98.2704 47.4614C97.9484 47.816 97.5505 48.0947 97.106 48.2771C96.6615 48.4595 96.1816 48.541 95.7012 48.5156C95.3268 48.5424 94.9508 48.4937 94.5959 48.3722C94.241 48.2507 93.9146 48.0591 93.6364 47.8089C93.3875 47.5234 93.1989 47.1913 93.0817 46.8322C92.9645 46.4731 92.9211 46.0943 92.9541 45.7182ZM95.8733 47.0138C96.0898 47.0116 96.3016 46.9506 96.4856 46.8374C96.6697 46.7243 96.8191 46.5633 96.9176 46.3719C97.1986 45.8034 97.3274 45.1726 97.2914 44.5404C97.2914 43.6158 96.9591 43.1506 96.2946 43.1506C96.0777 43.1512 95.8651 43.2108 95.68 43.323C95.4948 43.4351 95.3441 43.5954 95.2444 43.7866C94.9583 44.3577 94.8274 44.9931 94.8646 45.6299C94.8646 46.5545 95.2028 47.0138 95.8733 47.0138Z" fill="#BD1A15"/>
<path d="M100.619 42.9908V42.2782C100.619 42.1427 100.762 42.0367 101.04 41.9484C101.371 41.8581 101.712 41.8125 102.055 41.8129C102.105 41.8107 102.154 41.8209 102.199 41.8425C102.243 41.8641 102.282 41.8965 102.31 41.9366C102.366 42.0132 102.403 42.1021 102.417 42.1957C102.417 42.2841 102.417 42.4313 102.459 42.6374C102.605 42.3638 102.819 42.1315 103.08 41.9626C103.342 41.7936 103.642 41.6935 103.954 41.6716C104.034 41.6609 104.116 41.6688 104.193 41.6946C104.27 41.7205 104.34 41.7635 104.397 41.8205C104.455 41.8775 104.498 41.9468 104.524 42.0231C104.55 42.0994 104.558 42.1807 104.547 42.2605C104.537 42.5195 104.474 42.7739 104.363 43.0084C104.239 43.297 104.132 43.4384 104.037 43.4384C103.971 43.4276 103.907 43.4078 103.847 43.3795C103.74 43.3433 103.628 43.3254 103.515 43.3265C103.291 43.3359 103.073 43.3993 102.88 43.5111C102.687 43.623 102.524 43.7799 102.405 43.9684L102.055 48.0142C102.055 48.2851 101.758 48.4206 101.248 48.4206H100.868C100.681 48.4311 100.494 48.3903 100.328 48.3028C100.275 48.2779 100.23 48.2389 100.197 48.1901C100.165 48.1412 100.147 48.0845 100.145 48.026L100.578 43.8683C100.601 43.5385 100.619 43.244 100.619 42.9908Z" fill="#BD1A15"/>
<path d="M105.309 42.9915V42.2789C105.309 42.1434 105.451 42.0374 105.73 41.9491C106.076 41.8588 106.434 41.8172 106.792 41.8254C106.988 41.8254 107.112 41.9609 107.16 42.2318C107.181 42.3743 107.195 42.5178 107.201 42.6617C107.443 42.3731 107.742 42.1366 108.079 41.9668C108.417 41.7859 108.794 41.6889 109.177 41.6841C110.061 41.6841 110.601 42.008 110.785 42.6617C111.031 42.3729 111.337 42.1399 111.681 41.9785C112.033 41.7906 112.426 41.6896 112.826 41.6841C113.954 41.6841 114.511 42.22 114.511 43.2918L114.191 46.6133C114.191 46.8901 114.321 47.0314 114.577 47.0314C114.655 47.0301 114.734 47.0162 114.808 46.9902L114.944 46.9549C115.016 46.9549 115.051 47.0197 115.051 47.1433C115.038 47.3826 115.009 47.6207 114.962 47.8559C114.942 47.9629 114.895 48.0631 114.825 48.1474C114.756 48.2318 114.666 48.2976 114.565 48.3388C114.339 48.4533 114.089 48.5119 113.835 48.5096C112.808 48.5096 112.292 47.9737 112.292 46.9019L112.583 43.8631C112.59 43.7777 112.579 43.6919 112.549 43.6115C112.519 43.531 112.472 43.458 112.411 43.3975C112.35 43.3369 112.277 43.2903 112.196 43.2609C112.115 43.2314 112.028 43.2199 111.942 43.227C111.705 43.2415 111.476 43.3155 111.275 43.4422C111.075 43.5689 110.91 43.7442 110.797 43.9514L110.364 48.0149C110.334 48.2858 110.067 48.4213 109.557 48.4213H109.201C109.012 48.4316 108.823 48.3909 108.655 48.3035C108.602 48.2776 108.558 48.2383 108.525 48.1897C108.493 48.1411 108.474 48.0848 108.471 48.0267C108.756 45.3236 108.892 43.9043 108.892 43.8454C108.9 43.7601 108.888 43.6742 108.858 43.5938C108.829 43.5134 108.782 43.4404 108.721 43.3798C108.66 43.3193 108.586 43.2726 108.505 43.2432C108.424 43.2138 108.338 43.2022 108.252 43.2094C108.013 43.225 107.783 43.3008 107.583 43.4296C107.382 43.5585 107.218 43.7361 107.106 43.9455L106.697 48.0149C106.673 48.2858 106.406 48.4213 105.896 48.4213H105.54C105.359 48.4236 105.181 48.3789 105.024 48.2917C104.97 48.2668 104.925 48.2278 104.893 48.179C104.86 48.1302 104.842 48.0734 104.84 48.0149L105.273 43.8572C105.3 43.5694 105.312 43.2805 105.309 42.9915Z" fill="#BD1A15"/>
<path d="M120.865 48.492C120.545 48.5409 120.218 48.4713 119.947 48.2964C119.676 48.1216 119.479 47.8537 119.393 47.5438C119.206 47.8253 118.959 48.0625 118.669 48.2387C118.371 48.4189 118.028 48.5127 117.679 48.5096C117.388 48.5185 117.099 48.4579 116.837 48.3328C116.575 48.2078 116.346 48.022 116.172 47.7912C115.761 47.195 115.563 46.48 115.608 45.7594C115.56 44.72 115.838 43.6914 116.403 42.8148C116.616 42.4676 116.916 42.1809 117.274 41.9828C117.631 41.7846 118.034 41.6818 118.444 41.6841C119.027 41.6967 119.582 41.9381 119.987 42.3555C120.024 42.1778 120.108 42.0131 120.23 41.8785C120.413 41.7854 120.618 41.7446 120.823 41.7607H120.978C121.47 41.7607 121.719 41.8667 121.719 42.0787L121.488 44.2812C121.328 45.7535 121.245 46.5309 121.245 46.6369C121.245 46.9078 121.369 47.0432 121.624 47.0432C121.703 47.0429 121.782 47.0289 121.856 47.002L121.998 46.9667C122.063 46.9667 122.099 47.0315 122.099 47.1551C122.086 47.3944 122.056 47.6325 122.01 47.8677C121.99 47.9747 121.942 48.0749 121.873 48.1593C121.804 48.2436 121.714 48.3094 121.612 48.3506C121.379 48.4595 121.122 48.5081 120.865 48.492ZM118.373 46.9726C118.723 46.9726 119.055 46.7311 119.37 46.2423C119.469 45.0959 119.528 44.4599 119.548 44.3342C119.548 44.2106 119.619 43.9338 119.702 43.5039C119.474 43.2891 119.173 43.1672 118.859 43.1623C118.648 43.1619 118.44 43.2223 118.262 43.3362C118.085 43.4501 117.944 43.6126 117.857 43.8042C117.59 44.4018 117.47 45.0538 117.507 45.7064C117.483 46.5544 117.797 46.9726 118.373 46.9726Z" fill="#BD1A15"/>
<path d="M123.071 43.2502C122.851 43.2502 122.738 43.0971 122.738 42.7968C122.738 42.1077 122.898 41.7662 123.225 41.7662H123.48L123.605 40.5883C123.605 40.3174 123.901 40.182 124.412 40.182H124.768C124.954 40.1728 125.14 40.2113 125.307 40.2939C125.361 40.3203 125.406 40.3604 125.438 40.4102C125.471 40.4599 125.489 40.5174 125.491 40.5766L125.367 41.7897H126.12C126.151 41.7855 126.182 41.7886 126.211 41.7989C126.24 41.8091 126.266 41.8262 126.286 41.8486C126.32 41.9571 126.333 42.0712 126.322 42.1843C126.308 42.4235 126.241 42.6566 126.126 42.8674C126.089 42.9818 126.017 43.082 125.92 43.1546C125.824 43.2273 125.707 43.2689 125.586 43.2738H125.195C124.957 45.4763 124.839 46.5953 124.839 46.6188C124.839 46.8956 124.963 47.037 125.218 47.037C125.323 47.0367 125.426 47.0229 125.527 46.9957L125.705 46.9604C125.776 46.9604 125.806 47.0252 125.806 47.1489C125.793 47.3881 125.763 47.6263 125.717 47.8614C125.697 47.968 125.651 48.068 125.583 48.1524C125.515 48.2368 125.426 48.3028 125.325 48.3443C125.099 48.4589 124.849 48.5175 124.595 48.5151C123.492 48.5151 122.934 47.9262 122.934 46.8308L123.308 43.2973L123.071 43.2502Z" fill="#BD1A15"/>
<path d="M128.264 41.7428H128.62C128.809 41.73 128.998 41.7687 129.166 41.8547C129.219 41.8811 129.265 41.9213 129.297 41.971C129.329 42.0208 129.348 42.0782 129.35 42.1374C129.033 45.0231 128.875 46.5091 128.875 46.5955C128.875 46.8723 129.006 47.0136 129.261 47.0136C129.34 47.0123 129.418 46.9984 129.492 46.9724L129.629 46.937C129.7 46.937 129.736 47.0018 129.736 47.1255C129.723 47.3648 129.693 47.6029 129.647 47.8381C129.626 47.9451 129.579 48.0453 129.51 48.1296C129.44 48.214 129.351 48.2797 129.249 48.321C129.023 48.4355 128.773 48.4941 128.519 48.4918C127.493 48.4918 126.977 47.9559 126.977 46.884L127.463 42.1727C127.487 41.8861 127.754 41.7428 128.264 41.7428ZM128.739 40.6769H128.383C128.194 40.6897 128.005 40.651 127.837 40.565C127.784 40.5396 127.739 40.5005 127.707 40.4517C127.674 40.403 127.656 40.3465 127.653 40.2882L127.766 39.2458C127.766 38.9749 128.062 38.8395 128.573 38.8395H128.929C129.118 38.8291 129.307 38.8698 129.475 38.9573C129.527 38.9832 129.572 39.0224 129.604 39.071C129.636 39.1197 129.655 39.1759 129.658 39.2341L129.54 40.2705C129.516 40.5414 129.255 40.6769 128.757 40.6769H128.739Z" fill="#BD1A15"/>
<path d="M130.305 42.0607C130.305 41.8487 130.578 41.7427 131.112 41.7427H131.533C131.948 41.7427 132.18 41.831 132.221 42.0077L132.731 44.3633C132.731 44.4752 132.791 44.7226 132.832 45.1054C132.874 45.4882 132.904 45.7532 132.921 45.8945H132.975C133.188 45.1937 133.36 44.7167 133.497 44.3633L134.494 42.0077C134.571 41.831 134.814 41.7427 135.235 41.7427H135.55C136.036 41.7427 136.28 41.8369 136.28 42.0312C136.278 42.1069 136.26 42.1813 136.226 42.2491L133.574 48.1383C133.497 48.315 133.248 48.4092 132.832 48.4092H132.423C132.008 48.4092 131.776 48.315 131.735 48.1383L130.334 42.2491C130.317 42.149 130.305 42.0842 130.305 42.0607Z" fill="#BD1A15"/>
<path d="M141.757 48.4915C141.437 48.5404 141.11 48.4708 140.839 48.2959C140.567 48.1211 140.37 47.8532 140.285 47.5433C140.093 47.8267 139.84 48.0641 139.544 48.2383C139.245 48.4184 138.902 48.5122 138.553 48.5092C138.265 48.5152 137.98 48.4532 137.721 48.3282C137.462 48.2033 137.236 48.0191 137.063 47.7907C136.643 47.1982 136.434 46.4829 136.47 45.7589C136.423 44.7195 136.7 43.6909 137.265 42.8143C137.478 42.4671 137.778 42.1804 138.136 41.9823C138.493 41.7842 138.897 41.6813 139.306 41.6836C139.89 41.6962 140.444 41.9376 140.849 42.355C140.886 42.1773 140.97 42.0127 141.092 41.878C141.275 41.7849 141.481 41.7441 141.686 41.7602H141.84C142.332 41.7602 142.581 41.8662 142.581 42.0782L142.35 44.2807C142.19 45.753 142.107 46.5304 142.107 46.6364C142.107 46.9073 142.231 47.0428 142.487 47.0428C142.566 47.0424 142.644 47.0285 142.718 47.0015L142.86 46.9662C142.926 46.9662 142.961 47.031 142.961 47.1547C142.948 47.3939 142.919 47.6321 142.872 47.8672C142.852 47.9742 142.805 48.0744 142.735 48.1588C142.666 48.2431 142.576 48.3089 142.475 48.3501C142.25 48.4542 142.004 48.5027 141.757 48.4915ZM139.265 46.9721C139.615 46.9721 139.947 46.7306 140.262 46.2418C140.364 45.0954 140.424 44.4594 140.44 44.3337C140.44 44.2101 140.511 43.9333 140.594 43.5034C140.366 43.2886 140.065 43.1667 139.751 43.1618C139.54 43.1614 139.332 43.2218 139.154 43.3357C138.976 43.4496 138.835 43.6121 138.748 43.8037C138.482 44.4013 138.362 45.0533 138.398 45.7059C138.398 46.554 138.689 46.9721 139.265 46.9721Z" fill="#BD1A15"/>
<path d="M146.555 42.0725C146.555 41.8546 146.828 41.7427 147.374 41.7427H147.741C148.157 41.7427 148.388 41.831 148.43 42.0077L148.928 44.3633C148.964 44.5224 149.029 45.0347 149.13 45.8945H149.183C149.415 45.1466 149.581 44.6342 149.693 44.3633L150.702 42.0077C150.779 41.831 151.023 41.7427 151.444 41.7427H151.746C152.239 41.7427 152.488 41.831 152.488 42.0077C152.471 42.0893 152.449 42.1699 152.423 42.2491L148.596 50.7354C148.519 50.9121 148.269 51.0004 147.854 51.0004H147.641C147.142 51.0004 146.899 50.918 146.899 50.7472C146.904 50.6616 146.93 50.5785 146.976 50.5057L148.008 48.3915C147.039 44.222 146.555 42.1157 146.555 42.0725Z" fill="#BD1A15"/>
<path d="M156.307 42.9911L156.277 42.2785C156.277 42.143 156.419 42.037 156.698 41.9487C157.045 41.8584 157.402 41.8168 157.76 41.825C157.998 41.825 158.134 42.0783 158.17 42.5847C158.348 42.3049 158.595 42.0751 158.888 41.9173C159.181 41.7595 159.51 41.6791 159.843 41.6837C160.154 41.6716 160.464 41.73 160.748 41.8545C161.033 41.979 161.286 42.1663 161.487 42.4022C161.923 42.9873 162.133 43.7081 162.08 44.4339C162.128 45.4802 161.832 46.5136 161.237 47.3785C160.996 47.7311 160.67 48.0186 160.289 48.215C159.908 48.4114 159.483 48.5105 159.054 48.5033C158.554 48.4955 158.072 48.3166 157.689 47.9969L157.41 50.6058C157.387 50.8767 157.12 51.0121 156.609 51.0121H156.247C156.06 51.0241 155.874 50.9854 155.707 50.9002C155.654 50.8748 155.609 50.8357 155.577 50.7869C155.545 50.7382 155.526 50.6817 155.523 50.6234L156.235 43.8803C156.275 43.5854 156.299 43.2885 156.307 42.9911ZM158.638 47.031C158.87 47.0387 159.1 46.9828 159.302 46.8696C159.504 46.7563 159.671 46.5901 159.784 46.3891C160.084 45.8223 160.223 45.1852 160.187 44.5458C160.187 43.6624 159.831 43.2149 159.125 43.2149C158.757 43.2149 158.419 43.474 158.104 43.9922C158.104 44.2749 157.992 45.1701 157.837 46.7366C158.063 46.9203 158.347 47.0184 158.638 47.0134V47.031Z" fill="#BD1A15"/>
<path d="M168.274 48.4915C167.944 48.5394 167.608 48.4616 167.334 48.2736C167.06 48.0857 166.868 47.8016 166.796 47.4786C166.538 47.7755 166.226 48.0213 165.876 48.2029C165.532 48.3896 165.147 48.4887 164.755 48.4915C164.295 48.531 163.838 48.3917 163.479 48.1028C163.332 47.9375 163.219 47.7443 163.149 47.5348C163.079 47.3253 163.052 47.1039 163.07 46.8838C163.07 46.5344 163.189 45.3153 163.426 43.2266L163.539 42.1489C163.568 41.878 163.835 41.7425 164.346 41.7425H164.702C164.889 41.7296 165.075 41.7684 165.242 41.8544C165.296 41.8805 165.342 41.9205 165.375 41.9702C165.409 42.0199 165.428 42.0775 165.431 42.1371C165.139 44.8226 164.992 46.2203 164.992 46.3302C164.992 46.4122 165.009 46.4934 165.042 46.5685C165.075 46.6437 165.124 46.7111 165.185 46.7665C165.245 46.822 165.317 46.8642 165.396 46.8905C165.474 46.9167 165.557 46.9265 165.639 46.9191C165.872 46.9074 166.098 46.8389 166.298 46.7198C166.498 46.6006 166.665 46.4345 166.784 46.236L167.217 42.1136C167.241 41.8427 167.508 41.7072 168.018 41.7072H168.38C168.567 41.6952 168.754 41.7339 168.92 41.8191C168.974 41.8455 169.019 41.8857 169.051 41.9354C169.084 41.9852 169.102 42.0426 169.104 42.1018C168.792 44.9875 168.635 46.4735 168.635 46.5599C168.635 46.8367 168.76 46.978 169.015 46.978C169.094 46.9772 169.172 46.9633 169.247 46.9368L169.383 46.9014C169.454 46.9014 169.49 46.9662 169.49 47.0899C169.477 47.3292 169.447 47.5673 169.401 47.8025C169.38 47.9095 169.333 48.0097 169.264 48.094C169.194 48.1784 169.105 48.2441 169.003 48.2854C168.781 48.4122 168.53 48.483 168.274 48.4915Z" fill="#BD1A15"/>
<path d="M170.882 48.421C170.39 48.421 170.141 48.315 170.141 48.103L171.09 39.2693C171.114 38.9984 171.381 38.8629 171.891 38.8629H172.247C172.436 38.8525 172.625 38.8932 172.793 38.9807C172.846 39.0056 172.892 39.0446 172.924 39.0934C172.957 39.1422 172.975 39.199 172.977 39.2575L172.662 42.4023C172.858 42.168 173.106 41.981 173.385 41.8555C173.665 41.73 173.969 41.6693 174.276 41.6779C174.58 41.6745 174.88 41.7376 175.156 41.8629C175.432 41.9881 175.676 42.1723 175.872 42.4023C176.328 42.9792 176.554 43.7024 176.507 44.434C176.554 45.4836 176.249 46.5189 175.641 47.3786C175.391 47.7326 175.058 48.0204 174.67 48.2165C174.282 48.4126 173.851 48.5112 173.416 48.5034C173.128 48.5011 172.843 48.4422 172.579 48.3299C172.314 48.2177 172.074 48.0545 171.873 47.8498C171.835 48.0248 171.749 48.1858 171.624 48.315C171.441 48.4072 171.236 48.4479 171.031 48.4328L170.882 48.421ZM172.977 47.0135C173.214 47.0216 173.45 46.9663 173.658 46.8534C173.867 46.7405 174.042 46.5741 174.163 46.3716C174.477 45.8093 174.623 45.1699 174.585 44.5283C174.613 44.1723 174.519 43.8175 174.318 43.5212C174.215 43.4092 174.088 43.3219 173.946 43.2658C173.804 43.2097 173.651 43.1863 173.499 43.1973C173.282 43.2216 173.075 43.2996 172.897 43.4241C172.719 43.5486 172.575 43.7157 172.478 43.9099L172.3 45.5706L172.146 46.6837C172.374 46.8923 172.672 47.0098 172.983 47.0135H172.977Z" fill="#BD1A15"/>
<path d="M178.971 38.8276H179.565C179.962 38.8276 180.158 38.9454 180.158 39.1692C179.66 44.0729 179.409 46.5483 179.405 46.5954C179.405 46.8722 179.529 47.0135 179.79 47.0135C179.867 47.0126 179.944 46.9987 180.016 46.9723L180.158 46.937C180.223 46.937 180.259 47.0018 180.259 47.1254C180.246 47.3647 180.216 47.6029 180.17 47.838C180.15 47.945 180.102 48.0452 180.033 48.1296C179.964 48.2139 179.874 48.2797 179.773 48.3209C179.549 48.4361 179.3 48.4947 179.049 48.4917C178.016 48.4917 177.5 47.9558 177.5 46.884L178.307 39.2281C178.343 38.9572 178.562 38.8276 178.971 38.8276Z" fill="#BD1A15"/>
<path d="M182.53 41.7424H182.886C183.073 41.7295 183.26 41.7682 183.426 41.8543C183.48 41.8804 183.526 41.9203 183.559 41.97C183.593 42.0197 183.612 42.0773 183.616 42.1369C183.303 45.0226 183.145 46.5087 183.141 46.595C183.141 46.8718 183.271 47.0132 183.527 47.0132C183.604 47.0122 183.68 46.9983 183.752 46.9719L183.894 46.9366C183.96 46.9366 183.995 47.0014 183.995 47.125C183.982 47.3643 183.953 47.6025 183.906 47.8376C183.886 47.9446 183.839 48.0448 183.769 48.1292C183.7 48.2135 183.61 48.2793 183.509 48.3205C183.285 48.4357 183.037 48.4944 182.785 48.4913C181.752 48.4913 181.242 47.9554 181.242 46.8836L181.723 42.1723C181.752 41.8778 182.019 41.7424 182.53 41.7424ZM182.998 40.6764H182.642C182.456 40.6884 182.269 40.6497 182.103 40.5645C182.05 40.5391 182.005 40.5 181.972 40.4513C181.94 40.4026 181.921 40.3461 181.919 40.2878L182.031 39.2454C182.055 38.9745 182.322 38.839 182.832 38.839H183.194C183.382 38.8285 183.568 38.8693 183.734 38.9568C183.788 38.9817 183.833 39.0207 183.865 39.0695C183.898 39.1184 183.916 39.1751 183.918 39.2336L183.805 40.2701C183.782 40.541 183.509 40.6764 182.998 40.6764Z" fill="#BD1A15"/>
<path d="M189.751 46.6836C189.764 47.0106 189.73 47.3378 189.65 47.6553C189.578 47.8165 189.469 47.9583 189.33 48.0689C189.192 48.1795 189.029 48.2558 188.855 48.2913C188.441 48.4229 188.009 48.4904 187.574 48.4916C185.639 48.4916 184.672 47.5964 184.672 45.8061C184.63 44.7882 184.902 43.7818 185.449 42.9204C185.726 42.5141 186.113 42.1936 186.565 41.9958C187.049 41.7752 187.575 41.6626 188.108 41.666C188.609 41.659 189.109 41.7244 189.591 41.8604C190.03 41.9958 190.256 42.2196 190.261 42.5376C190.233 42.7536 190.145 42.9574 190.006 43.1266C189.84 43.3798 189.692 43.5093 189.561 43.5093C189.489 43.494 189.42 43.4639 189.36 43.421C189.037 43.247 188.676 43.1558 188.309 43.156C187.19 43.156 186.628 43.9785 186.624 45.6236C186.593 45.9979 186.696 46.3712 186.915 46.6777C187.042 46.802 187.195 46.897 187.363 46.956C187.531 47.015 187.711 47.0366 187.888 47.0193C188.415 47.0019 188.931 46.8628 189.395 46.6129C189.48 46.5614 189.575 46.5274 189.674 46.5128C189.727 46.5246 189.751 46.5658 189.751 46.6836Z" fill="#BD1A15"/>
<path d="M192.102 41.7429H192.458C192.647 41.731 192.835 41.7696 193.004 41.8548C193.057 41.8821 193.101 41.9225 193.133 41.972C193.166 42.0216 193.184 42.0786 193.188 42.1374C192.875 45.0231 192.717 46.5091 192.713 46.5955C192.713 46.8723 192.844 47.0136 193.099 47.0136C193.176 47.0127 193.252 46.9988 193.324 46.9724L193.467 46.9371C193.538 46.9371 193.568 47.0019 193.568 47.1255C193.555 47.3648 193.525 47.6029 193.479 47.8381C193.459 47.9447 193.413 48.0447 193.345 48.1291C193.276 48.2134 193.188 48.2794 193.087 48.321C192.861 48.4355 192.611 48.4941 192.357 48.4918C191.325 48.4918 190.814 47.9559 190.814 46.8841L191.295 42.1728C191.325 41.8783 191.592 41.7429 192.102 41.7429ZM192.577 40.6769H192.244C192.058 40.6889 191.871 40.6502 191.704 40.565C191.652 40.5396 191.606 40.5005 191.574 40.4518C191.542 40.403 191.523 40.3465 191.521 40.2882L191.633 39.2459C191.633 38.975 191.93 38.8395 192.44 38.8395H192.796C192.984 38.829 193.17 38.8698 193.336 38.9573C193.39 38.9822 193.435 39.0212 193.467 39.07C193.5 39.1188 193.518 39.1756 193.52 39.2341L193.407 40.2706C193.364 40.5415 193.087 40.6769 192.577 40.6769Z" fill="#BD1A15"/>
<path d="M194.653 43.2502C194.433 43.2502 194.32 43.097 194.32 42.7967C194.32 42.1077 194.481 41.7661 194.807 41.7661H195.062L195.193 40.5883C195.216 40.3174 195.483 40.1819 195.994 40.1819H196.35C196.538 40.173 196.726 40.2115 196.895 40.2938C196.949 40.3202 196.994 40.3604 197.026 40.4101C197.059 40.4599 197.077 40.5173 197.079 40.5765L196.949 41.7897H197.702C197.791 41.7897 197.845 41.7897 197.869 41.8485C197.909 41.9556 197.923 42.0706 197.91 42.1842C197.896 42.4242 197.827 42.6579 197.708 42.8674C197.671 42.9817 197.599 43.0819 197.503 43.1546C197.406 43.2272 197.289 43.2688 197.168 43.2737H196.8C196.557 45.4763 196.439 46.5952 196.439 46.6188C196.439 46.8955 196.569 47.0369 196.824 47.0369C196.928 47.0367 197.032 47.0228 197.133 46.9957L197.311 46.9603C197.376 46.9603 197.412 47.0251 197.412 47.1488C197.399 47.3881 197.369 47.6262 197.323 47.8614C197.302 47.9684 197.255 48.0686 197.186 48.1529C197.116 48.2372 197.027 48.303 196.925 48.3443C196.701 48.4581 196.453 48.5167 196.201 48.5151C195.092 48.5151 194.54 47.9261 194.54 46.8308L194.908 43.2973L194.653 43.2502Z" fill="#BD1A15"/>
<path d="M203.766 48.492C203.451 48.533 203.132 48.4595 202.868 48.2852C202.604 48.1108 202.413 47.8475 202.33 47.5438C202.137 47.8288 201.881 48.0664 201.582 48.2387C201.284 48.4189 200.94 48.5127 200.591 48.5096C200.3 48.5185 200.012 48.4579 199.749 48.3328C199.487 48.2078 199.259 48.022 199.084 47.7912C198.676 47.1943 198.48 46.4794 198.526 45.7594C198.477 44.7206 198.753 43.6921 199.315 42.8148C199.528 42.4676 199.828 42.1809 200.186 41.9828C200.544 41.7846 200.947 41.6818 201.357 41.6841C201.94 41.6967 202.495 41.9381 202.899 42.3555C202.936 42.1778 203.02 42.0131 203.143 41.8785C203.326 41.7868 203.531 41.7461 203.736 41.7607H203.89C204.383 41.7607 204.632 41.8667 204.632 42.0787L204.4 44.2812C204.24 45.7535 204.157 46.5309 204.157 46.6369C204.157 46.9078 204.288 47.0432 204.543 47.0432C204.62 47.0423 204.696 47.0284 204.768 47.002L204.911 46.9667C204.982 46.9667 205.012 47.0315 205.012 47.1551C204.999 47.3944 204.969 47.6325 204.923 47.8677C204.903 47.9743 204.857 48.0743 204.789 48.1587C204.72 48.2431 204.632 48.309 204.531 48.3506C204.292 48.4607 204.029 48.5093 203.766 48.492ZM201.279 46.9726C201.624 46.9726 201.956 46.7311 202.27 46.2423L202.448 44.3342C202.448 44.2106 202.52 43.9338 202.603 43.5039C202.375 43.2891 202.074 43.1672 201.76 43.1623C201.548 43.1619 201.341 43.2223 201.163 43.3362C200.985 43.4501 200.844 43.6126 200.757 43.8042C200.49 44.4018 200.37 45.0538 200.407 45.7064C200.407 46.5544 200.698 46.9726 201.279 46.9726Z" fill="#BD1A15"/>
<path d="M205.975 42.9912V42.2786C205.975 42.1432 206.111 42.0372 206.396 41.9488C206.741 41.8585 207.096 41.8168 207.452 41.8252C207.502 41.8224 207.551 41.8323 207.596 41.854C207.641 41.8756 207.679 41.9083 207.707 41.9488C207.762 42.0268 207.8 42.1149 207.82 42.2079C207.82 42.2963 207.82 42.4435 207.862 42.6496C208.007 42.3753 208.221 42.1424 208.482 41.9733C208.744 41.8043 209.045 41.7046 209.357 41.6838C209.437 41.6731 209.519 41.681 209.596 41.7069C209.673 41.7327 209.743 41.7757 209.8 41.8327C209.858 41.8897 209.901 41.959 209.927 42.0353C209.953 42.1116 209.961 42.1929 209.95 42.2727C209.928 42.5225 209.859 42.766 209.748 42.9912C209.624 43.2798 209.517 43.4211 209.422 43.4211C209.356 43.4104 209.292 43.3906 209.232 43.3622C209.125 43.3265 209.013 43.3086 208.9 43.3092C208.676 43.3176 208.458 43.3806 208.264 43.4925C208.071 43.6045 207.908 43.762 207.79 43.9511L207.381 48.0088C207.351 48.2797 207.084 48.4151 206.574 48.4151H206.218C206.031 48.4262 205.844 48.3854 205.678 48.2973C205.624 48.2727 205.578 48.234 205.544 48.1852C205.511 48.1364 205.492 48.0795 205.488 48.0205L205.921 43.8628C205.954 43.5734 205.972 43.2825 205.975 42.9912Z" fill="#BD1A15"/>
<path d="M211.475 41.7425H211.831C212.02 41.7306 212.208 41.7693 212.377 41.8544C212.43 41.8808 212.476 41.921 212.508 41.9707C212.54 42.0205 212.559 42.0779 212.561 42.1371C212.244 45.0228 212.086 46.5088 212.086 46.5952C212.086 46.872 212.217 47.0133 212.472 47.0133C212.551 47.012 212.629 46.9981 212.703 46.9721L212.84 46.9368C212.911 46.9368 212.941 47.0015 212.941 47.1252C212.928 47.3645 212.898 47.6026 212.852 47.8378C212.832 47.9444 212.786 48.0444 212.718 48.1288C212.649 48.2131 212.561 48.2791 212.46 48.3207C212.234 48.4352 211.984 48.4938 211.73 48.4915C210.704 48.4915 210.188 47.9556 210.188 46.8838L210.674 42.1724C210.698 41.8858 210.965 41.7425 211.475 41.7425ZM211.95 40.6766H211.594C211.405 40.6894 211.216 40.6507 211.048 40.5647C210.995 40.5393 210.95 40.5002 210.917 40.4514C210.885 40.4027 210.867 40.3462 210.864 40.2879L210.977 39.2455C211.006 38.9746 211.273 38.8392 211.784 38.8392H212.14C212.327 38.8281 212.514 38.8689 212.68 38.957C212.734 38.9816 212.78 39.0203 212.813 39.0691C212.847 39.1179 212.866 39.1748 212.869 39.2338L212.751 40.2703C212.727 40.5412 212.46 40.6766 211.95 40.6766Z" fill="#BD1A15"/>
<path d="M218.771 48.4915C218.452 48.5389 218.127 48.4685 217.857 48.2938C217.587 48.1191 217.391 47.8521 217.306 47.5434C217.116 47.827 216.865 48.0646 216.57 48.2383C216.274 48.4185 215.932 48.5124 215.585 48.5092C215.294 48.5211 215.004 48.4618 214.741 48.3365C214.478 48.2112 214.25 48.0238 214.078 47.7907C213.667 47.1946 213.469 46.4796 213.514 45.759C213.468 44.7204 213.743 43.6927 214.303 42.8144C214.517 42.4663 214.818 42.1791 215.176 41.9809C215.535 41.7827 215.94 41.6803 216.35 41.6837C216.934 41.6963 217.488 41.9376 217.893 42.355C217.927 42.1765 218.012 42.0111 218.136 41.878C218.319 41.785 218.525 41.7442 218.73 41.7602H218.884C219.376 41.7602 219.62 41.8662 219.62 42.0782L219.394 44.2808C219.228 45.7531 219.151 46.5304 219.151 46.6364C219.151 46.9073 219.275 47.0428 219.531 47.0428C219.61 47.0424 219.688 47.0285 219.762 47.0016L219.904 46.9662C219.97 46.9662 220.005 47.031 220.005 47.1547C219.992 47.394 219.963 47.6321 219.916 47.8673C219.896 47.9743 219.849 48.0745 219.779 48.1588C219.71 48.2432 219.62 48.3089 219.519 48.3502C219.285 48.4574 219.028 48.5059 218.771 48.4915ZM216.285 46.9721C216.635 46.9721 216.967 46.7307 217.282 46.2419C217.385 45.0955 217.444 44.4594 217.46 44.3338C217.46 44.2101 217.525 43.9333 217.614 43.5034C217.386 43.2897 217.085 43.1679 216.772 43.1619C216.56 43.1607 216.352 43.2208 216.174 43.3348C215.996 43.4488 215.855 43.6117 215.769 43.8038C215.502 44.4013 215.382 45.0533 215.419 45.706C215.419 46.554 215.709 46.9721 216.285 46.9721Z" fill="#BD1A15"/>
<path d="M226.419 43.1383C225.933 43.1383 225.689 43.3032 225.689 43.6448C225.689 43.8215 225.808 43.9746 226.046 44.0982C226.296 44.2309 226.558 44.3393 226.829 44.4221C227.133 44.526 227.402 44.7115 227.606 44.9581C227.852 45.2539 227.978 45.6293 227.962 46.0122C227.981 46.3503 227.926 46.6884 227.801 47.0034C227.676 47.3184 227.484 47.6031 227.238 47.8379C226.71 48.2884 226.029 48.5222 225.333 48.4915C225.016 48.4941 224.7 48.4605 224.39 48.3914C223.797 48.256 223.494 48.0322 223.494 47.7201C223.494 46.9604 223.589 46.5835 223.779 46.5835C223.858 46.6134 223.933 46.6509 224.004 46.6954C224.366 46.9004 224.775 47.0099 225.191 47.0134C225.755 47.0134 226.034 46.8014 226.034 46.3773C226.034 46.2907 226.013 46.2053 225.972 46.1291C225.93 46.0529 225.87 45.9883 225.796 45.9415C225.623 45.8206 225.433 45.7254 225.233 45.6589C225.006 45.5803 224.784 45.4878 224.568 45.3821C224.326 45.2721 224.121 45.0965 223.975 44.8756C223.808 44.6183 223.725 44.3159 223.737 44.0099C223.713 43.6817 223.764 43.3523 223.887 43.0463C224.009 42.7404 224.199 42.4659 224.443 42.2432C224.957 41.831 225.606 41.6213 226.265 41.6543C226.697 41.6489 227.128 41.7104 227.541 41.8368C227.932 41.9605 228.134 42.1548 228.134 42.4257C228.107 42.6411 228.021 42.8449 227.885 43.0146C227.719 43.262 227.576 43.3915 227.458 43.3915C227.458 43.3915 227.327 43.3444 227.114 43.262C226.892 43.1784 226.656 43.1364 226.419 43.1383Z" fill="#BD1A15"/>
<path d="M228.907 45.718C228.869 44.7363 229.118 43.7645 229.625 42.9207C229.895 42.5186 230.273 42.2002 230.717 42.002C231.24 41.7675 231.81 41.6528 232.384 41.6663C232.765 41.639 233.147 41.6904 233.506 41.8171C233.866 41.9438 234.195 42.1431 234.473 42.4024C234.722 42.6845 234.913 43.0131 235.033 43.369C235.153 43.7249 235.201 44.101 235.173 44.4754C235.242 45.5504 234.911 46.6132 234.241 47.4612C233.921 47.816 233.524 48.0949 233.08 48.2774C232.637 48.4598 232.157 48.5411 231.678 48.5154C231.304 48.5426 230.927 48.4939 230.572 48.3725C230.218 48.251 229.891 48.0592 229.613 47.8087C229.36 47.5251 229.167 47.1938 229.046 46.8347C228.924 46.4755 228.877 46.0957 228.907 45.718ZM231.832 47.0136C232.049 47.0143 232.261 46.9545 232.444 46.8409C232.628 46.7274 232.776 46.5648 232.871 46.3717C233.154 45.8038 233.285 45.173 233.25 44.5402C233.25 43.6156 232.918 43.1504 232.254 43.1504C232.036 43.1499 231.822 43.209 231.636 43.3212C231.449 43.4334 231.298 43.5943 231.197 43.7864C230.916 44.3591 230.788 44.9937 230.824 45.6297C230.812 46.5543 231.162 47.0136 231.832 47.0136Z" fill="#BD1A15"/>
<path d="M236.82 48.421C236.327 48.421 236.078 48.315 236.078 48.103L237.022 39.2693C237.022 38.9984 237.318 38.8629 237.828 38.8629H238.184C238.372 38.8525 238.559 38.8932 238.724 38.9807C238.778 39.0053 238.825 39.0441 238.858 39.0929C238.892 39.1417 238.911 39.1986 238.914 39.2575L238.564 42.4023C238.761 42.1687 239.008 41.9822 239.288 41.8567C239.567 41.7313 239.872 41.6702 240.178 41.678C240.486 41.6705 240.792 41.7317 241.074 41.8571C241.355 41.9824 241.605 42.1687 241.804 42.4023C242.258 42.9801 242.481 43.7032 242.433 44.4341C242.482 45.483 242.179 46.5184 241.572 47.3786C241.322 47.7323 240.989 48.0197 240.601 48.2158C240.213 48.4119 239.783 48.5107 239.347 48.5035C238.764 48.4978 238.207 48.2627 237.799 47.8498C237.761 48.0248 237.675 48.1859 237.55 48.315C237.367 48.4084 237.161 48.4492 236.956 48.4328L236.82 48.421ZM238.914 47.0135C239.152 47.0198 239.386 46.9637 239.595 46.851C239.803 46.7383 239.978 46.5729 240.101 46.3716C240.415 45.8093 240.561 45.17 240.522 44.5283C240.551 44.1714 240.455 43.8155 240.249 43.5213C240.147 43.4097 240.021 43.3227 239.88 43.2666C239.74 43.2104 239.588 43.1868 239.436 43.1974C239.22 43.2216 239.013 43.2996 238.834 43.4241C238.656 43.5486 238.512 43.7157 238.416 43.9099L238.238 45.5707L238.084 46.6837C238.31 46.8919 238.606 47.0094 238.914 47.0135Z" fill="#BD1A15"/>
<path d="M243.864 42.9912V42.2786C243.864 42.1432 244 42.0372 244.285 41.9488C244.629 41.8581 244.985 41.8164 245.341 41.8252C245.391 41.8224 245.44 41.8323 245.485 41.854C245.53 41.8756 245.568 41.9083 245.596 41.9488C245.652 42.0254 245.689 42.1143 245.703 42.2079C245.703 42.2963 245.733 42.4435 245.751 42.6496C245.895 42.3761 246.108 42.1437 246.369 41.9747C246.63 41.8057 246.929 41.7056 247.24 41.6838C247.32 41.6731 247.402 41.681 247.479 41.7069C247.556 41.7327 247.626 41.7757 247.683 41.8327C247.741 41.8897 247.784 41.959 247.81 42.0353C247.836 42.1116 247.844 42.1929 247.833 42.2727C247.821 42.5321 247.756 42.7863 247.643 43.0207C247.525 43.3092 247.412 43.4506 247.323 43.4506C247.255 43.441 247.189 43.4211 247.127 43.3917C247.02 43.3555 246.908 43.3376 246.795 43.3387C246.567 43.3393 246.342 43.3962 246.141 43.5041C245.94 43.612 245.769 43.7676 245.644 43.957L245.234 48.0146C245.211 48.2855 244.944 48.421 244.433 48.421H244.077C243.888 48.4314 243.699 48.3907 243.532 48.3032C243.479 48.2773 243.434 48.238 243.402 48.1894C243.37 48.1408 243.351 48.0846 243.348 48.0264L243.781 43.8687C243.824 43.5778 243.852 43.2849 243.864 42.9912Z" fill="#BD1A15"/>
<path d="M250.391 46.7423C250.644 46.9299 250.954 47.0255 251.269 47.0132C251.605 47.0163 251.939 46.9687 252.26 46.8719C252.516 46.7993 252.766 46.7067 253.008 46.5951C253.111 46.537 253.22 46.4896 253.334 46.4537C253.405 46.4537 253.435 46.5126 253.435 46.6304C253.435 46.7482 253.435 46.9367 253.399 47.1722C253.388 47.3188 253.366 47.4645 253.334 47.608C253.265 47.7818 253.153 47.9353 253.007 48.0538C252.862 48.1724 252.688 48.252 252.503 48.2853C252.054 48.4236 251.585 48.4931 251.115 48.4914C250.707 48.5239 250.297 48.4761 249.908 48.3508C249.519 48.2255 249.159 48.0251 248.848 47.7611C248.59 47.4868 248.39 47.1632 248.261 46.8098C248.133 46.4565 248.078 46.0808 248.101 45.7058C248.101 44.3356 248.429 43.3188 249.086 42.6552C249.415 42.3261 249.81 42.0683 250.245 41.898C250.68 41.7278 251.146 41.6487 251.613 41.6659C252.038 41.6579 252.462 41.7216 252.865 41.8543C253.159 41.9503 253.423 42.1208 253.631 42.349C253.919 42.6752 254.081 43.0928 254.087 43.5268C254.113 43.8672 254.05 44.2084 253.904 44.5177C253.759 44.827 253.536 45.0941 253.257 45.2936C252.698 45.6836 252.029 45.8896 251.346 45.8825C250.902 45.8842 250.457 45.8547 250.017 45.7942C250.011 46.1468 250.145 46.4876 250.391 46.7423ZM251.483 43.1499C250.777 43.1499 250.296 43.6211 250.106 44.5692H250.699C251.111 44.604 251.524 44.518 251.886 44.3219C251.991 44.2619 252.079 44.1763 252.141 44.0732C252.203 43.9702 252.238 43.8531 252.242 43.733C252.248 43.3443 251.993 43.1499 251.483 43.1499Z" fill="#BD1A15"/>
<path d="M263.201 48.4915C262.881 48.5404 262.554 48.4708 262.283 48.2959C262.012 48.1211 261.815 47.8532 261.73 47.5433C261.537 47.8267 261.284 48.0641 260.988 48.2383C260.689 48.4184 260.346 48.5122 259.997 48.5092C259.706 48.518 259.417 48.4574 259.155 48.3323C258.893 48.2073 258.665 48.0215 258.49 47.7907C258.079 47.1945 257.881 46.4796 257.926 45.7589C257.879 44.7195 258.156 43.6909 258.721 42.8143C258.934 42.4671 259.234 42.1804 259.592 41.9823C259.95 41.7842 260.353 41.6813 260.762 41.6836C261.346 41.6962 261.9 41.9376 262.305 42.355C262.342 42.1773 262.426 42.0127 262.548 41.878C262.731 41.7849 262.937 41.7441 263.142 41.7602H263.296C263.788 41.7602 264.038 41.8662 264.038 42.0782L263.806 44.2807C263.646 45.753 263.563 46.5304 263.563 46.6364C263.563 46.9073 263.688 47.0428 263.943 47.0428C264.022 47.0424 264.1 47.0285 264.174 47.0015L264.317 46.9662C264.382 46.9662 264.417 47.031 264.417 47.1547C264.404 47.3939 264.375 47.6321 264.328 47.8672C264.308 47.9742 264.261 48.0744 264.191 48.1588C264.122 48.2431 264.032 48.3089 263.931 48.3501C263.703 48.4561 263.452 48.5046 263.201 48.4915ZM260.709 46.9721C261.059 46.9721 261.391 46.7306 261.706 46.2418C261.809 45.0954 261.868 44.4594 261.884 44.3337C261.884 44.2101 261.955 43.9333 262.038 43.5034C261.81 43.2896 261.509 43.1679 261.196 43.1618C260.984 43.1614 260.777 43.2218 260.599 43.3357C260.421 43.4496 260.28 43.6121 260.193 43.8037C259.926 44.4013 259.806 45.0533 259.843 45.7059C259.843 46.554 260.133 46.9721 260.709 46.9721Z" fill="#BD1A15"/>
<path d="M264.922 42.0725C264.922 41.8546 265.195 41.7427 265.741 41.7427H266.15C266.565 41.7427 266.797 41.831 266.838 42.0077L267.337 44.3633C267.366 44.5224 267.438 45.0347 267.539 45.8945H267.598C267.823 45.1466 267.995 44.6342 268.108 44.3633L269.117 42.0077C269.188 41.831 269.437 41.7427 269.853 41.7427H270.161C270.654 41.7427 270.903 41.831 270.903 42.0077C270.886 42.0893 270.864 42.1699 270.838 42.2491L267.005 50.7354C266.927 50.9121 266.678 51.0004 266.263 51.0004H266.043C265.551 51.0004 265.308 50.918 265.308 50.7472C265.313 50.6616 265.339 50.5785 265.385 50.5057L266.411 48.3915C265.418 44.222 264.922 42.1157 264.922 42.0725Z" fill="#BD1A15"/>
<path d="M276.279 48.492C275.95 48.5399 275.614 48.4621 275.34 48.2741C275.066 48.0862 274.874 47.8021 274.802 47.4791C274.544 47.776 274.232 48.0218 273.882 48.2034C273.538 48.3901 273.153 48.4892 272.761 48.492C272.301 48.5315 271.844 48.3922 271.485 48.1033C271.338 47.938 271.225 47.7448 271.155 47.5353C271.085 47.3258 271.058 47.1044 271.076 46.8843C271.076 46.5348 271.194 45.3158 271.432 43.2271L271.545 42.1494C271.574 41.8785 271.841 41.743 272.351 41.743H272.707C272.894 41.7301 273.081 41.7689 273.247 41.8549C273.302 41.881 273.348 41.921 273.381 41.9707C273.414 42.0204 273.434 42.078 273.437 42.1376C273.149 44.8231 273.004 46.2208 273.004 46.3307C272.998 46.4138 273.01 46.4972 273.041 46.5748C273.072 46.6523 273.12 46.722 273.181 46.7786C273.243 46.8352 273.317 46.8773 273.397 46.9017C273.477 46.9261 273.562 46.9322 273.645 46.9196C273.878 46.9079 274.104 46.8394 274.304 46.7203C274.503 46.6011 274.67 46.4349 274.79 46.2365L275.223 42.1141C275.247 41.8432 275.514 41.7077 276.024 41.7077H276.386C276.573 41.6957 276.76 41.7344 276.926 41.8196C276.98 41.846 277.025 41.8862 277.057 41.9359C277.09 41.9856 277.108 42.0431 277.11 42.1023C276.798 44.988 276.641 46.474 276.641 46.5604C276.641 46.8371 276.766 46.9785 277.021 46.9785C277.1 46.9777 277.178 46.9637 277.252 46.9373L277.389 46.9019C277.46 46.9019 277.496 46.9667 277.496 47.0904C277.483 47.3297 277.453 47.5678 277.407 47.803C277.386 47.91 277.339 48.0102 277.27 48.0945C277.2 48.1788 277.111 48.2446 277.009 48.2859C276.787 48.4127 276.536 48.4835 276.279 48.492Z" fill="#BD1A15"/>
<path d="M284.14 43.2738L283.825 46.5952C283.825 46.872 283.95 47.0134 284.205 47.0134C284.284 47.0126 284.362 46.9986 284.437 46.9722L284.579 46.9368C284.644 46.9368 284.68 47.0016 284.68 47.1253C284.667 47.3646 284.637 47.6027 284.591 47.8379C284.57 47.9448 284.523 48.0451 284.454 48.1294C284.384 48.2137 284.295 48.2795 284.193 48.3208C283.967 48.4353 283.717 48.4939 283.463 48.4915C282.437 48.4915 281.921 47.9556 281.921 46.8838L282.217 43.845C282.225 43.7581 282.213 43.6705 282.182 43.5887C282.152 43.5069 282.103 43.4329 282.04 43.372C281.977 43.3111 281.901 43.2649 281.818 43.2367C281.735 43.2085 281.646 43.1991 281.559 43.209C281.314 43.2267 281.079 43.3078 280.876 43.4442C280.673 43.5806 280.509 43.7676 280.402 43.9864L279.992 48.0145C279.969 48.2854 279.702 48.4209 279.191 48.4209H278.835C278.641 48.4308 278.448 48.3859 278.278 48.2913C278.224 48.2664 278.179 48.2274 278.146 48.1786C278.114 48.1298 278.096 48.073 278.094 48.0145L278.527 43.8568C278.561 43.5596 278.579 43.2608 278.58 42.9616V42.2491C278.58 42.1136 278.723 42.0076 279.002 41.9193C279.347 41.8355 279.702 41.7998 280.058 41.8133C280.126 41.8073 280.194 41.8244 280.251 41.8618C280.308 41.8992 280.351 41.9548 280.372 42.0194C280.427 42.2334 280.459 42.4525 280.467 42.6731C280.711 42.3824 281.012 42.144 281.351 41.9723C281.692 41.7804 282.075 41.677 282.467 41.6719C283.582 41.666 284.14 42.2019 284.14 43.2738Z" fill="#BD1A15"/>
<path d="M285.76 43.2502C285.54 43.2502 285.434 43.0971 285.434 42.7968C285.434 42.1077 285.594 41.7662 285.914 41.7662H286.169L286.3 40.5883C286.324 40.3174 286.591 40.182 287.101 40.182H287.463C287.649 40.1728 287.835 40.2113 288.003 40.2939C288.056 40.3203 288.101 40.3604 288.134 40.4102C288.166 40.4599 288.184 40.5174 288.187 40.5766L288.062 41.7897H288.816C288.899 41.7897 288.952 41.7897 288.976 41.8486C289.016 41.9556 289.031 42.0707 289.017 42.1843C289.003 42.4235 288.936 42.6566 288.822 42.8674C288.784 42.9827 288.711 43.0836 288.613 43.1563C288.516 43.229 288.398 43.2701 288.276 43.2738H287.908C287.671 45.4763 287.552 46.5953 287.552 46.6188C287.552 46.8956 287.676 47.037 287.932 47.037C288.036 47.0367 288.14 47.0229 288.24 46.9957L288.418 46.9604C288.483 46.9604 288.519 47.0252 288.519 47.1488C288.506 47.3881 288.476 47.6263 288.43 47.8614C288.409 47.9684 288.362 48.0686 288.293 48.153C288.224 48.2373 288.134 48.3031 288.032 48.3443C287.809 48.4595 287.56 48.5182 287.309 48.5151C286.199 48.5151 285.647 47.9262 285.647 46.8308L286.021 43.2973L285.76 43.2502Z" fill="#BD1A15"/>
<path d="M294.893 48.492C294.574 48.5393 294.248 48.469 293.978 48.2942C293.708 48.1195 293.512 47.8525 293.427 47.5438C293.234 47.8288 292.979 48.0664 292.679 48.2387C292.381 48.4198 292.038 48.5137 291.689 48.5096C291.391 48.5275 291.094 48.4711 290.825 48.3455C290.555 48.22 290.322 48.0294 290.146 47.7912C289.722 47.1999 289.513 46.4838 289.552 45.7594C289.503 44.7206 289.779 43.6921 290.342 42.8148C290.555 42.4676 290.855 42.1809 291.212 41.9828C291.57 41.7846 291.973 41.6818 292.383 41.6841C292.968 41.6964 293.525 41.9377 293.931 42.3555C293.966 42.1769 294.05 42.0116 294.175 41.8785C294.358 41.7854 294.563 41.7446 294.768 41.7607H294.916C295.415 41.7607 295.658 41.8667 295.658 42.0787L295.486 44.2753C295.326 45.7476 295.243 46.525 295.243 46.631C295.243 46.9019 295.373 47.0374 295.628 47.0374C295.707 47.036 295.785 47.0221 295.86 46.9961L295.996 46.9608C296.067 46.9608 296.103 47.0256 296.103 47.1492C296.09 47.3885 296.06 47.6267 296.014 47.8618C295.994 47.9688 295.946 48.069 295.877 48.1534C295.808 48.2377 295.718 48.3035 295.616 48.3447C295.39 48.4502 295.142 48.5007 294.893 48.492ZM292.406 46.9726C292.757 46.9726 293.089 46.7311 293.403 46.2423C293.506 45.0959 293.565 44.4599 293.581 44.3342C293.581 44.2106 293.647 43.9338 293.736 43.5039C293.507 43.2901 293.207 43.1684 292.893 43.1623C292.681 43.1604 292.473 43.2202 292.295 43.3343C292.117 43.4484 291.976 43.6117 291.89 43.8042C291.62 44.4008 291.5 45.0536 291.54 45.7064C291.522 46.5544 291.807 46.9726 292.389 46.9726H292.406Z" fill="#BD1A15"/>
<path d="M297.098 42.9915L297.068 42.2789C297.068 42.1434 297.211 42.0374 297.489 41.9491C297.836 41.8588 298.193 41.8172 298.552 41.8254C298.747 41.8254 298.866 41.9609 298.919 42.2318C298.941 42.3743 298.954 42.5178 298.961 42.6617C299.203 42.3731 299.502 42.1366 299.839 41.9668C300.177 41.7859 300.553 41.6889 300.937 41.6841C301.821 41.6841 302.355 42.008 302.545 42.6617C302.791 42.3729 303.096 42.1399 303.441 41.9785C303.793 41.7906 304.186 41.6896 304.586 41.6841C305.707 41.6841 306.271 42.22 306.271 43.2918L305.951 46.6133C305.951 46.8901 306.081 47.0314 306.336 47.0314C306.413 47.0305 306.489 47.0166 306.562 46.9902L306.704 46.9549C306.775 46.9549 306.805 47.0197 306.805 47.1433C306.792 47.3826 306.762 47.6207 306.716 47.8559C306.697 47.9625 306.651 48.0625 306.582 48.1469C306.514 48.2312 306.425 48.2972 306.324 48.3388C306.099 48.4533 305.848 48.5119 305.595 48.5096C304.568 48.5096 304.052 47.9737 304.052 46.9019L304.343 43.8631C304.35 43.7777 304.338 43.6919 304.309 43.6115C304.279 43.531 304.232 43.458 304.171 43.3975C304.11 43.3369 304.036 43.2903 303.955 43.2609C303.874 43.2314 303.788 43.2199 303.702 43.227C303.465 43.2415 303.235 43.3155 303.035 43.4422C302.834 43.5689 302.67 43.7442 302.557 43.9514L302.159 48.0326C302.135 48.3035 301.868 48.4389 301.358 48.4389H301.002C300.813 48.4493 300.624 48.4086 300.456 48.3212C300.403 48.2963 300.357 48.2573 300.325 48.2084C300.293 48.1596 300.274 48.1028 300.272 48.0444C300.553 45.3393 300.694 43.9455 300.694 43.8631C300.701 43.7772 300.689 43.6908 300.659 43.6099C300.629 43.529 300.582 43.4557 300.52 43.395C300.458 43.3344 300.384 43.2879 300.302 43.2589C300.22 43.2298 300.133 43.219 300.047 43.227C299.81 43.2436 299.58 43.3199 299.381 43.4487C299.182 43.5775 299.019 43.7546 298.908 43.9632L298.498 48.0326C298.474 48.3035 298.207 48.4389 297.697 48.4389H297.335C297.148 48.4494 296.961 48.4087 296.795 48.3212C296.742 48.2963 296.697 48.2573 296.664 48.2084C296.632 48.1596 296.613 48.1028 296.611 48.0444L297.044 43.8866C297.078 43.5894 297.096 43.2906 297.098 42.9915Z" fill="#BD1A15"/>
<path d="M308.733 41.7425H309.089C309.278 41.7298 309.466 41.7685 309.635 41.8544C309.688 41.8808 309.733 41.921 309.766 41.9707C309.798 42.0205 309.816 42.0779 309.819 42.1371C309.506 45.0228 309.348 46.5088 309.344 46.5952C309.344 46.872 309.475 47.0133 309.73 47.0133C309.809 47.012 309.887 46.9981 309.961 46.9721L310.098 46.9368C310.169 46.9368 310.204 47.0015 310.204 47.1252C310.189 47.3646 310.157 47.6026 310.109 47.8378C310.09 47.9444 310.044 48.0444 309.976 48.1288C309.907 48.2131 309.819 48.2791 309.718 48.3207C309.492 48.4352 309.242 48.4938 308.988 48.4915C307.962 48.4915 307.445 47.9556 307.445 46.8838L307.932 42.1724C307.94 41.8858 308.207 41.7425 308.733 41.7425ZM309.208 40.6766H308.852C308.663 40.6894 308.474 40.6507 308.306 40.5647C308.253 40.5393 308.208 40.5002 308.175 40.4514C308.143 40.4027 308.124 40.3462 308.122 40.2879L308.234 39.2455C308.234 38.9746 308.531 38.8392 309.041 38.8392H309.397C309.585 38.8281 309.772 38.8689 309.937 38.957C309.991 38.9816 310.038 39.0203 310.071 39.0691C310.105 39.1179 310.124 39.1748 310.127 39.2338L310.009 40.2703C309.985 40.5412 309.718 40.6766 309.208 40.6766Z" fill="#BD1A15"/>
<path d="M313.173 46.7425C313.424 46.9292 313.732 47.0248 314.045 47.0134C314.383 47.016 314.719 46.9684 315.042 46.8721C315.297 46.7975 315.547 46.705 315.789 46.5953C315.891 46.5378 315.999 46.4905 316.11 46.454C316.181 46.454 316.217 46.5129 316.217 46.6306C316.214 46.8119 316.2 46.9928 316.175 47.1724C316.164 47.3191 316.142 47.4647 316.11 47.6082C316.043 47.7827 315.932 47.9372 315.787 48.0568C315.643 48.1764 315.47 48.2572 315.285 48.2914C314.833 48.4293 314.363 48.4988 313.891 48.4975C313.483 48.53 313.073 48.4823 312.684 48.3569C312.295 48.2316 311.935 48.0312 311.624 47.7672C311.371 47.4896 311.177 47.1636 311.055 46.8093C310.932 46.4549 310.884 46.0796 310.912 45.706C310.912 44.3358 311.239 43.319 311.891 42.6555C312.222 42.3272 312.616 42.07 313.051 41.8998C313.486 41.7296 313.952 41.65 314.419 41.6661C314.844 41.6577 315.267 41.7214 315.671 41.8545C315.966 41.948 316.231 42.1189 316.436 42.3492C316.729 42.6726 316.892 43.092 316.893 43.5271C316.92 43.8677 316.858 44.2094 316.712 44.519C316.567 44.8286 316.343 45.0956 316.062 45.2938C315.504 45.6845 314.835 45.8906 314.152 45.8827C313.707 45.8844 313.263 45.8549 312.823 45.7944C312.81 46.1437 312.936 46.4841 313.173 46.7425ZM314.265 43.1502C313.553 43.1502 313.078 43.6213 312.882 44.5694H313.475C313.887 44.6042 314.3 44.5182 314.662 44.3221C314.768 44.2633 314.858 44.1781 314.921 44.0749C314.985 43.9717 315.02 43.854 315.024 43.7332C315.03 43.3445 314.775 43.1502 314.265 43.1502Z" fill="#BD1A15"/>
<path d="M323.656 43.2738L323.335 46.5952C323.335 46.872 323.46 47.0134 323.715 47.0134C323.794 47.013 323.872 46.9991 323.947 46.9721L324.089 46.9368C324.154 46.9368 324.19 47.0016 324.19 47.1253C324.177 47.3645 324.147 47.6027 324.101 47.8378C324.08 47.9448 324.033 48.045 323.964 48.1294C323.894 48.2137 323.805 48.2795 323.703 48.3208C323.48 48.4352 323.231 48.4938 322.979 48.4915C321.947 48.4915 321.431 47.9556 321.431 46.8838L321.727 43.845C321.735 43.758 321.723 43.6705 321.692 43.5887C321.662 43.5069 321.613 43.4328 321.55 43.372C321.487 43.3111 321.411 43.2649 321.328 43.2367C321.245 43.2085 321.156 43.199 321.069 43.209C320.819 43.2216 320.577 43.3003 320.369 43.437C320.16 43.5737 319.992 43.7634 319.882 43.9863L319.479 48.0145C319.479 48.2854 319.182 48.4209 318.672 48.4209H318.316C318.126 48.4312 317.938 48.3905 317.77 48.3031C317.717 48.2772 317.673 48.2379 317.64 48.1893C317.608 48.1407 317.589 48.0844 317.586 48.0263L318.019 43.8686C318.053 43.5713 318.071 43.2725 318.072 42.9734V42.2608C318.072 42.1254 318.209 42.0194 318.494 41.931C318.838 41.8403 319.194 41.7986 319.55 41.8074C319.618 41.8013 319.686 41.8185 319.743 41.8559C319.801 41.8933 319.843 41.9489 319.864 42.0135C319.922 42.2269 319.954 42.4463 319.959 42.6672C320.204 42.3752 320.507 42.1366 320.849 41.9664C321.189 41.7737 321.573 41.6704 321.965 41.666C323.092 41.666 323.656 42.2019 323.656 43.2738Z" fill="#BD1A15"/>
<path d="M325.278 43.2502C325.052 43.2502 324.945 43.0971 324.945 42.7968C324.945 42.1077 325.106 41.7662 325.426 41.7662H325.687L325.812 40.5883C325.812 40.3174 326.102 40.182 326.619 40.182H326.975C327.161 40.1728 327.347 40.2113 327.514 40.2939C327.568 40.3203 327.613 40.3604 327.645 40.4102C327.678 40.4599 327.696 40.5174 327.698 40.5766L327.574 41.7897H328.327C328.358 41.7855 328.389 41.7886 328.418 41.7989C328.447 41.8091 328.473 41.8262 328.493 41.8486C328.527 41.9571 328.54 42.0712 328.529 42.1843C328.515 42.4235 328.448 42.6566 328.333 42.8674C328.295 42.9827 328.223 43.0836 328.125 43.1563C328.027 43.229 327.909 43.2701 327.787 43.2738H327.42C327.182 45.4763 327.064 46.5953 327.064 46.6188C327.064 46.8956 327.188 47.037 327.443 47.037C327.547 47.0367 327.651 47.0229 327.752 46.9957L327.93 46.9604C328.001 46.9604 328.031 47.0252 328.031 47.1489C328.018 47.3881 327.988 47.6263 327.942 47.8614C327.922 47.968 327.876 48.068 327.808 48.1524C327.739 48.2368 327.651 48.3028 327.55 48.3443C327.324 48.4589 327.074 48.5175 326.82 48.5151C325.717 48.5151 325.159 47.9262 325.159 46.8308L325.533 43.2973L325.278 43.2502Z" fill="#BD1A15"/>
<path d="M329.229 45.7176C329.198 44.7335 329.456 43.7616 329.971 42.9203C330.249 42.5163 330.635 42.198 331.087 42.0016C331.61 41.7671 332.18 41.6524 332.754 41.6659C333.127 41.6452 333.5 41.6997 333.85 41.8263C334.201 41.9528 334.523 42.1487 334.795 42.4021C335.046 42.6837 335.237 43.012 335.358 43.368C335.479 43.7239 335.528 44.1003 335.501 44.475C335.568 45.5497 335.236 46.6115 334.569 47.4608C334.247 47.8154 333.85 48.0941 333.405 48.2765C332.961 48.4589 332.481 48.5404 332 48.515C331.626 48.5418 331.25 48.4931 330.895 48.3716C330.54 48.2501 330.214 48.0585 329.935 47.8083C329.682 47.5247 329.489 47.1935 329.368 46.8343C329.247 46.4751 329.2 46.0953 329.229 45.7176ZM332.155 47.0133C332.371 47.0146 332.584 46.9551 332.767 46.8414C332.951 46.7278 333.099 46.5648 333.193 46.3713C333.479 45.8044 333.61 45.1728 333.573 44.5398C333.573 43.6152 333.24 43.15 332.576 43.15C332.359 43.1506 332.146 43.2102 331.961 43.3224C331.776 43.4345 331.625 43.5948 331.526 43.786C331.239 44.3571 331.109 44.9925 331.146 45.6293C331.146 46.5539 331.484 47.0133 332.155 47.0133Z" fill="#BD1A15"/>
<path d="M339.273 43.1383C338.792 43.1383 338.549 43.3032 338.549 43.6447C338.549 43.8214 338.667 43.9745 338.905 44.0982C339.153 44.2308 339.413 44.3393 339.682 44.4221C339.986 44.526 340.255 44.7115 340.459 44.958C340.705 45.2538 340.832 45.6293 340.815 46.0122C340.834 46.3502 340.779 46.6883 340.654 47.0034C340.529 47.3184 340.337 47.603 340.091 47.8378C339.568 48.2841 338.894 48.5176 338.205 48.4915C337.887 48.494 337.571 48.4604 337.261 48.3914C336.668 48.254 336.371 48.0302 336.371 47.72C336.371 46.9603 336.46 46.5834 336.65 46.5834C336.731 46.6113 336.809 46.6488 336.881 46.6953C337.243 46.9004 337.652 47.0099 338.068 47.0133C338.626 47.0133 338.911 46.8013 338.911 46.3773C338.91 46.2909 338.889 46.2059 338.847 46.1298C338.806 46.0538 338.746 45.9891 338.673 45.9415C338.49 45.8198 338.29 45.7246 338.08 45.6588C337.853 45.5792 337.631 45.4868 337.415 45.382C337.175 45.2705 336.969 45.0953 336.822 44.8756C336.66 44.6163 336.579 44.3149 336.591 44.0099C336.566 43.682 336.615 43.3528 336.737 43.0468C336.858 42.7409 337.047 42.4661 337.291 42.2431C337.807 41.831 338.457 41.6214 339.118 41.6542C339.55 41.6495 339.981 41.7111 340.394 41.8368C340.786 41.9604 340.987 42.1548 340.987 42.4257C340.96 42.641 340.874 42.8448 340.738 43.0146C340.572 43.262 340.43 43.3915 340.311 43.3915C340.194 43.3542 340.079 43.3109 339.967 43.2619C339.745 43.179 339.51 43.1371 339.273 43.1383Z" fill="#BD1A15"/>
</g>
<defs>
<linearGradient id="paint0_linear_9_3754" x1="24.4165" y1="1.07812" x2="24.4165" y2="49.11" gradientUnits="userSpaceOnUse">
<stop stop-color="white"/>
<stop offset="0.6" stop-color="#B92315"/>
</linearGradient>
<linearGradient id="paint1_linear_9_3754" x1="278.985" y1="24.2285" x2="278.985" y2="38.0386" gradientUnits="userSpaceOnUse">
<stop stop-color="white"/>
<stop offset="0.6" stop-color="#B92315"/>
</linearGradient>
<clipPath id="clip0_9_3754">
<rect width="341" height="51" fill="white"/>
</clipPath>
</defs>
</svg>
