<svg width="28" height="28" viewBox="0 0 28 28" fill="none" xmlns="http://www.w3.org/2000/svg">
<path d="M25.6673 10.4999V17.4999C25.6673 20.4166 25.084 22.4583 23.7773 23.7766L16.334 16.3333L25.3523 7.31494C25.5623 8.23661 25.6673 9.2866 25.6673 10.4999Z" stroke="#BC2517" stroke-width="1.6" stroke-linecap="round" stroke-linejoin="round"/>
<path d="M25.3523 7.31517L7.31564 25.3518C3.80397 24.5468 2.33398 22.1202 2.33398 17.5002V10.5002C2.33398 4.66683 4.66732 2.3335 10.5007 2.3335H17.5007C22.1207 2.3335 24.5473 3.8035 25.3523 7.31517Z" stroke="#BC2517" stroke-width="1.6" stroke-linecap="round" stroke-linejoin="round"/>
<path d="M23.7761 23.7768C22.4578 25.0835 20.4161 25.6668 17.4995 25.6668H10.4995C9.28613 25.6668 8.23612 25.5618 7.31445 25.3518L16.3328 16.3335L23.7761 23.7768Z" stroke="#BC2517" stroke-width="1.6" stroke-linecap="round" stroke-linejoin="round"/>
<path d="M7.27884 9.30984C8.07218 5.89151 13.2055 5.89151 13.9989 9.30984C14.4539 11.3165 13.1938 13.0198 12.0855 14.0698C11.2805 14.8398 10.0089 14.8398 9.19219 14.0698C8.08386 13.0198 6.81218 11.3165 7.27884 9.30984Z" stroke="#BC2517" stroke-width="1.6"/>
<path d="M10.6101 10.1502H10.6206" stroke="#BC2517" stroke-width="1.6" stroke-linecap="round" stroke-linejoin="round"/>
</svg>
