<svg width="18" height="19" viewBox="0 0 18 19" fill="none" xmlns="http://www.w3.org/2000/svg">
<path d="M6.37549 14.7498H6.00049C3.00049 14.7498 1.50049 13.9998 1.50049 10.2498V6.49976C1.50049 3.49976 3.00049 1.99976 6.00049 1.99976H12.0005C15.0005 1.99976 16.5005 3.49976 16.5005 6.49976V10.2498C16.5005 13.2498 15.0005 14.7498 12.0005 14.7498H11.6255C11.393 14.7498 11.168 14.8623 11.0255 15.0498L9.90049 16.5498C9.40549 17.2098 8.59549 17.2098 8.10049 16.5498L6.97549 15.0498C6.85549 14.8848 6.57799 14.7498 6.37549 14.7498Z" stroke="#CB3A2C" stroke-width="1.5" stroke-miterlimit="10" stroke-linecap="round" stroke-linejoin="round"/>
<path d="M5.24951 6.49976H12.7495" stroke="#CB3A2C" stroke-width="1.5" stroke-linecap="round" stroke-linejoin="round"/>
<path d="M5.24951 10.2502H9.74951" stroke="#CB3A2C" stroke-width="1.5" stroke-linecap="round" stroke-linejoin="round"/>
</svg>
