<svg width="22" height="22" viewBox="0 0 22 22" fill="none" xmlns="http://www.w3.org/2000/svg">
<path d="M7.79232 17.4163H7.33398C3.66732 17.4163 1.83398 16.4997 1.83398 11.9163V7.33301C1.83398 3.66634 3.66732 1.83301 7.33398 1.83301H14.6673C18.334 1.83301 20.1673 3.66634 20.1673 7.33301V11.9163C20.1673 15.583 18.334 17.4163 14.6673 17.4163H14.209C13.9248 17.4163 13.6498 17.5538 13.4757 17.783L12.1007 19.6163C11.4957 20.423 10.5057 20.423 9.90065 19.6163L8.52565 17.783C8.37898 17.5813 8.03982 17.4163 7.79232 17.4163Z" stroke="#CBCBCB" stroke-width="1.5" stroke-miterlimit="10" stroke-linecap="round" stroke-linejoin="round"/>
<path d="M6.41602 7.33301H15.5827" stroke="#CBCBCB" stroke-width="1.5" stroke-linecap="round" stroke-linejoin="round"/>
<path d="M6.41602 11.917H11.916" stroke="#CBCBCB" stroke-width="1.5" stroke-linecap="round" stroke-linejoin="round"/>
</svg>
