<svg width="18" height="18" viewBox="0 0 18 18" fill="none" xmlns="http://www.w3.org/2000/svg">
<path d="M4.10352 6.75C5.55326 6.75 6.72852 5.57475 6.72852 4.125C6.72852 2.67525 5.55326 1.5 4.10352 1.5C2.65377 1.5 1.47852 2.67525 1.47852 4.125C1.47852 5.57475 2.65377 6.75 4.10352 6.75Z" stroke="#BE2618" stroke-width="1.2"/>
<path d="M12.7285 11.25H14.9785C15.8035 11.25 16.4785 11.925 16.4785 12.75V15C16.4785 15.825 15.8035 16.5 14.9785 16.5H12.7285C11.9035 16.5 11.2285 15.825 11.2285 15V12.75C11.2285 11.925 11.9035 11.25 12.7285 11.25Z" stroke="#BE2618" stroke-width="1.2"/>
<path d="M9.00026 3.75H11.0103C12.3978 3.75 13.0428 5.4675 12.0003 6.3825L6.00776 11.625C4.96526 12.5325 5.61026 14.25 6.99026 14.25H9.00026" stroke="#BE2618" stroke-width="1.2" stroke-linecap="round" stroke-linejoin="round"/>
<path d="M4.11381 4.125H4.12247" stroke="#BE2618" stroke-width="1.2" stroke-linecap="round" stroke-linejoin="round"/>
<path d="M13.8638 13.875H13.8725" stroke="#BE2618" stroke-width="1.2" stroke-linecap="round" stroke-linejoin="round"/>
</svg>
