<svg width="52" height="74" viewBox="0 0 52 74" fill="none" xmlns="http://www.w3.org/2000/svg">
<path opacity="0.07" d="M80.655 32.0262C80.9587 39.0411 79.4105 46.0124 76.166 52.2393C72.9215 58.4662 68.0951 63.7294 62.1719 67.4998C56.2486 71.2702 49.4372 73.415 42.4223 73.7187C35.4074 74.0224 28.4362 72.4741 22.2093 69.2297C15.9824 65.9852 10.7192 61.1588 6.9488 55.2355C3.17837 49.3123 1.03354 42.5009 0.729886 35.486C0.426228 28.4711 1.97444 21.4999 5.21891 15.273C8.46339 9.04605 13.2898 3.78289 19.2131 0.0124618L27.8048 13.5099C24.2509 15.7722 21.355 18.9301 19.4083 22.6662C17.4617 26.4024 16.5327 30.5851 16.7149 34.7941C16.8971 39.003 18.184 43.0898 20.4463 46.6438C22.7085 50.1977 25.8664 53.0936 29.6026 55.0403C33.3387 56.9869 37.5215 57.9159 41.7304 57.7337C45.9393 57.5515 50.0262 56.2646 53.5801 54.0023C57.1341 51.7401 60.0299 48.5822 61.9766 44.846C63.9233 41.1099 64.8522 36.9271 64.67 32.7182L80.655 32.0262Z" fill="#C1291B"/>
</svg>
