<svg width="118" height="92" viewBox="0 0 118 92" fill="none" xmlns="http://www.w3.org/2000/svg">
<ellipse opacity="0.06" cx="54.4959" cy="43.4357" rx="48.8802" ry="29.7115" transform="rotate(13.5972 54.4959 43.4357)" fill="url(#paint0_linear_9_3623)"/>
<path opacity="0.05" d="M107.192 51.7441C105.32 59.4841 98.4422 65.3224 88.6714 68.4399C78.9106 71.5542 66.3458 71.9183 53.3003 68.763C40.2548 65.6076 29.2453 59.5415 21.9867 52.3106C14.7207 45.0724 11.2715 36.7363 13.1436 28.9963C15.0157 21.2563 21.8933 15.418 31.6641 12.3005C41.4249 9.1862 53.9897 8.82208 67.0352 11.9775C80.0807 15.1328 91.0902 21.1989 98.3488 28.4298C105.615 35.668 109.064 44.0041 107.192 51.7441Z" stroke="#C22A1C"/>
<path opacity="0.05" d="M109.557 62.461C107.685 70.201 100.807 76.0393 91.0366 79.1568C81.2758 82.2711 68.711 82.6352 55.6655 79.4799C42.62 76.3245 31.6106 70.2584 24.3519 63.0276C17.0859 55.7893 13.6367 47.4532 15.5088 39.7132C17.3809 31.9732 24.2585 26.1349 34.0293 23.0174C43.7902 19.9031 56.3549 19.539 69.4004 22.6944C82.446 25.8497 93.4554 31.9158 100.714 39.1467C107.98 46.385 111.429 54.7211 109.557 62.461Z" stroke="#C22A1C"/>
<defs>
<linearGradient id="paint0_linear_9_3623" x1="54.4959" y1="13.7242" x2="54.4959" y2="73.1471" gradientUnits="userSpaceOnUse">
<stop stop-color="#BD1A15"/>
<stop offset="1" stop-color="#FFF4F3" stop-opacity="0"/>
</linearGradient>
</defs>
</svg>
