<svg width="68" height="70" viewBox="0 0 68 70" fill="none" xmlns="http://www.w3.org/2000/svg">
<path opacity="0.5" d="M38.0632 0.227924C44.1381 1.14562 49.8644 3.64622 54.6665 7.4784C59.4686 11.3106 63.1774 16.3393 65.4201 22.0591C67.6628 27.779 68.3603 33.9883 67.4426 40.0632C66.5249 46.1381 64.0243 51.8643 60.1922 56.6665C56.36 61.4686 51.3313 65.1774 45.6114 67.4201C39.8916 69.6628 33.6822 70.3603 27.6073 69.4426C21.5325 68.5249 15.8062 66.0243 11.0041 62.1922C6.20195 58.36 2.49315 53.3313 0.250472 47.6114L13.2844 42.501C14.63 45.9329 16.8553 48.9501 19.7366 51.2494C22.6178 53.5487 26.0536 55.0491 29.6985 55.5997C33.3434 56.1503 37.0691 55.7318 40.501 54.3862C43.9329 53.0406 46.9501 50.8153 49.2494 47.934C51.5487 45.0527 53.0491 41.617 53.5997 37.972C54.1503 34.3271 53.7318 30.6015 52.3862 27.1696C51.0406 23.7377 48.8153 20.7205 45.934 18.4211C43.0527 16.1218 39.617 14.6215 35.972 14.0709L38.0632 0.227924Z" fill="#FFFEFE"/>
</svg>
