<svg width="150" height="26" viewBox="0 0 150 26" fill="none" xmlns="http://www.w3.org/2000/svg">
<path d="M14.8743 3.80285L16.781 7.61618C17.041 8.14702 17.7343 8.65618 18.3193 8.75368L21.7751 9.32785C23.9851 9.69618 24.5051 11.2995 22.9126 12.8812L20.226 15.5679C19.771 16.0229 19.5218 16.9004 19.6626 17.5287L20.4318 20.8545C21.0385 23.487 19.641 24.5054 17.3118 23.1295L14.0726 21.212C13.4876 20.8654 12.5235 20.8654 11.9276 21.212L8.68848 23.1295C6.37015 24.5054 4.96181 23.4762 5.56848 20.8545L6.33765 17.5287C6.47848 16.9004 6.22931 16.0229 5.77431 15.5679L3.08765 12.8812C1.50598 11.2995 2.01515 9.69618 4.22515 9.32785L7.68098 8.75368C8.25515 8.65618 8.94848 8.14702 9.20848 7.61618L11.1151 3.80285C12.1551 1.73368 13.8451 1.73368 14.8743 3.80285Z" fill="#EC4A3A"/>
<path d="M45.8743 3.80285L47.781 7.61618C48.041 8.14702 48.7343 8.65618 49.3193 8.75368L52.7751 9.32785C54.9851 9.69618 55.5051 11.2995 53.9126 12.8812L51.226 15.5679C50.771 16.0229 50.5218 16.9004 50.6626 17.5287L51.4318 20.8545C52.0385 23.487 50.641 24.5054 48.3118 23.1295L45.0726 21.212C44.4876 20.8654 43.5235 20.8654 42.9276 21.212L39.6885 23.1295C37.3701 24.5054 35.9618 23.4762 36.5685 20.8545L37.3376 17.5287C37.4785 16.9004 37.2293 16.0229 36.7743 15.5679L34.0876 12.8812C32.506 11.2995 33.0151 9.69618 35.2251 9.32785L38.681 8.75368C39.2551 8.65618 39.9485 8.14702 40.2085 7.61618L42.1151 3.80285C43.1551 1.73368 44.8451 1.73368 45.8743 3.80285Z" fill="#EC4A3A"/>
<path d="M76.8743 3.80285L78.781 7.61618C79.041 8.14702 79.7343 8.65618 80.3193 8.75368L83.7751 9.32785C85.9851 9.69618 86.5051 11.2995 84.9126 12.8812L82.226 15.5679C81.771 16.0229 81.5218 16.9004 81.6626 17.5287L82.4318 20.8545C83.0385 23.487 81.641 24.5054 79.3118 23.1295L76.0726 21.212C75.4876 20.8654 74.5235 20.8654 73.9276 21.212L70.6885 23.1295C68.3701 24.5054 66.9618 23.4762 67.5685 20.8545L68.3376 17.5287C68.4785 16.9004 68.2293 16.0229 67.7743 15.5679L65.0876 12.8812C63.506 11.2995 64.0151 9.69618 66.2251 9.32785L69.681 8.75368C70.2551 8.65618 70.9485 8.14702 71.2085 7.61618L73.1151 3.80285C74.1551 1.73368 75.8451 1.73368 76.8743 3.80285Z" fill="#EC4A3A"/>
<path d="M107.874 3.80285L109.781 7.61618C110.041 8.14702 110.734 8.65618 111.319 8.75368L114.775 9.32785C116.985 9.69618 117.505 11.2995 115.913 12.8812L113.226 15.5679C112.771 16.0229 112.522 16.9004 112.663 17.5287L113.432 20.8545C114.038 23.487 112.641 24.5054 110.312 23.1295L107.073 21.212C106.488 20.8654 105.523 20.8654 104.928 21.212L101.688 23.1295C99.3701 24.5054 97.9618 23.4762 98.5685 20.8545L99.3376 17.5287C99.4785 16.9004 99.2293 16.0229 98.7743 15.5679L96.0876 12.8812C94.506 11.2995 95.0151 9.69618 97.2251 9.32785L100.681 8.75368C101.255 8.65618 101.948 8.14702 102.208 7.61618L104.115 3.80285C105.155 1.73368 106.845 1.73368 107.874 3.80285Z" fill="#EC4A3A"/>
<path d="M138.874 3.80285L140.781 7.61618C141.041 8.14702 141.734 8.65618 142.319 8.75368L145.775 9.32785C147.985 9.69618 148.505 11.2995 146.913 12.8812L144.226 15.5679C143.771 16.0229 143.522 16.9004 143.663 17.5287L144.432 20.8545C145.038 23.487 143.641 24.5054 141.312 23.1295L138.073 21.212C137.488 20.8654 136.523 20.8654 135.928 21.212L132.688 23.1295C130.37 24.5054 128.962 23.4762 129.568 20.8545L130.338 17.5287C130.478 16.9004 130.229 16.0229 129.774 15.5679L127.088 12.8812C125.506 11.2995 126.015 9.69618 128.225 9.32785L131.681 8.75368C132.255 8.65618 132.948 8.14702 133.208 7.61618L135.115 3.80285C136.155 1.73368 137.845 1.73368 138.874 3.80285Z" fill="#EC4A3A"/>
</svg>
