<svg width="30" height="30" viewBox="0 0 30 30" fill="none" xmlns="http://www.w3.org/2000/svg">
<path d="M16.2481 4.84468L16.2472 4.84276C15.7273 3.79762 15.2155 3.61941 14.9988 3.61941C14.7803 3.61941 14.2655 3.7998 13.7396 4.84581C13.7394 4.84607 13.7393 4.84633 13.7392 4.84659L11.5418 9.24138C11.3 9.73281 10.8983 10.1493 10.4892 10.4526C10.0788 10.7569 9.56595 11.0178 9.03409 11.1081L9.0305 11.1087L5.04351 11.7711C5.04334 11.7711 5.04317 11.7712 5.043 11.7712C3.94583 11.9542 3.62246 12.3801 3.55276 12.5984C3.48274 12.8177 3.50038 13.3535 4.28605 14.1391L7.38605 17.2391C7.80182 17.6549 8.07742 18.2078 8.22892 18.7371C8.38056 19.2668 8.43841 19.8793 8.31084 20.4485L8.30932 20.4553L8.3093 20.4552L7.4218 24.2927L7.42177 24.2929C7.09301 25.7136 7.43674 26.1865 7.56258 26.2783C7.68923 26.3707 8.24654 26.5537 9.50342 25.8078L9.50439 25.8072L13.2419 23.5947L13.2485 23.5908L13.2486 23.5908C13.7845 23.279 14.4228 23.1521 15.0051 23.1521C15.5863 23.1521 16.2252 23.2786 16.7589 23.5947C16.7589 23.5947 16.7589 23.5947 16.7589 23.5948C16.759 23.5948 16.7591 23.5949 16.7593 23.595L20.4955 25.8067C20.4956 25.8068 20.4956 25.8068 20.4957 25.8068C21.7637 26.5558 22.3197 26.3728 22.4432 26.2827C22.5649 26.194 22.9088 25.7246 22.5789 24.2927L16.2481 4.84468ZM16.2481 4.84468L18.4465 9.24144C18.6885 9.73316 19.0906 10.15 19.5025 10.454C19.9163 10.7593 20.4327 11.0191 20.9697 11.1086L20.9703 11.1087L24.9572 11.7711C24.9574 11.7711 24.9576 11.7712 24.9578 11.7712C26.056 11.9544 26.3828 12.3811 26.4533 12.6003C26.523 12.8171 26.508 13.3512 25.7172 14.1367L25.7147 14.1391L22.6147 17.2391C22.1989 17.6549 21.9233 18.2078 21.7718 18.7371C21.6202 19.2668 21.5623 19.8793 21.6899 20.4485L21.6899 20.4485L21.6914 20.4552L22.5788 24.292L16.2481 4.84468Z" stroke="#EC4A3A" stroke-width="2.04545" stroke-linecap="round" stroke-linejoin="round"/>
</svg>
