<svg width="42" height="50" viewBox="0 0 42 50" fill="none" xmlns="http://www.w3.org/2000/svg">
<path opacity="0.2" d="M14.8273 15.3795C16.6834 19.2512 19.6146 21.963 23.621 23.5148C27.6273 25.0666 31.6056 25.0125 35.5558 23.3525C31.6056 25.0125 28.785 27.8214 27.094 31.7791C25.403 35.7367 25.291 39.7332 26.7578 43.7685C25.5472 41.2145 23.8091 39.1355 21.5437 37.5313C19.2783 35.9272 16.7664 34.9621 14.0078 34.636C11.2492 34.31 8.56617 34.6949 5.95867 35.7907C9.9283 34.1224 12.7655 31.3123 14.4704 27.3604C16.1752 23.4084 16.2942 19.4148 14.8273 15.3795Z" fill="#FF5D61"/>
<path opacity="0.2" d="M29.4141 2.71357C30.2255 4.40625 31.507 5.59182 33.2586 6.27026C35.0101 6.94871 36.7494 6.92505 38.4763 6.19928C36.7494 6.92505 35.5162 8.15305 34.777 9.8833C34.0377 11.6136 33.9887 13.3608 34.63 15.125C34.1007 14.0084 33.3408 13.0994 32.3504 12.3981C31.36 11.6968 30.2618 11.2749 29.0558 11.1323C27.8498 10.9898 26.6768 11.1581 25.5368 11.6371C27.2723 10.9078 28.5127 9.67925 29.258 7.95149C30.0034 6.22373 30.0554 4.47776 29.4141 2.71357Z" fill="#FF5D61"/>
</svg>
