<svg width="135" height="117" viewBox="0 0 135 117" fill="none" xmlns="http://www.w3.org/2000/svg">
<path d="M2.64613 5.29115C4.10755 5.29115 5.29226 4.10669 5.29226 2.64558C5.29226 1.18446 4.10755 0 2.64613 0C1.18471 0 0 1.18446 0 2.64558C0 4.10669 1.18471 5.29115 2.64613 5.29115Z" fill="white"/>
<path d="M21.1696 5.29115C22.631 5.29115 23.8157 4.10669 23.8157 2.64558C23.8157 1.18446 22.631 0 21.1696 0C19.7082 0 18.5234 1.18446 18.5234 2.64558C18.5234 4.10669 19.7082 5.29115 21.1696 5.29115Z" fill="white"/>
<path d="M39.692 5.29115C41.1534 5.29115 42.3382 4.10669 42.3382 2.64558C42.3382 1.18446 41.1534 0 39.692 0C38.2306 0 37.0459 1.18446 37.0459 2.64558C37.0459 4.10669 38.2306 5.29115 39.692 5.29115Z" fill="white"/>
<path d="M58.2155 5.29115C59.6769 5.29115 60.8616 4.10669 60.8616 2.64558C60.8616 1.18446 59.6769 0 58.2155 0C56.754 0 55.5693 1.18446 55.5693 2.64558C55.5693 4.10669 56.754 5.29115 58.2155 5.29115Z" fill="white"/>
<path d="M76.7379 5.29115C78.1993 5.29115 79.3841 4.10669 79.3841 2.64558C79.3841 1.18446 78.1993 0 76.7379 0C75.2765 0 74.0918 1.18446 74.0918 2.64558C74.0918 4.10669 75.2765 5.29115 76.7379 5.29115Z" fill="white"/>
<path d="M95.2614 5.29115C96.7228 5.29115 97.9075 4.10669 97.9075 2.64558C97.9075 1.18446 96.7228 0 95.2614 0C93.7999 0 92.6152 1.18446 92.6152 2.64558C92.6152 4.10669 93.7999 5.29115 95.2614 5.29115Z" fill="white"/>
<path d="M113.785 5.29115C115.246 5.29115 116.431 4.10669 116.431 2.64558C116.431 1.18446 115.246 0 113.785 0C112.323 0 111.139 1.18446 111.139 2.64558C111.139 4.10669 112.323 5.29115 113.785 5.29115Z" fill="white"/>
<path d="M132.306 5.29115C133.768 5.29115 134.952 4.10669 134.952 2.64558C134.952 1.18446 133.768 0 132.306 0C130.845 0 129.66 1.18446 129.66 2.64558C129.66 4.10669 130.845 5.29115 132.306 5.29115Z" fill="white"/>
<path d="M2.64613 23.8098C4.10755 23.8098 5.29226 22.6254 5.29226 21.1644C5.29226 19.7034 4.10755 18.519 2.64613 18.519C1.18471 18.519 0 19.7034 0 21.1644C0 22.6254 1.18471 23.8098 2.64613 23.8098Z" fill="white"/>
<path d="M21.1696 23.8098C22.631 23.8098 23.8157 22.6254 23.8157 21.1644C23.8157 19.7034 22.631 18.519 21.1696 18.519C19.7082 18.519 18.5234 19.7034 18.5234 21.1644C18.5234 22.6254 19.7082 23.8098 21.1696 23.8098Z" fill="white"/>
<path d="M39.692 23.8098C41.1534 23.8098 42.3382 22.6254 42.3382 21.1644C42.3382 19.7034 41.1534 18.519 39.692 18.519C38.2306 18.519 37.0459 19.7034 37.0459 21.1644C37.0459 22.6254 38.2306 23.8098 39.692 23.8098Z" fill="white"/>
<path d="M58.2155 23.8098C59.6769 23.8098 60.8616 22.6254 60.8616 21.1644C60.8616 19.7034 59.6769 18.519 58.2155 18.519C56.754 18.519 55.5693 19.7034 55.5693 21.1644C55.5693 22.6254 56.754 23.8098 58.2155 23.8098Z" fill="white"/>
<path d="M76.7379 23.8098C78.1993 23.8098 79.3841 22.6254 79.3841 21.1644C79.3841 19.7034 78.1993 18.519 76.7379 18.519C75.2765 18.519 74.0918 19.7034 74.0918 21.1644C74.0918 22.6254 75.2765 23.8098 76.7379 23.8098Z" fill="white"/>
<path d="M95.2614 23.8098C96.7228 23.8098 97.9075 22.6254 97.9075 21.1644C97.9075 19.7034 96.7228 18.519 95.2614 18.519C93.7999 18.519 92.6152 19.7034 92.6152 21.1644C92.6152 22.6254 93.7999 23.8098 95.2614 23.8098Z" fill="white"/>
<path d="M113.785 23.8098C115.246 23.8098 116.431 22.6254 116.431 21.1644C116.431 19.7034 115.246 18.519 113.785 18.519C112.323 18.519 111.139 19.7034 111.139 21.1644C111.139 22.6254 112.323 23.8098 113.785 23.8098Z" fill="white"/>
<path d="M132.307 23.8098C133.769 23.8098 134.953 22.6254 134.953 21.1644C134.953 19.7034 133.769 18.519 132.307 18.519C130.846 18.519 129.661 19.7034 129.661 21.1644C129.661 22.6254 130.846 23.8098 132.307 23.8098Z" fill="white"/>
<path d="M2.64613 42.3292C4.10755 42.3292 5.29226 41.1447 5.29226 39.6834C5.29226 38.2222 4.10755 37.0377 2.64613 37.0377C1.18471 37.0377 0 38.2222 0 39.6834C0 41.1447 1.18471 42.3292 2.64613 42.3292Z" fill="white"/>
<path d="M21.1696 42.3292C22.631 42.3292 23.8157 41.1447 23.8157 39.6834C23.8157 38.2222 22.631 37.0377 21.1696 37.0377C19.7082 37.0377 18.5234 38.2222 18.5234 39.6834C18.5234 41.1447 19.7082 42.3292 21.1696 42.3292Z" fill="white"/>
<path d="M39.692 42.3292C41.1534 42.3292 42.3382 41.1447 42.3382 39.6834C42.3382 38.2222 41.1534 37.0377 39.692 37.0377C38.2306 37.0377 37.0459 38.2222 37.0459 39.6834C37.0459 41.1447 38.2306 42.3292 39.692 42.3292Z" fill="white"/>
<path d="M58.2155 42.3292C59.6769 42.3292 60.8616 41.1447 60.8616 39.6834C60.8616 38.2222 59.6769 37.0377 58.2155 37.0377C56.754 37.0377 55.5693 38.2222 55.5693 39.6834C55.5693 41.1447 56.754 42.3292 58.2155 42.3292Z" fill="white"/>
<path d="M76.7379 42.3292C78.1993 42.3292 79.3841 41.1447 79.3841 39.6834C79.3841 38.2222 78.1993 37.0377 76.7379 37.0377C75.2765 37.0377 74.0918 38.2222 74.0918 39.6834C74.0918 41.1447 75.2765 42.3292 76.7379 42.3292Z" fill="white"/>
<path d="M95.2614 42.3292C96.7228 42.3292 97.9075 41.1447 97.9075 39.6834C97.9075 38.2222 96.7228 37.0377 95.2614 37.0377C93.7999 37.0377 92.6152 38.2222 92.6152 39.6834C92.6152 41.1447 93.7999 42.3292 95.2614 42.3292Z" fill="white"/>
<path d="M113.785 42.3292C115.246 42.3292 116.431 41.1447 116.431 39.6834C116.431 38.2222 115.246 37.0377 113.785 37.0377C112.323 37.0377 111.139 38.2222 111.139 39.6834C111.139 41.1447 112.323 42.3292 113.785 42.3292Z" fill="white"/>
<path d="M132.307 42.3292C133.769 42.3292 134.953 41.1447 134.953 39.6834C134.953 38.2222 133.769 37.0377 132.307 37.0377C130.846 37.0377 129.661 38.2222 129.661 39.6834C129.661 41.1447 130.846 42.3292 132.307 42.3292Z" fill="white"/>
<path d="M2.64613 60.8478C4.10755 60.8478 5.29226 59.6633 5.29226 58.2022C5.29226 56.7411 4.10755 55.5566 2.64613 55.5566C1.18471 55.5566 0 56.7411 0 58.2022C0 59.6633 1.18471 60.8478 2.64613 60.8478Z" fill="white"/>
<path d="M21.1696 60.8478C22.631 60.8478 23.8157 59.6633 23.8157 58.2022C23.8157 56.7411 22.631 55.5566 21.1696 55.5566C19.7082 55.5566 18.5234 56.7411 18.5234 58.2022C18.5234 59.6633 19.7082 60.8478 21.1696 60.8478Z" fill="white"/>
<path d="M39.692 60.8478C41.1534 60.8478 42.3382 59.6633 42.3382 58.2022C42.3382 56.7411 41.1534 55.5566 39.692 55.5566C38.2306 55.5566 37.0459 56.7411 37.0459 58.2022C37.0459 59.6633 38.2306 60.8478 39.692 60.8478Z" fill="white"/>
<path d="M58.2155 60.8478C59.6769 60.8478 60.8616 59.6633 60.8616 58.2022C60.8616 56.7411 59.6769 55.5566 58.2155 55.5566C56.754 55.5566 55.5693 56.7411 55.5693 58.2022C55.5693 59.6633 56.754 60.8478 58.2155 60.8478Z" fill="white"/>
<path d="M76.7379 60.8478C78.1993 60.8478 79.3841 59.6633 79.3841 58.2022C79.3841 56.7411 78.1993 55.5566 76.7379 55.5566C75.2765 55.5566 74.0918 56.7411 74.0918 58.2022C74.0918 59.6633 75.2765 60.8478 76.7379 60.8478Z" fill="white"/>
<path d="M95.2614 60.8478C96.7228 60.8478 97.9075 59.6633 97.9075 58.2022C97.9075 56.7411 96.7228 55.5566 95.2614 55.5566C93.7999 55.5566 92.6152 56.7411 92.6152 58.2022C92.6152 59.6633 93.7999 60.8478 95.2614 60.8478Z" fill="white"/>
<path d="M113.785 60.8478C115.246 60.8478 116.431 59.6633 116.431 58.2022C116.431 56.7411 115.246 55.5566 113.785 55.5566C112.323 55.5566 111.139 56.7411 111.139 58.2022C111.139 59.6633 112.323 60.8478 113.785 60.8478Z" fill="white"/>
<path d="M132.307 60.8478C133.769 60.8478 134.953 59.6633 134.953 58.2022C134.953 56.7411 133.769 55.5566 132.307 55.5566C130.846 55.5566 129.661 56.7411 129.661 58.2022C129.661 59.6633 130.846 60.8478 132.307 60.8478Z" fill="white"/>
<path d="M2.64613 79.3669C4.10755 79.3669 5.29226 78.1823 5.29226 76.7211C5.29226 75.2599 4.10755 74.0753 2.64613 74.0753C1.18471 74.0753 0 75.2599 0 76.7211C0 78.1823 1.18471 79.3669 2.64613 79.3669Z" fill="white"/>
<path d="M21.1696 79.3669C22.631 79.3669 23.8157 78.1823 23.8157 76.7211C23.8157 75.2599 22.631 74.0753 21.1696 74.0753C19.7082 74.0753 18.5234 75.2599 18.5234 76.7211C18.5234 78.1823 19.7082 79.3669 21.1696 79.3669Z" fill="white"/>
<path d="M39.692 79.3669C41.1534 79.3669 42.3382 78.1823 42.3382 76.7211C42.3382 75.2599 41.1534 74.0753 39.692 74.0753C38.2306 74.0753 37.0459 75.2599 37.0459 76.7211C37.0459 78.1823 38.2306 79.3669 39.692 79.3669Z" fill="white"/>
<path d="M58.2155 79.3669C59.6769 79.3669 60.8616 78.1823 60.8616 76.7211C60.8616 75.2599 59.6769 74.0753 58.2155 74.0753C56.754 74.0753 55.5693 75.2599 55.5693 76.7211C55.5693 78.1823 56.754 79.3669 58.2155 79.3669Z" fill="white"/>
<path d="M76.7379 79.3669C78.1993 79.3669 79.3841 78.1823 79.3841 76.7211C79.3841 75.2599 78.1993 74.0753 76.7379 74.0753C75.2765 74.0753 74.0918 75.2599 74.0918 76.7211C74.0918 78.1823 75.2765 79.3669 76.7379 79.3669Z" fill="white"/>
<path d="M95.2614 79.3669C96.7228 79.3669 97.9075 78.1823 97.9075 76.7211C97.9075 75.2599 96.7228 74.0753 95.2614 74.0753C93.7999 74.0753 92.6152 75.2599 92.6152 76.7211C92.6152 78.1823 93.7999 79.3669 95.2614 79.3669Z" fill="white"/>
<path d="M113.785 79.3669C115.246 79.3669 116.431 78.1823 116.431 76.7211C116.431 75.2599 115.246 74.0753 113.785 74.0753C112.323 74.0753 111.139 75.2599 111.139 76.7211C111.139 78.1823 112.323 79.3669 113.785 79.3669Z" fill="white"/>
<path d="M132.307 79.3669C133.769 79.3669 134.953 78.1823 134.953 76.7211C134.953 75.2599 133.769 74.0753 132.307 74.0753C130.846 74.0753 129.661 75.2599 129.661 76.7211C129.661 78.1823 130.846 79.3669 132.307 79.3669Z" fill="white"/>
<path d="M2.64613 97.8855C4.10755 97.8855 5.29226 96.7011 5.29226 95.2401C5.29226 93.7791 4.10755 92.5947 2.64613 92.5947C1.18471 92.5947 0 93.7791 0 95.2401C0 96.7011 1.18471 97.8855 2.64613 97.8855Z" fill="white"/>
<path d="M21.1696 97.8855C22.631 97.8855 23.8157 96.7011 23.8157 95.2401C23.8157 93.7791 22.631 92.5947 21.1696 92.5947C19.7082 92.5947 18.5234 93.7791 18.5234 95.2401C18.5234 96.7011 19.7082 97.8855 21.1696 97.8855Z" fill="white"/>
<path d="M39.692 97.8855C41.1534 97.8855 42.3382 96.7011 42.3382 95.2401C42.3382 93.7791 41.1534 92.5947 39.692 92.5947C38.2306 92.5947 37.0459 93.7791 37.0459 95.2401C37.0459 96.7011 38.2306 97.8855 39.692 97.8855Z" fill="white"/>
<path d="M58.2155 97.8855C59.6769 97.8855 60.8616 96.7011 60.8616 95.2401C60.8616 93.7791 59.6769 92.5947 58.2155 92.5947C56.754 92.5947 55.5693 93.7791 55.5693 95.2401C55.5693 96.7011 56.754 97.8855 58.2155 97.8855Z" fill="white"/>
<path d="M76.7379 97.8855C78.1993 97.8855 79.3841 96.7011 79.3841 95.2401C79.3841 93.7791 78.1993 92.5947 76.7379 92.5947C75.2765 92.5947 74.0918 93.7791 74.0918 95.2401C74.0918 96.7011 75.2765 97.8855 76.7379 97.8855Z" fill="white"/>
<path d="M95.2614 97.8855C96.7228 97.8855 97.9075 96.7011 97.9075 95.2401C97.9075 93.7791 96.7228 92.5947 95.2614 92.5947C93.7999 92.5947 92.6152 93.7791 92.6152 95.2401C92.6152 96.7011 93.7999 97.8855 95.2614 97.8855Z" fill="white"/>
<path d="M113.785 97.8855C115.246 97.8855 116.431 96.7011 116.431 95.2401C116.431 93.7791 115.246 92.5947 113.785 92.5947C112.323 92.5947 111.139 93.7791 111.139 95.2401C111.139 96.7011 112.323 97.8855 113.785 97.8855Z" fill="white"/>
<path d="M132.307 97.8855C133.769 97.8855 134.953 96.7011 134.953 95.2401C134.953 93.7791 133.769 92.5947 132.307 92.5947C130.846 92.5947 129.661 93.7791 129.661 95.2401C129.661 96.7011 130.846 97.8855 132.307 97.8855Z" fill="white"/>
<path d="M2.64613 116.405C4.10755 116.405 5.29226 115.22 5.29226 113.759C5.29226 112.298 4.10755 111.113 2.64613 111.113C1.18471 111.113 0 112.298 0 113.759C0 115.22 1.18471 116.405 2.64613 116.405Z" fill="white"/>
<path d="M21.1696 116.405C22.631 116.405 23.8157 115.22 23.8157 113.759C23.8157 112.298 22.631 111.113 21.1696 111.113C19.7082 111.113 18.5234 112.298 18.5234 113.759C18.5234 115.22 19.7082 116.405 21.1696 116.405Z" fill="white"/>
<path d="M39.692 116.405C41.1534 116.405 42.3382 115.22 42.3382 113.759C42.3382 112.298 41.1534 111.113 39.692 111.113C38.2306 111.113 37.0459 112.298 37.0459 113.759C37.0459 115.22 38.2306 116.405 39.692 116.405Z" fill="white"/>
<path d="M58.2155 116.405C59.6769 116.405 60.8616 115.22 60.8616 113.759C60.8616 112.298 59.6769 111.113 58.2155 111.113C56.754 111.113 55.5693 112.298 55.5693 113.759C55.5693 115.22 56.754 116.405 58.2155 116.405Z" fill="white"/>
<path d="M76.7379 116.405C78.1993 116.405 79.3841 115.22 79.3841 113.759C79.3841 112.298 78.1993 111.113 76.7379 111.113C75.2765 111.113 74.0918 112.298 74.0918 113.759C74.0918 115.22 75.2765 116.405 76.7379 116.405Z" fill="white"/>
<path d="M95.2614 116.405C96.7228 116.405 97.9075 115.22 97.9075 113.759C97.9075 112.298 96.7228 111.113 95.2614 111.113C93.7999 111.113 92.6152 112.298 92.6152 113.759C92.6152 115.22 93.7999 116.405 95.2614 116.405Z" fill="white"/>
<path d="M113.785 116.405C115.246 116.405 116.431 115.22 116.431 113.759C116.431 112.298 115.246 111.113 113.785 111.113C112.323 111.113 111.139 112.298 111.139 113.759C111.139 115.22 112.323 116.405 113.785 116.405Z" fill="white"/>
<path d="M132.307 116.405C133.769 116.405 134.953 115.22 134.953 113.759C134.953 112.298 133.769 111.113 132.307 111.113C130.846 111.113 129.661 112.298 129.661 113.759C129.661 115.22 130.846 116.405 132.307 116.405Z" fill="white"/>
</svg>
